NotoSansKhmerUI-CondensedLight.ufo
<glyph name="exclam" format="2">
  <advance width="194"/>
  <unicode hex="0021"/>
  <note>
exclam
</note>
  <outline>
    <contour>
      <point x="109" y="414" type="line"/>
      <point x="114" y="958" type="line"/>
      <point x="83" y="958" type="line"/>
      <point x="86" y="414" type="line"/>
    </contour>
    <contour>
      <point x="72" y="274" type="curve" smooth="yes"/>
      <point x="72" y="253"/>
      <point x="77" y="238"/>
      <point x="97" y="238" type="curve" smooth="yes"/>
      <point x="115" y="238"/>
      <point x="123" y="251"/>
      <point x="123" y="274" type="curve" smooth="yes"/>
      <point x="123" y="297"/>
      <point x="116" y="309"/>
      <point x="97" y="309" type="curve" smooth="yes"/>
      <point x="77" y="309"/>
      <point x="72" y="293"/>
    </contour>
  </outline>
</glyph>
<glyph name="quotedbl" format="2">
  <advance width="320"/>
  <unicode hex="0022"/>
  <note>
quotedbl
</note>
  <outline>
    <contour>
      <point x="77" y="700" type="line"/>
      <point x="97" y="700" type="line"/>
      <point x="101" y="958" type="line"/>
      <point x="73" y="958" type="line"/>
    </contour>
    <contour>
      <point x="223" y="700" type="line"/>
      <point x="243" y="700" type="line"/>
      <point x="247" y="958" type="line"/>
      <point x="219" y="958" type="line"/>
    </contour>
  </outline>
</glyph>
<glyph name="quotesingle" format="2">
  <advance width="161"/>
  <unicode hex="0027"/>
  <note>
quotesingle
</note>
  <outline>
    <contour>
      <point x="71" y="700" type="line"/>
      <point x="93" y="700" type="line"/>
      <point x="97" y="958" type="line"/>
      <point x="65" y="958" type="line"/>
    </contour>
  </outline>
</glyph>
<glyph name="parenleft" format="2">
  <advance width="255"/>
  <unicode hex="0028"/>
  <note>
parenleft
</note>
  <outline>
    <contour>
      <point x="42" y="518" type="curve" smooth="yes"/>
      <point x="42" y="343"/>
      <point x="96" y="198"/>
      <point x="187" y="86" type="curve"/>
      <point x="220" y="86" type="line"/>
      <point x="119" y="205"/>
      <point x="69" y="353"/>
      <point x="69" y="519" type="curve" smooth="yes"/>
      <point x="69" y="687"/>
      <point x="117" y="840"/>
      <point x="220" y="958" type="curve"/>
      <point x="187" y="958" type="line"/>
      <point x="96" y="850"/>
      <point x="42" y="695"/>
    </contour>
  </outline>
</glyph>
<glyph name="hyphen" format="2">
  <advance width="263"/>
  <unicode hex="002D"/>
  <note>
hyphen
</note>
  <outline>
    <contour>
      <point x="26" y="503" type="line"/>
      <point x="237" y="503" type="line"/>
      <point x="237" y="530" type="line"/>
      <point x="26" y="530" type="line"/>
    </contour>
  </outline>
</glyph>
<glyph name="period" format="2">
  <advance width="220"/>
  <unicode hex="002E"/>
  <note>
period
</note>
  <outline>
    <contour>
      <point x="85" y="267" type="curve" smooth="yes"/>
      <point x="85" y="250"/>
      <point x="90" y="236"/>
      <point x="110" y="236" type="curve" smooth="yes"/>
      <point x="134" y="236"/>
      <point x="137" y="250"/>
      <point x="137" y="267" type="curve" smooth="yes"/>
      <point x="137" y="283"/>
      <point x="134" y="298"/>
      <point x="110" y="298" type="curve" smooth="yes"/>
      <point x="90" y="298"/>
      <point x="85" y="283"/>
    </contour>
  </outline>
</glyph>
<glyph name="colon" format="2">
  <advance width="180"/>
  <unicode hex="003A"/>
  <note>
colon
</note>
  <outline>
    <contour>
      <point x="65" y="275" type="curve" smooth="yes"/>
      <point x="65" y="256"/>
      <point x="67" y="239"/>
      <point x="90" y="239" type="curve" smooth="yes"/>
      <point x="112" y="239"/>
      <point x="116" y="255"/>
      <point x="116" y="275" type="curve" smooth="yes"/>
      <point x="116" y="294"/>
      <point x="112" y="310"/>
      <point x="90" y="310" type="curve" smooth="yes"/>
      <point x="69" y="310"/>
      <point x="65" y="294"/>
    </contour>
    <contour>
      <point x="65" y="740" type="curve" smooth="yes"/>
      <point x="65" y="720"/>
      <point x="70" y="705"/>
      <point x="90" y="705" type="curve" smooth="yes"/>
      <point x="108" y="705"/>
      <point x="116" y="718"/>
      <point x="116" y="741" type="curve" smooth="yes"/>
      <point x="116" y="765"/>
      <point x="109" y="776"/>
      <point x="91" y="776" type="curve" smooth="yes"/>
      <point x="70" y="776"/>
      <point x="65" y="760"/>
    </contour>
  </outline>
</glyph>
<glyph name="semicolon" format="2">
  <advance width="177"/>
  <unicode hex="003B"/>
  <note>
semicolon
</note>
  <outline>
    <contour>
      <point x="117" y="345" type="line"/>
      <point x="89" y="345" type="line"/>
      <point x="79" y="266"/>
      <point x="72" y="231"/>
      <point x="38" y="115" type="curve"/>
      <point x="59" y="115" type="line"/>
      <point x="88" y="186"/>
      <point x="110" y="270"/>
      <point x="121" y="332" type="curve"/>
    </contour>
    <contour>
      <point x="70" y="741" type="curve" smooth="yes"/>
      <point x="70" y="720"/>
      <point x="75" y="705"/>
      <point x="95" y="705" type="curve" smooth="yes"/>
      <point x="113" y="705"/>
      <point x="121" y="718"/>
      <point x="121" y="741" type="curve" smooth="yes"/>
      <point x="121" y="764"/>
      <point x="114" y="776"/>
      <point x="95" y="776" type="curve" smooth="yes"/>
      <point x="75" y="776"/>
      <point x="70" y="760"/>
    </contour>
  </outline>
</glyph>
<glyph name="question" format="2">
  <advance width="263"/>
  <unicode hex="003F"/>
  <note>
question
</note>
  <outline>
    <contour>
      <point x="85" y="414" type="line"/>
      <point x="109" y="414" type="line"/>
      <point x="109" y="436" type="line" smooth="yes"/>
      <point x="109" y="503"/>
      <point x="114" y="538"/>
      <point x="161" y="607" type="curve" smooth="yes"/>
      <point x="200" y="664"/>
      <point x="240" y="712"/>
      <point x="240" y="809" type="curve" smooth="yes"/>
      <point x="240" y="918"/>
      <point x="189" y="968"/>
      <point x="115" y="968" type="curve" smooth="yes"/>
      <point x="76" y="968"/>
      <point x="40" y="954"/>
      <point x="17" y="937" type="curve"/>
      <point x="30" y="916" type="line"/>
      <point x="54" y="933"/>
      <point x="83" y="943"/>
      <point x="114" y="943" type="curve" smooth="yes"/>
      <point x="177" y="943"/>
      <point x="213" y="901"/>
      <point x="213" y="811" type="curve" smooth="yes"/>
      <point x="213" y="727"/>
      <point x="182" y="681"/>
      <point x="138" y="617" type="curve" smooth="yes"/>
      <point x="96" y="556"/>
      <point x="85" y="518"/>
      <point x="85" y="437" type="curve" smooth="yes"/>
    </contour>
    <contour>
      <point x="72" y="273" type="curve" smooth="yes"/>
      <point x="72" y="253"/>
      <point x="77" y="238"/>
      <point x="97" y="238" type="curve" smooth="yes"/>
      <point x="115" y="238"/>
      <point x="123" y="251"/>
      <point x="123" y="275" type="curve" smooth="yes"/>
      <point x="123" y="297"/>
      <point x="116" y="309"/>
      <point x="98" y="309" type="curve" smooth="yes"/>
      <point x="77" y="309"/>
      <point x="72" y="293"/>
    </contour>
  </outline>
</glyph>
<glyph name="guillemotleft" format="2">
  <advance width="408"/>
  <unicode hex="00AB"/>
  <note>
guillemotleft
</note>
  <outline>
    <contour>
      <point x="40" y="528" type="line"/>
      <point x="40" y="515" type="line"/>
      <point x="181" y="342" type="line"/>
      <point x="199" y="352" type="line"/>
      <point x="75" y="522" type="line"/>
      <point x="198" y="693" type="line"/>
      <point x="181" y="703" type="line"/>
    </contour>
    <contour>
      <point x="210" y="528" type="line"/>
      <point x="210" y="515" type="line"/>
      <point x="351" y="342" type="line"/>
      <point x="369" y="352" type="line"/>
      <point x="245" y="522" type="line"/>
      <point x="368" y="693" type="line"/>
      <point x="351" y="703" type="line"/>
    </contour>
  </outline>
</glyph>
<glyph name="uni00AD" format="2">
  <advance width="263"/>
  <unicode hex="00AD"/>
  <note>
uni00AD
</note>
  <outline>
    <contour>
      <point x="26" y="747" type="line"/>
      <point x="237" y="747" type="line"/>
      <point x="237" y="774" type="line"/>
      <point x="26" y="774" type="line"/>
    </contour>
  </outline>
</glyph>
<glyph name="guillemotright" format="2">
  <advance width="397"/>
  <unicode hex="00BB"/>
  <note>
guillemotright
</note>
  <outline>
    <contour>
      <point x="358" y="515" type="line"/>
      <point x="358" y="528" type="line"/>
      <point x="217" y="703" type="line"/>
      <point x="199" y="693" type="line"/>
      <point x="323" y="522" type="line"/>
      <point x="199" y="352" type="line"/>
      <point x="217" y="342" type="line"/>
    </contour>
    <contour>
      <point x="199" y="515" type="line"/>
      <point x="199" y="528" type="line"/>
      <point x="58" y="703" type="line"/>
      <point x="40" y="693" type="line"/>
      <point x="164" y="522" type="line"/>
      <point x="40" y="352" type="line"/>
      <point x="58" y="342" type="line"/>
    </contour>
  </outline>
</glyph>
<glyph name="uni1780" format="2">
  <advance width="489"/>
  <unicode hex="1780"/>
  <note>
uni1780
</note>
  <outline>
    <contour>
      <point x="90" y="754" type="line"/>
      <point x="399" y="754" type="line"/>
      <point x="399" y="780" type="line"/>
      <point x="90" y="780" type="line"/>
    </contour>
    <contour>
      <point x="90" y="244" type="line"/>
      <point x="116" y="244" type="line"/>
      <point x="116" y="506" type="line" smooth="yes"/>
      <point x="116" y="583"/>
      <point x="143" y="627"/>
      <point x="243" y="627" type="curve" smooth="yes"/>
      <point x="343" y="627"/>
      <point x="373" y="583"/>
      <point x="373" y="506" type="curve" smooth="yes"/>
      <point x="373" y="244" type="line"/>
      <point x="399" y="244" type="line"/>
      <point x="399" y="506" type="line" smooth="yes"/>
      <point x="399" y="609"/>
      <point x="339" y="653"/>
      <point x="243" y="653" type="curve" smooth="yes"/>
      <point x="147" y="653"/>
      <point x="90" y="609"/>
      <point x="90" y="506" type="curve" smooth="yes"/>
    </contour>
  </outline>
</glyph>
<glyph name="uni1781" format="2">
  <advance width="489"/>
  <unicode hex="1781"/>
  <note>
uni1781
</note>
  <outline>
    <contour>
      <point x="243" y="244" type="curve" smooth="yes"/>
      <point x="356" y="244"/>
      <point x="399" y="297"/>
      <point x="399" y="402" type="curve" smooth="yes"/>
      <point x="399" y="448" type="line"/>
      <point x="373" y="448" type="line"/>
      <point x="373" y="402" type="line" smooth="yes"/>
      <point x="373" y="313"/>
      <point x="343" y="270"/>
      <point x="243" y="270" type="curve" smooth="yes"/>
      <point x="157" y="270"/>
      <point x="116" y="311"/>
      <point x="116" y="402" type="curve" smooth="yes"/>
      <point x="116" y="456" type="line"/>
      <point x="209" y="468" type="line" smooth="yes"/>
      <point x="336" y="484"/>
      <point x="399" y="529"/>
      <point x="399" y="642" type="curve" smooth="yes"/>
      <point x="399" y="727"/>
      <point x="348" y="780"/>
      <point x="243" y="780" type="curve" smooth="yes"/>
      <point x="143" y="780"/>
      <point x="83" y="720"/>
      <point x="83" y="634" type="curve" smooth="yes"/>
      <point x="83" y="585"/>
      <point x="116" y="545"/>
      <point x="144" y="545" type="curve" smooth="yes"/>
      <point x="150" y="545" type="line"/>
      <point x="150" y="571" type="line"/>
      <point x="133" y="571"/>
      <point x="109" y="587"/>
      <point x="109" y="634" type="curve" smooth="yes"/>
      <point x="109" y="712"/>
      <point x="154" y="754"/>
      <point x="243" y="754" type="curve" smooth="yes"/>
      <point x="343" y="754"/>
      <point x="373" y="711"/>
      <point x="373" y="642" type="curve" smooth="yes"/>
      <point x="373" y="547"/>
      <point x="320" y="506"/>
      <point x="205" y="493" type="curve" smooth="yes"/>
      <point x="90" y="480" type="line"/>
      <point x="90" y="402" type="line" smooth="yes"/>
      <point x="90" y="297"/>
      <point x="142" y="244"/>
    </contour>
  </outline>
</glyph>
<glyph name="uni1782" format="2">
  <advance width="489"/>
  <unicode hex="1782"/>
  <note>
uni1782
</note>
  <outline>
    <contour>
      <point x="90" y="754" type="line"/>
      <point x="399" y="754" type="line"/>
      <point x="399" y="780" type="line"/>
      <point x="90" y="780" type="line"/>
    </contour>
    <contour>
      <point x="90" y="244" type="line"/>
      <point x="116" y="244" type="line"/>
      <point x="116" y="297" type="line"/>
      <point x="123" y="355"/>
      <point x="155" y="376"/>
      <point x="229" y="376" type="curve" smooth="yes"/>
      <point x="271" y="376" type="line"/>
      <point x="271" y="402" type="line"/>
      <point x="220" y="402" type="line" smooth="yes"/>
      <point x="176" y="402"/>
      <point x="141" y="392"/>
      <point x="116" y="358" type="curve"/>
      <point x="116" y="506" type="line" smooth="yes"/>
      <point x="116" y="583"/>
      <point x="151" y="625"/>
      <point x="243" y="625" type="curve" smooth="yes"/>
      <point x="338" y="625"/>
      <point x="373" y="586"/>
      <point x="373" y="506" type="curve" smooth="yes"/>
      <point x="373" y="244" type="line"/>
      <point x="399" y="244" type="line"/>
      <point x="399" y="506" type="line" smooth="yes"/>
      <point x="399" y="607"/>
      <point x="343" y="651"/>
      <point x="243" y="651" type="curve" smooth="yes"/>
      <point x="145" y="651"/>
      <point x="90" y="609"/>
      <point x="90" y="506" type="curve" smooth="yes"/>
    </contour>
  </outline>
</glyph>
<glyph name="uni1783" format="2">
  <advance width="806"/>
  <unicode hex="1783"/>
  <note>
uni1783
</note>
  <outline>
    <contour>
      <point x="145" y="402" type="line" smooth="yes"/>
      <point x="145" y="297"/>
      <point x="193" y="244"/>
      <point x="290" y="244" type="curve" smooth="yes"/>
      <point x="351" y="244"/>
      <point x="397" y="260"/>
      <point x="425" y="292" type="curve"/>
      <point x="449" y="261"/>
      <point x="498" y="244"/>
      <point x="557" y="244" type="curve" smooth="yes"/>
      <point x="653" y="244"/>
      <point x="700" y="297"/>
      <point x="700" y="402" type="curve" smooth="yes"/>
      <point x="700" y="571" type="line"/>
      <point x="674" y="571" type="line"/>
      <point x="674" y="402" type="line" smooth="yes"/>
      <point x="674" y="319"/>
      <point x="638" y="270"/>
      <point x="557" y="270" type="curve" smooth="yes"/>
      <point x="485" y="270"/>
      <point x="438" y="302"/>
      <point x="438" y="332" type="curve" smooth="yes"/>
      <point x="438" y="567" type="line"/>
      <point x="412" y="567" type="line"/>
      <point x="412" y="332" type="line" smooth="yes"/>
      <point x="412" y="302"/>
      <point x="362" y="270"/>
      <point x="290" y="270" type="curve" smooth="yes"/>
      <point x="209" y="270"/>
      <point x="171" y="321"/>
      <point x="171" y="402" type="curve" smooth="yes"/>
      <point x="171" y="721" type="line" smooth="yes"/>
      <point x="171" y="754"/>
      <point x="149" y="780"/>
      <point x="106" y="780" type="curve" smooth="yes"/>
      <point x="60" y="780" type="line"/>
      <point x="60" y="754" type="line"/>
      <point x="129" y="754"/>
      <point x="145" y="746"/>
      <point x="145" y="710" type="curve" smooth="yes"/>
    </contour>
    <contour>
      <point x="674" y="550" type="line"/>
      <point x="700" y="550" type="line"/>
      <point x="700" y="592" type="line"/>
      <point x="632" y="730" type="line"/>
      <point x="639" y="754" type="line"/>
      <point x="716" y="754" type="line"/>
      <point x="716" y="780" type="line"/>
      <point x="640" y="780" type="line"/>
      <point x="627" y="763"/>
      <point x="619" y="741"/>
      <point x="619" y="724" type="curve" smooth="yes"/>
      <point x="619" y="708"/>
      <point x="629" y="678"/>
      <point x="674" y="586" type="curve"/>
    </contour>
    <contour>
      <point x="412" y="549" type="line"/>
      <point x="438" y="549" type="line"/>
      <point x="438" y="592" type="line"/>
      <point x="365" y="730" type="line"/>
      <point x="372" y="754" type="line"/>
      <point x="449" y="754" type="line"/>
      <point x="449" y="780" type="line"/>
      <point x="373" y="780" type="line"/>
      <point x="360" y="763"/>
      <point x="352" y="741"/>
      <point x="352" y="724" type="curve" smooth="yes"/>
      <point x="352" y="708"/>
      <point x="365" y="678"/>
      <point x="412" y="586" type="curve"/>
    </contour>
  </outline>
</glyph>
<glyph name="uni1785" format="2">
  <advance width="517"/>
  <unicode hex="1785"/>
  <note>
uni1785
</note>
  <outline>
    <contour>
      <point x="427" y="457" type="line"/>
      <point x="401" y="457" type="line"/>
      <point x="401" y="403" type="line" smooth="yes"/>
      <point x="401" y="313"/>
      <point x="343" y="270"/>
      <point x="265" y="270" type="curve" smooth="yes"/>
      <point x="163" y="270"/>
      <point x="128" y="313"/>
      <point x="128" y="403" type="curve" smooth="yes"/>
      <point x="128" y="588" type="line"/>
      <point x="98" y="630"/>
      <point x="83" y="651"/>
      <point x="83" y="670" type="curve" smooth="yes"/>
      <point x="83" y="698"/>
      <point x="114" y="737"/>
      <point x="128" y="754" type="curve"/>
      <point x="425" y="754" type="line"/>
      <point x="425" y="780" type="line"/>
      <point x="122" y="780" type="line"/>
      <point x="77" y="715"/>
      <point x="60" y="687"/>
      <point x="60" y="664" type="curve" smooth="yes"/>
      <point x="60" y="648"/>
      <point x="71" y="630"/>
      <point x="102" y="578" type="curve"/>
      <point x="102" y="402" type="line" smooth="yes"/>
      <point x="102" y="297"/>
      <point x="151" y="244"/>
      <point x="265" y="244" type="curve" smooth="yes"/>
      <point x="357" y="244"/>
      <point x="427" y="297"/>
      <point x="427" y="402" type="curve" smooth="yes"/>
    </contour>
    <contour>
      <point x="427" y="420" type="line"/>
      <point x="427" y="606" type="line" smooth="yes"/>
      <point x="427" y="625"/>
      <point x="420" y="633"/>
      <point x="391" y="633" type="curve" smooth="yes"/>
      <point x="346" y="633"/>
      <point x="318" y="590"/>
      <point x="318" y="548" type="curve" smooth="yes"/>
      <point x="318" y="491"/>
      <point x="363" y="462"/>
      <point x="401" y="462" type="curve"/>
      <point x="401" y="420" type="line"/>
    </contour>
    <contour>
      <point x="401" y="489" type="line"/>
      <point x="362" y="489"/>
      <point x="344" y="523"/>
      <point x="344" y="548" type="curve" smooth="yes"/>
      <point x="344" y="571"/>
      <point x="353" y="607"/>
      <point x="401" y="607" type="curve"/>
    </contour>
  </outline>
</glyph>
<glyph name="uni1787" format="2">
  <advance width="527"/>
  <unicode hex="1787"/>
  <note>
uni1787
</note>
  <outline>
    <contour>
      <point x="110" y="244" type="line"/>
      <point x="143" y="244" type="line"/>
      <point x="274" y="378" type="line"/>
      <point x="404" y="244" type="line"/>
      <point x="437" y="244" type="line"/>
      <point x="437" y="604" type="line"/>
      <point x="411" y="604" type="line"/>
      <point x="411" y="272" type="line"/>
      <point x="274" y="413" type="line"/>
      <point x="136" y="272" type="line"/>
      <point x="136" y="548" type="line"/>
      <point x="106" y="590"/>
      <point x="91" y="611"/>
      <point x="91" y="630" type="curve" smooth="yes"/>
      <point x="91" y="658"/>
      <point x="122" y="697"/>
      <point x="136" y="714" type="curve"/>
      <point x="374" y="714" type="line" smooth="yes"/>
      <point x="435" y="714"/>
      <point x="437" y="729"/>
      <point x="437" y="764" type="curve" smooth="yes"/>
      <point x="437" y="798" type="line"/>
      <point x="411" y="798" type="line"/>
      <point x="411" y="764" type="line" smooth="yes"/>
      <point x="411" y="747"/>
      <point x="406" y="740"/>
      <point x="381" y="740" type="curve" smooth="yes"/>
      <point x="130" y="740" type="line"/>
      <point x="85" y="675"/>
      <point x="68" y="647"/>
      <point x="68" y="624" type="curve" smooth="yes"/>
      <point x="68" y="608"/>
      <point x="79" y="590"/>
      <point x="110" y="538" type="curve"/>
    </contour>
  </outline>
</glyph>
<glyph name="uni1788" format="2">
  <advance width="1037"/>
  <unicode hex="1788"/>
  <note>
uni1788
</note>
  <outline>
    <contour>
      <point x="931" y="572" type="line"/>
      <point x="905" y="572" type="line"/>
      <point x="905" y="402" type="line" smooth="yes"/>
      <point x="905" y="297"/>
      <point x="842" y="270"/>
      <point x="779" y="270" type="curve" smooth="yes"/>
      <point x="722" y="270"/>
      <point x="663" y="317"/>
      <point x="663" y="356" type="curve" smooth="yes"/>
      <point x="663" y="572" type="line"/>
      <point x="637" y="572" type="line"/>
      <point x="637" y="356" type="line" smooth="yes"/>
      <point x="637" y="317"/>
      <point x="583" y="270"/>
      <point x="513" y="270" type="curve" smooth="yes"/>
      <point x="429" y="270"/>
      <point x="389" y="302"/>
      <point x="389" y="402" type="curve" smooth="yes"/>
      <point x="389" y="622" type="line" smooth="yes"/>
      <point x="389" y="727"/>
      <point x="325" y="780"/>
      <point x="239" y="780" type="curve" smooth="yes"/>
      <point x="153" y="780"/>
      <point x="90" y="727"/>
      <point x="90" y="622" type="curve" smooth="yes"/>
      <point x="90" y="422" type="line"/>
      <point x="116" y="422" type="line"/>
      <point x="116" y="622" type="line" smooth="yes"/>
      <point x="116" y="703"/>
      <point x="159" y="754"/>
      <point x="239" y="754" type="curve" smooth="yes"/>
      <point x="319" y="754"/>
      <point x="363" y="703"/>
      <point x="363" y="622" type="curve" smooth="yes"/>
      <point x="363" y="402" type="line" smooth="yes"/>
      <point x="363" y="283"/>
      <point x="418" y="244"/>
      <point x="513" y="244" type="curve" smooth="yes"/>
      <point x="582" y="244"/>
      <point x="634" y="282"/>
      <point x="650" y="312" type="curve"/>
      <point x="670" y="282"/>
      <point x="716" y="244"/>
      <point x="779" y="244" type="curve" smooth="yes"/>
      <point x="850" y="244"/>
      <point x="931" y="278"/>
      <point x="931" y="402" type="curve" smooth="yes"/>
    </contour>
    <contour>
      <point x="90" y="452" type="line" smooth="yes"/>
      <point x="90" y="271" type="line" smooth="yes"/>
      <point x="90" y="247"/>
      <point x="106" y="244"/>
      <point x="117" y="244" type="curve" smooth="yes"/>
      <point x="119" y="244" type="line" smooth="yes"/>
      <point x="152" y="244"/>
      <point x="192" y="276"/>
      <point x="192" y="333" type="curve" smooth="yes"/>
      <point x="192" y="390"/>
      <point x="146" y="412"/>
      <point x="116" y="412" type="curve"/>
      <point x="116" y="452" type="line"/>
    </contour>
    <contour>
      <point x="116" y="270" type="curve"/>
      <point x="116" y="385" type="line"/>
      <point x="148" y="385"/>
      <point x="166" y="362"/>
      <point x="166" y="333" type="curve" smooth="yes"/>
      <point x="166" y="305"/>
      <point x="152" y="271"/>
    </contour>
    <contour>
      <point x="905" y="550" type="line"/>
      <point x="931" y="550" type="line"/>
      <point x="931" y="592" type="line"/>
      <point x="863" y="730" type="line"/>
      <point x="870" y="754" type="line"/>
      <point x="947" y="754" type="line"/>
      <point x="947" y="780" type="line"/>
      <point x="871" y="780" type="line"/>
      <point x="858" y="763"/>
      <point x="850" y="741"/>
      <point x="850" y="724" type="curve" smooth="yes"/>
      <point x="850" y="708"/>
      <point x="860" y="678"/>
      <point x="905" y="586" type="curve"/>
    </contour>
    <contour>
      <point x="637" y="549" type="line"/>
      <point x="663" y="549" type="line"/>
      <point x="663" y="592" type="line"/>
      <point x="590" y="730" type="line"/>
      <point x="597" y="754" type="line"/>
      <point x="674" y="754" type="line"/>
      <point x="674" y="780" type="line"/>
      <point x="598" y="780" type="line"/>
      <point x="585" y="763"/>
      <point x="577" y="741"/>
      <point x="577" y="724" type="curve" smooth="yes"/>
      <point x="577" y="708"/>
      <point x="590" y="678"/>
      <point x="637" y="586" type="curve"/>
    </contour>
  </outline>
</glyph>
<glyph name="uni178A" format="2">
  <advance width="494"/>
  <unicode hex="178A"/>
  <note>
uni178A
</note>
  <outline>
    <contour>
      <point x="93" y="683" type="line"/>
      <point x="329" y="683" type="line" smooth="yes"/>
      <point x="361" y="683"/>
      <point x="404" y="692"/>
      <point x="404" y="760" type="curve" smooth="yes"/>
      <point x="404" y="818" type="line"/>
      <point x="378" y="818" type="line"/>
      <point x="378" y="761" type="line" smooth="yes"/>
      <point x="378" y="727"/>
      <point x="369" y="707"/>
      <point x="312" y="707" type="curve" smooth="yes"/>
      <point x="117" y="707" type="line"/>
      <point x="117" y="784" type="line"/>
      <point x="93" y="784" type="line"/>
    </contour>
    <contour>
      <point x="90" y="244" type="line"/>
      <point x="125" y="244" type="line"/>
      <point x="248" y="376" type="line"/>
      <point x="369" y="244" type="line"/>
      <point x="404" y="244" type="line"/>
      <point x="404" y="596" type="line"/>
      <point x="378" y="596" type="line"/>
      <point x="378" y="273" type="line"/>
      <point x="248" y="414" type="line"/>
      <point x="116" y="273" type="line"/>
      <point x="116" y="596" type="line"/>
      <point x="90" y="596" type="line"/>
    </contour>
  </outline>
</glyph>
<glyph name="uni178B" format="2">
  <advance width="540"/>
  <unicode hex="178B"/>
  <note>
uni178B
</note>
  <outline>
    <contour>
      <point x="280" y="244" type="curve" smooth="yes"/>
      <point x="375" y="244"/>
      <point x="437" y="297"/>
      <point x="437" y="402" type="curve" smooth="yes"/>
      <point x="437" y="569" type="line"/>
      <point x="315" y="680" type="line"/>
      <point x="353" y="734" type="line"/>
      <point x="403" y="734" type="line" smooth="yes"/>
      <point x="441" y="734"/>
      <point x="450" y="749"/>
      <point x="450" y="785" type="curve" smooth="yes"/>
      <point x="450" y="817" type="line"/>
      <point x="424" y="817" type="line"/>
      <point x="424" y="789" type="line" smooth="yes"/>
      <point x="424" y="767"/>
      <point x="418" y="760"/>
      <point x="400" y="760" type="curve" smooth="yes"/>
      <point x="345" y="760" type="line"/>
      <point x="334" y="746"/>
      <point x="293" y="700"/>
      <point x="293" y="680" type="curve" smooth="yes"/>
      <point x="293" y="665"/>
      <point x="313" y="647"/>
      <point x="411" y="558" type="curve"/>
      <point x="411" y="402" type="line" smooth="yes"/>
      <point x="411" y="308"/>
      <point x="358" y="270"/>
      <point x="280" y="270" type="curve" smooth="yes"/>
      <point x="211" y="270"/>
      <point x="150" y="308"/>
      <point x="150" y="401" type="curve" smooth="yes"/>
      <point x="150" y="747" type="line" smooth="yes"/>
      <point x="150" y="776"/>
      <point x="136" y="780"/>
      <point x="109" y="780" type="curve" smooth="yes"/>
      <point x="60" y="780" type="line"/>
      <point x="60" y="754" type="line"/>
      <point x="108" y="754"/>
      <point x="124" y="754"/>
      <point x="124" y="739" type="curve" smooth="yes"/>
      <point x="124" y="402" type="line" smooth="yes"/>
      <point x="124" y="297"/>
      <point x="186" y="244"/>
    </contour>
  </outline>
</glyph>
<glyph name="uni178C" format="2">
  <advance width="513"/>
  <unicode hex="178C"/>
  <note>
uni178C
</note>
  <outline>
    <contour>
      <point x="387" y="234" type="line"/>
      <point x="413" y="234" type="line"/>
      <point x="413" y="428" type="line"/>
      <point x="387" y="428" type="line"/>
      <point x="387" y="402" type="line" smooth="yes"/>
      <point x="387" y="355"/>
      <point x="266" y="270"/>
      <point x="210" y="270" type="curve" smooth="yes"/>
      <point x="152" y="270"/>
      <point x="125" y="317"/>
      <point x="125" y="402" type="curve" smooth="yes"/>
      <point x="125" y="452" type="line"/>
      <point x="245" y="468" type="line" smooth="yes"/>
      <point x="346" y="481"/>
      <point x="423" y="540"/>
      <point x="423" y="660" type="curve" smooth="yes"/>
      <point x="423" y="731"/>
      <point x="385" y="780"/>
      <point x="340" y="780" type="curve" smooth="yes"/>
      <point x="306" y="780"/>
      <point x="291" y="766"/>
      <point x="257" y="728" type="curve"/>
      <point x="256" y="728" type="line"/>
      <point x="224" y="765"/>
      <point x="210" y="780"/>
      <point x="182" y="780" type="curve" smooth="yes"/>
      <point x="140" y="780"/>
      <point x="90" y="728"/>
      <point x="90" y="660" type="curve" smooth="yes"/>
      <point x="90" y="596"/>
      <point x="127" y="545"/>
      <point x="189" y="545" type="curve" smooth="yes"/>
      <point x="197" y="545" type="line"/>
      <point x="197" y="571" type="line"/>
      <point x="139" y="571"/>
      <point x="116" y="611"/>
      <point x="116" y="661" type="curve" smooth="yes"/>
      <point x="116" y="706"/>
      <point x="146" y="754"/>
      <point x="180" y="754" type="curve" smooth="yes"/>
      <point x="216" y="754"/>
      <point x="231" y="700"/>
      <point x="257" y="700" type="curve" smooth="yes"/>
      <point x="270" y="700"/>
      <point x="280" y="716"/>
      <point x="293" y="729" type="curve" smooth="yes"/>
      <point x="309" y="745"/>
      <point x="319" y="754"/>
      <point x="339" y="754" type="curve" smooth="yes"/>
      <point x="371" y="754"/>
      <point x="397" y="716"/>
      <point x="397" y="652" type="curve" smooth="yes"/>
      <point x="397" y="554"/>
      <point x="327" y="504"/>
      <point x="240" y="493" type="curve" smooth="yes"/>
      <point x="99" y="475" type="line"/>
      <point x="99" y="402" type="line" smooth="yes"/>
      <point x="99" y="289"/>
      <point x="139" y="244"/>
      <point x="211" y="244" type="curve" smooth="yes"/>
      <point x="253" y="244"/>
      <point x="324" y="279"/>
      <point x="386" y="345" type="curve"/>
      <point x="387" y="345" type="line"/>
    </contour>
  </outline>
</glyph>
<glyph name="uni1791" format="2">
  <advance width="491"/>
  <unicode hex="1791"/>
  <note>
uni1791
</note>
  <outline>
    <contour>
      <point x="243" y="244" type="curve" smooth="yes"/>
      <point x="326" y="244"/>
      <point x="376" y="297"/>
      <point x="376" y="402" type="curve" smooth="yes"/>
      <point x="376" y="434" type="line"/>
      <point x="391" y="437"/>
      <point x="400" y="448"/>
      <point x="400" y="464" type="curve" smooth="yes"/>
      <point x="400" y="480"/>
      <point x="388" y="489"/>
      <point x="377" y="489" type="curve" smooth="yes"/>
      <point x="362" y="489"/>
      <point x="349" y="480"/>
      <point x="349" y="458" type="curve"/>
      <point x="178" y="491"/>
      <point x="116" y="525"/>
      <point x="116" y="622" type="curve" smooth="yes"/>
      <point x="116" y="713"/>
      <point x="151" y="754"/>
      <point x="247" y="754" type="curve" smooth="yes"/>
      <point x="334" y="754"/>
      <point x="375" y="708"/>
      <point x="375" y="632" type="curve" smooth="yes"/>
      <point x="375" y="608" type="line"/>
      <point x="401" y="608" type="line"/>
      <point x="401" y="632" type="line" smooth="yes"/>
      <point x="401" y="716"/>
      <point x="348" y="780"/>
      <point x="247" y="780" type="curve" smooth="yes"/>
      <point x="141" y="780"/>
      <point x="90" y="723"/>
      <point x="90" y="622" type="curve" smooth="yes"/>
      <point x="90" y="516"/>
      <point x="152" y="471"/>
      <point x="350" y="436" type="curve"/>
      <point x="350" y="402" type="line" smooth="yes"/>
      <point x="350" y="322"/>
      <point x="315" y="270"/>
      <point x="243" y="270" type="curve" smooth="yes"/>
      <point x="170" y="270"/>
      <point x="136" y="321"/>
      <point x="136" y="402" type="curve" smooth="yes"/>
      <point x="136" y="440" type="line"/>
      <point x="110" y="440" type="line"/>
      <point x="110" y="402" type="line" smooth="yes"/>
      <point x="110" y="297"/>
      <point x="161" y="244"/>
    </contour>
  </outline>
</glyph>
<glyph name="uni1792" format="2">
  <advance width="507"/>
  <unicode hex="1792"/>
  <note>
uni1792
</note>
  <outline>
    <contour>
      <point x="413" y="440" type="line"/>
      <point x="387" y="440" type="line"/>
      <point x="387" y="274" type="line"/>
      <point x="258" y="413" type="line"/>
      <point x="128" y="273" type="line"/>
      <point x="128" y="588" type="line"/>
      <point x="98" y="630"/>
      <point x="83" y="651"/>
      <point x="83" y="670" type="curve" smooth="yes"/>
      <point x="83" y="698"/>
      <point x="114" y="737"/>
      <point x="128" y="754" type="curve"/>
      <point x="417" y="754" type="line"/>
      <point x="417" y="780" type="line"/>
      <point x="122" y="780" type="line"/>
      <point x="77" y="715"/>
      <point x="60" y="687"/>
      <point x="60" y="664" type="curve" smooth="yes"/>
      <point x="60" y="648"/>
      <point x="71" y="630"/>
      <point x="102" y="578" type="curve"/>
      <point x="102" y="244" type="line"/>
      <point x="137" y="244" type="line"/>
      <point x="258" y="375" type="line"/>
      <point x="378" y="244" type="line"/>
      <point x="413" y="244" type="line"/>
    </contour>
    <contour>
      <point x="413" y="420" type="line"/>
      <point x="413" y="606" type="line" smooth="yes"/>
      <point x="413" y="625"/>
      <point x="406" y="633"/>
      <point x="377" y="633" type="curve" smooth="yes"/>
      <point x="332" y="633"/>
      <point x="304" y="590"/>
      <point x="304" y="548" type="curve" smooth="yes"/>
      <point x="304" y="491"/>
      <point x="349" y="462"/>
      <point x="387" y="462" type="curve"/>
      <point x="387" y="420" type="line"/>
    </contour>
    <contour>
      <point x="387" y="489" type="line"/>
      <point x="348" y="489"/>
      <point x="330" y="523"/>
      <point x="330" y="548" type="curve" smooth="yes"/>
      <point x="330" y="571"/>
      <point x="339" y="607"/>
      <point x="387" y="607" type="curve"/>
    </contour>
  </outline>
</glyph>
<glyph name="uni1795" format="2">
  <advance width="493"/>
  <unicode hex="1795"/>
  <note>
uni1795
</note>
  <outline>
    <contour>
      <point x="403" y="435" type="line"/>
      <point x="377" y="435" type="line"/>
      <point x="377" y="274" type="line"/>
      <point x="248" y="413" type="line"/>
      <point x="118" y="273" type="line"/>
      <point x="118" y="548" type="line"/>
      <point x="88" y="590"/>
      <point x="73" y="611"/>
      <point x="73" y="630" type="curve" smooth="yes"/>
      <point x="73" y="658"/>
      <point x="104" y="697"/>
      <point x="118" y="714" type="curve"/>
      <point x="346" y="714" type="line" smooth="yes"/>
      <point x="394" y="714"/>
      <point x="403" y="735"/>
      <point x="403" y="777" type="curve" smooth="yes"/>
      <point x="403" y="798" type="line"/>
      <point x="377" y="798" type="line"/>
      <point x="377" y="777" type="line" smooth="yes"/>
      <point x="377" y="747"/>
      <point x="368" y="740"/>
      <point x="349" y="740" type="curve" smooth="yes"/>
      <point x="112" y="740" type="line"/>
      <point x="67" y="675"/>
      <point x="50" y="647"/>
      <point x="50" y="624" type="curve" smooth="yes"/>
      <point x="50" y="608"/>
      <point x="61" y="590"/>
      <point x="92" y="538" type="curve"/>
      <point x="92" y="244" type="line"/>
      <point x="125" y="244" type="line"/>
      <point x="248" y="378" type="line"/>
      <point x="371" y="244" type="line"/>
      <point x="403" y="244" type="line"/>
    </contour>
    <contour>
      <point x="403" y="400" type="line"/>
      <point x="403" y="586" type="line" smooth="yes"/>
      <point x="403" y="605"/>
      <point x="396" y="613"/>
      <point x="367" y="613" type="curve" smooth="yes"/>
      <point x="322" y="613"/>
      <point x="294" y="570"/>
      <point x="294" y="528" type="curve" smooth="yes"/>
      <point x="294" y="471"/>
      <point x="339" y="442"/>
      <point x="377" y="442" type="curve"/>
      <point x="377" y="400" type="line"/>
    </contour>
    <contour>
      <point x="377" y="469" type="line"/>
      <point x="338" y="469"/>
      <point x="320" y="503"/>
      <point x="320" y="528" type="curve" smooth="yes"/>
      <point x="320" y="551"/>
      <point x="329" y="587"/>
      <point x="377" y="587" type="curve"/>
    </contour>
  </outline>
</glyph>
<glyph name="uni1797" format="2">
  <advance width="500"/>
  <unicode hex="1797"/>
  <note>
uni1797
</note>
  <outline>
    <contour>
      <point x="95" y="754" type="line"/>
      <point x="410" y="754" type="line"/>
      <point x="410" y="780" type="line"/>
      <point x="95" y="780" type="line"/>
    </contour>
    <contour>
      <point x="86" y="242" type="curve" smooth="yes"/>
      <point x="128" y="242"/>
      <point x="144" y="293"/>
      <point x="144" y="335" type="curve" smooth="yes"/>
      <point x="144" y="406"/>
      <point x="123" y="426"/>
      <point x="123" y="494" type="curve" smooth="yes"/>
      <point x="123" y="583"/>
      <point x="168" y="626"/>
      <point x="261" y="626" type="curve" smooth="yes"/>
      <point x="329" y="626"/>
      <point x="383" y="591"/>
      <point x="383" y="506" type="curve" smooth="yes"/>
      <point x="383" y="244" type="line"/>
      <point x="409" y="244" type="line"/>
      <point x="409" y="506" type="line" smooth="yes"/>
      <point x="409" y="606"/>
      <point x="347" y="652"/>
      <point x="259" y="652" type="curve" smooth="yes"/>
      <point x="151" y="652"/>
      <point x="97" y="593"/>
      <point x="97" y="494" type="curve" smooth="yes"/>
      <point x="97" y="422"/>
      <point x="118" y="393"/>
      <point x="118" y="333" type="curve" smooth="yes"/>
      <point x="118" y="301"/>
      <point x="111" y="268"/>
      <point x="87" y="268" type="curve" smooth="yes"/>
      <point x="56" y="268"/>
      <point x="36" y="316"/>
      <point x="21" y="355" type="curve"/>
      <point x="0" y="347" type="line"/>
      <point x="17" y="280"/>
      <point x="45" y="242"/>
    </contour>
  </outline>
</glyph>
<glyph name="uni1798" format="2">
  <advance width="537"/>
  <unicode hex="1798"/>
  <note>
uni1798
</note>
  <outline>
    <contour>
      <point x="132" y="484" type="line"/>
      <point x="417" y="484" type="line"/>
      <point x="417" y="510" type="line"/>
      <point x="132" y="510" type="line"/>
    </contour>
    <contour>
      <point x="146" y="565" type="line"/>
      <point x="120" y="565" type="line"/>
      <point x="120" y="402" type="line" smooth="yes"/>
      <point x="120" y="297"/>
      <point x="172" y="244"/>
      <point x="275" y="244" type="curve" smooth="yes"/>
      <point x="379" y="244"/>
      <point x="431" y="297"/>
      <point x="431" y="402" type="curve" smooth="yes"/>
      <point x="431" y="568" type="line"/>
      <point x="405" y="568" type="line"/>
      <point x="405" y="402" type="line" smooth="yes"/>
      <point x="405" y="319"/>
      <point x="364" y="269"/>
      <point x="275" y="269" type="curve" smooth="yes"/>
      <point x="186" y="269"/>
      <point x="146" y="319"/>
      <point x="146" y="402" type="curve" smooth="yes"/>
    </contour>
    <contour>
      <point x="405" y="550" type="line"/>
      <point x="431" y="550" type="line"/>
      <point x="431" y="592" type="line"/>
      <point x="363" y="730" type="line"/>
      <point x="370" y="754" type="line"/>
      <point x="447" y="754" type="line"/>
      <point x="447" y="780" type="line"/>
      <point x="371" y="780" type="line"/>
      <point x="358" y="763"/>
      <point x="350" y="741"/>
      <point x="350" y="724" type="curve" smooth="yes"/>
      <point x="350" y="708"/>
      <point x="360" y="678"/>
      <point x="405" y="586" type="curve"/>
    </contour>
    <contour>
      <point x="120" y="549" type="line"/>
      <point x="146" y="549" type="line"/>
      <point x="146" y="592" type="line"/>
      <point x="73" y="730" type="line"/>
      <point x="80" y="754" type="line"/>
      <point x="157" y="754" type="line"/>
      <point x="157" y="780" type="line"/>
      <point x="81" y="780" type="line"/>
      <point x="68" y="763"/>
      <point x="60" y="741"/>
      <point x="60" y="724" type="curve" smooth="yes"/>
      <point x="60" y="708"/>
      <point x="73" y="678"/>
      <point x="120" y="586" type="curve"/>
    </contour>
  </outline>
</glyph>
<glyph name="uni1799" format="2">
  <advance width="771"/>
  <unicode hex="1799"/>
  <note>
uni1799
</note>
  <outline>
    <contour>
      <point x="665" y="570" type="line"/>
      <point x="639" y="570" type="line"/>
      <point x="639" y="402" type="line" smooth="yes"/>
      <point x="639" y="322"/>
      <point x="600" y="270"/>
      <point x="523" y="270" type="curve" smooth="yes"/>
      <point x="436" y="270"/>
      <point x="403" y="299"/>
      <point x="403" y="378" type="curve" smooth="yes"/>
      <point x="403" y="570" type="line"/>
      <point x="377" y="570" type="line"/>
      <point x="377" y="378" type="line" smooth="yes"/>
      <point x="377" y="290"/>
      <point x="344" y="270"/>
      <point x="245" y="270" type="curve" smooth="yes"/>
      <point x="159" y="270"/>
      <point x="116" y="311"/>
      <point x="116" y="402" type="curve" smooth="yes"/>
      <point x="116" y="726" type="line" smooth="yes"/>
      <point x="116" y="749"/>
      <point x="130" y="754"/>
      <point x="180" y="754" type="curve"/>
      <point x="180" y="780" type="line"/>
      <point x="153" y="780" type="line" smooth="yes"/>
      <point x="110" y="780"/>
      <point x="90" y="763"/>
      <point x="90" y="730" type="curve" smooth="yes"/>
      <point x="90" y="402" type="line" smooth="yes"/>
      <point x="90" y="301"/>
      <point x="142" y="244"/>
      <point x="245" y="244" type="curve" smooth="yes"/>
      <point x="248" y="244" type="line" smooth="yes"/>
      <point x="308" y="244"/>
      <point x="361" y="257"/>
      <point x="390" y="292" type="curve"/>
      <point x="394" y="292" type="line"/>
      <point x="420" y="260"/>
      <point x="466" y="244"/>
      <point x="523" y="244" type="curve" smooth="yes"/>
      <point x="608" y="244"/>
      <point x="665" y="306"/>
      <point x="665" y="402" type="curve" smooth="yes"/>
    </contour>
    <contour>
      <point x="639" y="550" type="line"/>
      <point x="665" y="550" type="line"/>
      <point x="665" y="592" type="line"/>
      <point x="597" y="730" type="line"/>
      <point x="604" y="754" type="line"/>
      <point x="681" y="754" type="line"/>
      <point x="681" y="780" type="line"/>
      <point x="605" y="780" type="line"/>
      <point x="592" y="763"/>
      <point x="584" y="741"/>
      <point x="584" y="724" type="curve" smooth="yes"/>
      <point x="584" y="708"/>
      <point x="594" y="678"/>
      <point x="639" y="586" type="curve"/>
    </contour>
    <contour>
      <point x="377" y="549" type="line"/>
      <point x="403" y="549" type="line"/>
      <point x="403" y="592" type="line"/>
      <point x="330" y="730" type="line"/>
      <point x="337" y="754" type="line"/>
      <point x="414" y="754" type="line"/>
      <point x="414" y="780" type="line"/>
      <point x="338" y="780" type="line"/>
      <point x="325" y="763"/>
      <point x="317" y="741"/>
      <point x="317" y="724" type="curve" smooth="yes"/>
      <point x="317" y="708"/>
      <point x="330" y="678"/>
      <point x="377" y="586" type="curve"/>
    </contour>
  </outline>
</glyph>
<glyph name="uni179A" format="2">
  <advance width="262"/>
  <unicode hex="179A"/>
  <note>
uni179A
</note>
  <outline>
    <contour>
      <point x="140" y="550" type="line"/>
      <point x="166" y="550" type="line"/>
      <point x="166" y="592" type="line"/>
      <point x="98" y="730" type="line"/>
      <point x="105" y="754" type="line"/>
      <point x="182" y="754" type="line"/>
      <point x="182" y="780" type="line"/>
      <point x="106" y="780" type="line"/>
      <point x="93" y="763"/>
      <point x="85" y="741"/>
      <point x="85" y="724" type="curve" smooth="yes"/>
      <point x="85" y="708"/>
      <point x="95" y="678"/>
      <point x="140" y="586" type="curve"/>
    </contour>
    <contour>
      <point x="166" y="566" type="line"/>
      <point x="140" y="566" type="line"/>
      <point x="140" y="422" type="line"/>
      <point x="102" y="422"/>
      <point x="60" y="392"/>
      <point x="60" y="327" type="curve" smooth="yes"/>
      <point x="60" y="274"/>
      <point x="97" y="244"/>
      <point x="135" y="244" type="curve" smooth="yes"/>
      <point x="140" y="244" type="line" smooth="yes"/>
      <point x="155" y="244"/>
      <point x="166" y="253"/>
      <point x="166" y="266" type="curve" smooth="yes"/>
    </contour>
    <contour>
      <point x="140" y="269" type="line"/>
      <point x="108" y="269"/>
      <point x="87" y="289"/>
      <point x="87" y="329" type="curve" smooth="yes"/>
      <point x="87" y="371"/>
      <point x="117" y="393"/>
      <point x="140" y="393" type="curve"/>
    </contour>
  </outline>
</glyph>
<glyph name="uni179B" format="2">
  <advance width="763"/>
  <unicode hex="179B"/>
  <note>
uni179B
</note>
  <outline>
    <contour>
      <point x="657" y="564" type="line"/>
      <point x="631" y="564" type="line"/>
      <point x="631" y="402" type="line" smooth="yes"/>
      <point x="631" y="319"/>
      <point x="593" y="270"/>
      <point x="512" y="270" type="curve" smooth="yes"/>
      <point x="433" y="270"/>
      <point x="394" y="319"/>
      <point x="394" y="402" type="curve" smooth="yes"/>
      <point x="394" y="622" type="line" smooth="yes"/>
      <point x="394" y="727"/>
      <point x="343" y="780"/>
      <point x="245" y="780" type="curve" smooth="yes"/>
      <point x="148" y="780"/>
      <point x="100" y="727"/>
      <point x="100" y="622" type="curve" smooth="yes"/>
      <point x="100" y="435" type="line"/>
      <point x="126" y="435" type="line"/>
      <point x="126" y="622" type="line" smooth="yes"/>
      <point x="126" y="703"/>
      <point x="164" y="754"/>
      <point x="245" y="754" type="curve" smooth="yes"/>
      <point x="328" y="754"/>
      <point x="368" y="703"/>
      <point x="368" y="622" type="curve" smooth="yes"/>
      <point x="368" y="402" type="line" smooth="yes"/>
      <point x="368" y="297"/>
      <point x="417" y="244"/>
      <point x="512" y="244" type="curve" smooth="yes"/>
      <point x="608" y="244"/>
      <point x="657" y="297"/>
      <point x="657" y="402" type="curve" smooth="yes"/>
    </contour>
    <contour>
      <point x="100" y="452" type="line" smooth="yes"/>
      <point x="100" y="271" type="line" smooth="yes"/>
      <point x="100" y="247"/>
      <point x="116" y="244"/>
      <point x="127" y="244" type="curve" smooth="yes"/>
      <point x="129" y="244" type="line" smooth="yes"/>
      <point x="162" y="244"/>
      <point x="202" y="276"/>
      <point x="202" y="333" type="curve" smooth="yes"/>
      <point x="202" y="390"/>
      <point x="156" y="412"/>
      <point x="126" y="412" type="curve"/>
      <point x="126" y="452" type="line"/>
    </contour>
    <contour>
      <point x="126" y="270" type="curve"/>
      <point x="126" y="385" type="line"/>
      <point x="158" y="385"/>
      <point x="176" y="362"/>
      <point x="176" y="333" type="curve" smooth="yes"/>
      <point x="176" y="305"/>
      <point x="162" y="271"/>
    </contour>
    <contour>
      <point x="631" y="550" type="line"/>
      <point x="657" y="550" type="line"/>
      <point x="657" y="592" type="line"/>
      <point x="589" y="730" type="line"/>
      <point x="596" y="754" type="line"/>
      <point x="673" y="754" type="line"/>
      <point x="673" y="780" type="line"/>
      <point x="597" y="780" type="line"/>
      <point x="584" y="763"/>
      <point x="576" y="741"/>
      <point x="576" y="724" type="curve" smooth="yes"/>
      <point x="576" y="708"/>
      <point x="586" y="678"/>
      <point x="631" y="586" type="curve"/>
    </contour>
  </outline>
</glyph>
<glyph name="uni179C" format="2">
  <advance width="253"/>
  <unicode hex="179C"/>
  <note>
uni179C
</note>
  <outline>
    <contour>
      <point x="140" y="559" type="line"/>
      <point x="166" y="559" type="line"/>
      <point x="166" y="592" type="line"/>
      <point x="81" y="709" type="line"/>
      <point x="104" y="754" type="line"/>
      <point x="144" y="754" type="line" smooth="yes"/>
      <point x="187" y="754"/>
      <point x="193" y="769"/>
      <point x="193" y="804" type="curve" smooth="yes"/>
      <point x="193" y="839" type="line"/>
      <point x="167" y="839" type="line"/>
      <point x="167" y="804" type="line" smooth="yes"/>
      <point x="167" y="787"/>
      <point x="163" y="780"/>
      <point x="146" y="780" type="curve" smooth="yes"/>
      <point x="101" y="780" type="line"/>
      <point x="81" y="744"/>
      <point x="63" y="723"/>
      <point x="63" y="706" type="curve" smooth="yes"/>
      <point x="63" y="683"/>
      <point x="100" y="641"/>
      <point x="140" y="582" type="curve"/>
    </contour>
    <contour>
      <point x="166" y="566" type="line"/>
      <point x="140" y="566" type="line"/>
      <point x="140" y="422" type="line"/>
      <point x="102" y="422"/>
      <point x="60" y="392"/>
      <point x="60" y="327" type="curve" smooth="yes"/>
      <point x="60" y="274"/>
      <point x="97" y="244"/>
      <point x="135" y="244" type="curve" smooth="yes"/>
      <point x="140" y="244" type="line" smooth="yes"/>
      <point x="155" y="244"/>
      <point x="166" y="253"/>
      <point x="166" y="266" type="curve" smooth="yes"/>
    </contour>
    <contour>
      <point x="140" y="269" type="line"/>
      <point x="108" y="269"/>
      <point x="87" y="289"/>
      <point x="87" y="329" type="curve" smooth="yes"/>
      <point x="87" y="371"/>
      <point x="117" y="393"/>
      <point x="140" y="393" type="curve"/>
    </contour>
  </outline>
</glyph>
<glyph name="uni17A3" format="2">
  <advance width="556"/>
  <unicode hex="17A3"/>
  <note>
uni17A3
</note>
  <outline>
    <contour>
      <point x="450" y="565" type="line"/>
      <point x="424" y="565" type="line"/>
      <point x="424" y="500" type="line"/>
      <point x="161" y="500" type="line"/>
      <point x="161" y="565" type="line"/>
      <point x="135" y="565" type="line"/>
      <point x="135" y="310" type="line" smooth="yes"/>
      <point x="135" y="278"/>
      <point x="114" y="270"/>
      <point x="60" y="270" type="curve"/>
      <point x="60" y="244" type="line"/>
      <point x="70" y="244" type="line" smooth="yes"/>
      <point x="146" y="244"/>
      <point x="161" y="274"/>
      <point x="161" y="315" type="curve" smooth="yes"/>
      <point x="161" y="473" type="line"/>
      <point x="424" y="473" type="line"/>
      <point x="424" y="310" type="line" smooth="yes"/>
      <point x="424" y="278"/>
      <point x="402" y="270"/>
      <point x="349" y="270" type="curve"/>
      <point x="349" y="244" type="line"/>
      <point x="359" y="244" type="line" smooth="yes"/>
      <point x="435" y="244"/>
      <point x="450" y="274"/>
      <point x="450" y="315" type="curve" smooth="yes"/>
    </contour>
    <contour>
      <point x="424" y="550" type="line"/>
      <point x="450" y="550" type="line"/>
      <point x="450" y="592" type="line"/>
      <point x="382" y="730" type="line"/>
      <point x="389" y="754" type="line"/>
      <point x="466" y="754" type="line"/>
      <point x="466" y="780" type="line"/>
      <point x="390" y="780" type="line"/>
      <point x="377" y="763"/>
      <point x="369" y="741"/>
      <point x="369" y="724" type="curve" smooth="yes"/>
      <point x="369" y="708"/>
      <point x="379" y="678"/>
      <point x="424" y="586" type="curve"/>
    </contour>
    <contour>
      <point x="135" y="549" type="line"/>
      <point x="161" y="549" type="line"/>
      <point x="161" y="592" type="line"/>
      <point x="88" y="730" type="line"/>
      <point x="95" y="754" type="line"/>
      <point x="172" y="754" type="line"/>
      <point x="172" y="780" type="line"/>
      <point x="96" y="780" type="line"/>
      <point x="83" y="763"/>
      <point x="75" y="741"/>
      <point x="75" y="724" type="curve" smooth="yes"/>
      <point x="75" y="708"/>
      <point x="88" y="678"/>
      <point x="135" y="586" type="curve"/>
    </contour>
  </outline>
</glyph>
<glyph name="uni17A4" format="2">
  <advance width="756"/>
  <unicode hex="17A4"/>
  <note>
uni17A4
</note>
  <outline>
    <contour>
      <point x="450" y="565" type="line"/>
      <point x="424" y="565" type="line"/>
      <point x="424" y="500" type="line"/>
      <point x="161" y="500" type="line"/>
      <point x="161" y="565" type="line"/>
      <point x="135" y="565" type="line"/>
      <point x="135" y="310" type="line" smooth="yes"/>
      <point x="135" y="278"/>
      <point x="114" y="270"/>
      <point x="60" y="270" type="curve"/>
      <point x="60" y="244" type="line"/>
      <point x="70" y="244" type="line" smooth="yes"/>
      <point x="146" y="244"/>
      <point x="161" y="274"/>
      <point x="161" y="315" type="curve" smooth="yes"/>
      <point x="161" y="473" type="line"/>
      <point x="424" y="473" type="line"/>
      <point x="424" y="310" type="line" smooth="yes"/>
      <point x="424" y="278"/>
      <point x="402" y="270"/>
      <point x="349" y="270" type="curve"/>
      <point x="349" y="244" type="line"/>
      <point x="359" y="244" type="line" smooth="yes"/>
      <point x="435" y="244"/>
      <point x="450" y="274"/>
      <point x="450" y="315" type="curve" smooth="yes"/>
    </contour>
    <contour>
      <point x="424" y="550" type="line"/>
      <point x="450" y="550" type="line"/>
      <point x="450" y="592" type="line"/>
      <point x="382" y="730" type="line"/>
      <point x="389" y="754" type="line"/>
      <point x="466" y="754" type="line"/>
      <point x="466" y="780" type="line"/>
      <point x="390" y="780" type="line"/>
      <point x="377" y="763"/>
      <point x="369" y="741"/>
      <point x="369" y="724" type="curve" smooth="yes"/>
      <point x="369" y="708"/>
      <point x="379" y="678"/>
      <point x="424" y="586" type="curve"/>
    </contour>
    <contour>
      <point x="135" y="549" type="line"/>
      <point x="161" y="549" type="line"/>
      <point x="161" y="592" type="line"/>
      <point x="88" y="730" type="line"/>
      <point x="95" y="754" type="line"/>
      <point x="172" y="754" type="line"/>
      <point x="172" y="780" type="line"/>
      <point x="96" y="780" type="line"/>
      <point x="83" y="763"/>
      <point x="75" y="741"/>
      <point x="75" y="724" type="curve" smooth="yes"/>
      <point x="75" y="708"/>
      <point x="88" y="678"/>
      <point x="135" y="586" type="curve"/>
    </contour>
    <contour>
      <point x="640" y="244" type="line"/>
      <point x="666" y="244" type="line"/>
      <point x="666" y="688" type="line" smooth="yes"/>
      <point x="666" y="762"/>
      <point x="636" y="780"/>
      <point x="542" y="780" type="curve" smooth="yes"/>
      <point x="431" y="780" type="line"/>
      <point x="431" y="754" type="line"/>
      <point x="562" y="754" type="line" smooth="yes"/>
      <point x="623" y="754"/>
      <point x="640" y="729"/>
      <point x="640" y="677" type="curve" smooth="yes"/>
    </contour>
  </outline>
</glyph>
<glyph name="uni17A5" format="2">
  <advance width="516"/>
  <unicode hex="17A5"/>
  <note>
uni17A5
</note>
  <outline>
    <contour>
      <point x="105" y="625" type="curve"/>
      <point x="124" y="643" type="line"/>
      <point x="93" y="675"/>
      <point x="81" y="692"/>
      <point x="81" y="706" type="curve" smooth="yes"/>
      <point x="81" y="723"/>
      <point x="102" y="751"/>
      <point x="113" y="754" type="curve"/>
      <point x="338" y="754" type="line" smooth="yes"/>
      <point x="406" y="754"/>
      <point x="408" y="769"/>
      <point x="408" y="804" type="curve" smooth="yes"/>
      <point x="408" y="858" type="line"/>
      <point x="386" y="858" type="line"/>
      <point x="386" y="804" type="line" smooth="yes"/>
      <point x="386" y="787"/>
      <point x="382" y="780"/>
      <point x="353" y="780" type="curve" smooth="yes"/>
      <point x="111" y="780" type="line"/>
      <point x="78" y="751"/>
      <point x="55" y="725"/>
      <point x="55" y="700" type="curve" smooth="yes"/>
      <point x="55" y="685"/>
      <point x="60" y="672"/>
    </contour>
    <contour>
      <point x="92" y="432" type="line"/>
      <point x="118" y="432" type="line"/>
      <point x="118" y="506" type="line" smooth="yes"/>
      <point x="118" y="588"/>
      <point x="158" y="638"/>
      <point x="247" y="638" type="curve" smooth="yes"/>
      <point x="336" y="638"/>
      <point x="377" y="588"/>
      <point x="377" y="506" type="curve" smooth="yes"/>
      <point x="377" y="244" type="line"/>
      <point x="403" y="244" type="line"/>
      <point x="403" y="506" type="line" smooth="yes"/>
      <point x="403" y="611"/>
      <point x="351" y="664"/>
      <point x="247" y="664" type="curve" smooth="yes"/>
      <point x="144" y="664"/>
      <point x="92" y="611"/>
      <point x="92" y="506" type="curve" smooth="yes"/>
    </contour>
    <contour>
      <point x="92" y="452" type="line" smooth="yes"/>
      <point x="92" y="271" type="line" smooth="yes"/>
      <point x="92" y="247"/>
      <point x="108" y="244"/>
      <point x="119" y="244" type="curve" smooth="yes"/>
      <point x="121" y="244" type="line" smooth="yes"/>
      <point x="154" y="244"/>
      <point x="194" y="276"/>
      <point x="194" y="333" type="curve" smooth="yes"/>
      <point x="194" y="390"/>
      <point x="148" y="412"/>
      <point x="118" y="412" type="curve"/>
      <point x="118" y="452" type="line"/>
    </contour>
    <contour>
      <point x="118" y="270" type="curve"/>
      <point x="118" y="385" type="line"/>
      <point x="150" y="385"/>
      <point x="168" y="362"/>
      <point x="168" y="333" type="curve" smooth="yes"/>
      <point x="168" y="305"/>
      <point x="154" y="271"/>
    </contour>
  </outline>
</glyph>
<glyph name="uni17A6" format="2">
  <advance width="754"/>
  <unicode hex="17A6"/>
  <note>
uni17A6
</note>
  <outline>
    <contour>
      <point x="664" y="727" type="line"/>
      <point x="638" y="727" type="line"/>
      <point x="638" y="129" type="line" smooth="yes"/>
      <point x="638" y="70"/>
      <point x="576" y="28"/>
      <point x="513" y="28" type="curve" smooth="yes"/>
      <point x="448" y="28"/>
      <point x="397" y="60"/>
      <point x="397" y="125" type="curve" smooth="yes"/>
      <point x="397" y="197"/>
      <point x="320" y="220"/>
      <point x="264" y="220" type="curve" smooth="yes"/>
      <point x="190" y="220"/>
      <point x="122" y="187"/>
      <point x="122" y="106" type="curve" smooth="yes"/>
      <point x="122" y="36" type="line" smooth="yes"/>
      <point x="122" y="12"/>
      <point x="133" y="0"/>
      <point x="170" y="0" type="curve" smooth="yes"/>
      <point x="190" y="0" type="line"/>
      <point x="190" y="26" type="line"/>
      <point x="165" y="26"/>
      <point x="148" y="26"/>
      <point x="148" y="44" type="curve" smooth="yes"/>
      <point x="148" y="106" type="line" smooth="yes"/>
      <point x="148" y="170"/>
      <point x="212" y="194"/>
      <point x="264" y="194" type="curve" smooth="yes"/>
      <point x="336" y="194"/>
      <point x="368" y="161"/>
      <point x="368" y="117" type="curve" smooth="yes"/>
      <point x="368" y="35"/>
      <point x="430" y="0"/>
      <point x="513" y="0" type="curve" smooth="yes"/>
      <point x="592" y="0"/>
      <point x="664" y="52"/>
      <point x="664" y="117" type="curve" smooth="yes"/>
    </contour>
    <contour>
      <point x="111" y="432" type="line"/>
      <point x="137" y="432" type="line"/>
      <point x="137" y="621" type="line" smooth="yes"/>
      <point x="137" y="703"/>
      <point x="177" y="753"/>
      <point x="266" y="753" type="curve" smooth="yes"/>
      <point x="355" y="753"/>
      <point x="396" y="703"/>
      <point x="396" y="621" type="curve" smooth="yes"/>
      <point x="396" y="244" type="line"/>
      <point x="422" y="244" type="line"/>
      <point x="422" y="621" type="line" smooth="yes"/>
      <point x="422" y="726"/>
      <point x="370" y="779"/>
      <point x="266" y="779" type="curve" smooth="yes"/>
      <point x="163" y="779"/>
      <point x="111" y="726"/>
      <point x="111" y="621" type="curve" smooth="yes"/>
    </contour>
    <contour>
      <point x="111" y="452" type="line" smooth="yes"/>
      <point x="111" y="271" type="line" smooth="yes"/>
      <point x="111" y="247"/>
      <point x="127" y="244"/>
      <point x="138" y="244" type="curve" smooth="yes"/>
      <point x="140" y="244" type="line" smooth="yes"/>
      <point x="173" y="244"/>
      <point x="213" y="276"/>
      <point x="213" y="333" type="curve" smooth="yes"/>
      <point x="213" y="390"/>
      <point x="167" y="412"/>
      <point x="137" y="412" type="curve"/>
      <point x="137" y="452" type="line"/>
    </contour>
    <contour>
      <point x="137" y="270" type="curve"/>
      <point x="137" y="385" type="line"/>
      <point x="169" y="385"/>
      <point x="187" y="362"/>
      <point x="187" y="333" type="curve" smooth="yes"/>
      <point x="187" y="305"/>
      <point x="173" y="271"/>
    </contour>
    <contour>
      <point x="638" y="709" type="line"/>
      <point x="664" y="709" type="line"/>
      <point x="664" y="833" type="line" smooth="yes"/>
      <point x="664" y="927"/>
      <point x="608" y="980"/>
      <point x="535" y="980" type="curve" smooth="yes"/>
      <point x="483" y="980"/>
      <point x="455" y="958"/>
      <point x="429" y="928" type="curve"/>
      <point x="429" y="1056" type="line"/>
      <point x="403" y="1056" type="line"/>
      <point x="403" y="886" type="line"/>
      <point x="429" y="886" type="line"/>
      <point x="453" y="924"/>
      <point x="481" y="954"/>
      <point x="534" y="954" type="curve" smooth="yes"/>
      <point x="607" y="954"/>
      <point x="638" y="901"/>
      <point x="638" y="817" type="curve" smooth="yes"/>
    </contour>
  </outline>
</glyph>
<glyph name="uni17A8" format="2">
  <advance width="493"/>
  <unicode hex="17A8"/>
  <note>
uni17A8
</note>
  <outline>
    <contour>
      <point x="118" y="904" type="line"/>
      <point x="387" y="904" type="line"/>
      <point x="387" y="930" type="line"/>
      <point x="118" y="930" type="line"/>
    </contour>
    <contour>
      <point x="377" y="240" type="line"/>
      <point x="403" y="240" type="line"/>
      <point x="403" y="438" type="line"/>
      <point x="377" y="438" type="line"/>
      <point x="377" y="418" type="line" smooth="yes"/>
      <point x="377" y="392"/>
      <point x="292" y="270"/>
      <point x="208" y="270" type="curve" smooth="yes"/>
      <point x="153" y="270"/>
      <point x="116" y="304"/>
      <point x="116" y="395" type="curve" smooth="yes"/>
      <point x="116" y="463" type="line"/>
      <point x="185" y="471" type="line" smooth="yes"/>
      <point x="327" y="487"/>
      <point x="403" y="546"/>
      <point x="403" y="656" type="curve" smooth="yes"/>
      <point x="403" y="740"/>
      <point x="340" y="790"/>
      <point x="245" y="790" type="curve" smooth="yes"/>
      <point x="164" y="790"/>
      <point x="90" y="746"/>
      <point x="90" y="654" type="curve" smooth="yes"/>
      <point x="90" y="605"/>
      <point x="124" y="555"/>
      <point x="159" y="555" type="curve" smooth="yes"/>
      <point x="164" y="555" type="line"/>
      <point x="164" y="581" type="line"/>
      <point x="132" y="581"/>
      <point x="115" y="622"/>
      <point x="115" y="651" type="curve" smooth="yes"/>
      <point x="115" y="748"/>
      <point x="200" y="764"/>
      <point x="245" y="764" type="curve" smooth="yes"/>
      <point x="334" y="764"/>
      <point x="377" y="721"/>
      <point x="377" y="650" type="curve" smooth="yes"/>
      <point x="377" y="557"/>
      <point x="308" y="509"/>
      <point x="180" y="498" type="curve" smooth="yes"/>
      <point x="90" y="490" type="line"/>
      <point x="90" y="395" type="line" smooth="yes"/>
      <point x="90" y="296"/>
      <point x="127" y="244"/>
      <point x="204" y="244" type="curve" smooth="yes"/>
      <point x="286" y="244"/>
      <point x="343" y="313"/>
      <point x="376" y="366" type="curve"/>
      <point x="377" y="366" type="line"/>
    </contour>
  </outline>
</glyph>
<glyph name="uni17AA" format="2">
  <advance width="508"/>
  <unicode hex="17AA"/>
  <note>
uni17AA
</note>
  <outline>
    <contour>
      <point x="105" y="748" type="curve"/>
      <point x="124" y="766" type="line"/>
      <point x="93" y="798"/>
      <point x="81" y="815"/>
      <point x="81" y="829" type="curve" smooth="yes"/>
      <point x="81" y="846"/>
      <point x="102" y="874"/>
      <point x="113" y="877" type="curve"/>
      <point x="338" y="877" type="line" smooth="yes"/>
      <point x="406" y="877"/>
      <point x="408" y="892"/>
      <point x="408" y="927" type="curve" smooth="yes"/>
      <point x="408" y="981" type="line"/>
      <point x="386" y="981" type="line"/>
      <point x="386" y="927" type="line" smooth="yes"/>
      <point x="386" y="910"/>
      <point x="382" y="903"/>
      <point x="353" y="903" type="curve" smooth="yes"/>
      <point x="111" y="903" type="line"/>
      <point x="78" y="874"/>
      <point x="55" y="848"/>
      <point x="55" y="823" type="curve" smooth="yes"/>
      <point x="55" y="808"/>
      <point x="60" y="795"/>
    </contour>
    <contour>
      <point x="394" y="240" type="line"/>
      <point x="420" y="240" type="line"/>
      <point x="420" y="438" type="line"/>
      <point x="394" y="438" type="line"/>
      <point x="394" y="418" type="line" smooth="yes"/>
      <point x="394" y="392"/>
      <point x="309" y="270"/>
      <point x="225" y="270" type="curve" smooth="yes"/>
      <point x="170" y="270"/>
      <point x="133" y="304"/>
      <point x="133" y="395" type="curve" smooth="yes"/>
      <point x="133" y="463" type="line"/>
      <point x="202" y="471" type="line" smooth="yes"/>
      <point x="344" y="487"/>
      <point x="420" y="546"/>
      <point x="420" y="656" type="curve" smooth="yes"/>
      <point x="420" y="740"/>
      <point x="357" y="790"/>
      <point x="262" y="790" type="curve" smooth="yes"/>
      <point x="181" y="790"/>
      <point x="107" y="746"/>
      <point x="107" y="654" type="curve" smooth="yes"/>
      <point x="107" y="605"/>
      <point x="141" y="555"/>
      <point x="176" y="555" type="curve" smooth="yes"/>
      <point x="181" y="555" type="line"/>
      <point x="181" y="581" type="line"/>
      <point x="149" y="581"/>
      <point x="132" y="622"/>
      <point x="132" y="651" type="curve" smooth="yes"/>
      <point x="132" y="748"/>
      <point x="217" y="764"/>
      <point x="262" y="764" type="curve" smooth="yes"/>
      <point x="351" y="764"/>
      <point x="394" y="721"/>
      <point x="394" y="650" type="curve" smooth="yes"/>
      <point x="394" y="557"/>
      <point x="325" y="509"/>
      <point x="197" y="498" type="curve" smooth="yes"/>
      <point x="107" y="490" type="line"/>
      <point x="107" y="395" type="line" smooth="yes"/>
      <point x="107" y="296"/>
      <point x="144" y="244"/>
      <point x="221" y="244" type="curve" smooth="yes"/>
      <point x="303" y="244"/>
      <point x="360" y="313"/>
      <point x="393" y="366" type="curve"/>
      <point x="394" y="366" type="line"/>
    </contour>
  </outline>
</glyph>
<glyph name="uni17AC" format="2">
  <advance width="537"/>
  <unicode hex="17AC"/>
  <note>
uni17AC
</note>
  <outline>
    <contour>
      <point x="146" y="565" type="line"/>
      <point x="120" y="565" type="line"/>
      <point x="120" y="402" type="line" smooth="yes"/>
      <point x="120" y="297"/>
      <point x="172" y="244"/>
      <point x="275" y="244" type="curve" smooth="yes"/>
      <point x="379" y="244"/>
      <point x="431" y="297"/>
      <point x="431" y="402" type="curve" smooth="yes"/>
      <point x="431" y="568" type="line"/>
      <point x="405" y="568" type="line"/>
      <point x="405" y="402" type="line" smooth="yes"/>
      <point x="405" y="319"/>
      <point x="364" y="269"/>
      <point x="275" y="269" type="curve" smooth="yes"/>
      <point x="186" y="269"/>
      <point x="146" y="319"/>
      <point x="146" y="402" type="curve" smooth="yes"/>
    </contour>
    <contour>
      <point x="405" y="550" type="line"/>
      <point x="431" y="550" type="line"/>
      <point x="431" y="592" type="line"/>
      <point x="363" y="730" type="line"/>
      <point x="370" y="754" type="line"/>
      <point x="447" y="754" type="line"/>
      <point x="447" y="780" type="line"/>
      <point x="371" y="780" type="line"/>
      <point x="358" y="763"/>
      <point x="350" y="741"/>
      <point x="350" y="724" type="curve" smooth="yes"/>
      <point x="350" y="708"/>
      <point x="360" y="678"/>
      <point x="405" y="586" type="curve"/>
    </contour>
    <contour>
      <point x="120" y="549" type="line"/>
      <point x="146" y="549" type="line"/>
      <point x="146" y="592" type="line"/>
      <point x="73" y="730" type="line"/>
      <point x="80" y="754" type="line"/>
      <point x="157" y="754" type="line"/>
      <point x="157" y="780" type="line"/>
      <point x="81" y="780" type="line"/>
      <point x="68" y="763"/>
      <point x="60" y="741"/>
      <point x="60" y="724" type="curve" smooth="yes"/>
      <point x="60" y="708"/>
      <point x="73" y="678"/>
      <point x="120" y="586" type="curve"/>
    </contour>
    <contour>
      <point x="384" y="81" type="line"/>
      <point x="404" y="55"/>
      <point x="432" y="20"/>
      <point x="475" y="20" type="curve" smooth="yes"/>
      <point x="487" y="20" type="line"/>
      <point x="487" y="46" type="line"/>
      <point x="475" y="46" type="line" smooth="yes"/>
      <point x="440" y="46"/>
      <point x="420" y="72"/>
      <point x="402" y="101" type="curve"/>
    </contour>
    <contour>
      <point x="163" y="20" type="line"/>
      <point x="206" y="20" type="line" smooth="yes"/>
      <point x="370" y="20"/>
      <point x="432" y="102"/>
      <point x="432" y="186" type="curve" smooth="yes"/>
      <point x="432" y="220" type="line"/>
      <point x="368" y="220" type="line"/>
      <point x="368" y="194" type="line"/>
      <point x="406" y="194" type="line"/>
      <point x="406" y="97"/>
      <point x="336" y="45"/>
      <point x="204" y="45" type="curve" smooth="yes"/>
      <point x="163" y="45" type="line"/>
    </contour>
  </outline>
</glyph>
<glyph name="uni17AD" format="2">
  <advance width="491"/>
  <unicode hex="17AD"/>
  <note>
uni17AD
</note>
  <outline>
    <contour>
      <point x="90" y="428" type="line"/>
      <point x="116" y="428" type="line"/>
      <point x="116" y="655" type="line" smooth="yes"/>
      <point x="116" y="732"/>
      <point x="135" y="754"/>
      <point x="163" y="754" type="curve" smooth="yes"/>
      <point x="201" y="754"/>
      <point x="216" y="691"/>
      <point x="245" y="691" type="curve" smooth="yes"/>
      <point x="274" y="691"/>
      <point x="286" y="754"/>
      <point x="331" y="754" type="curve" smooth="yes"/>
      <point x="360" y="754"/>
      <point x="375" y="728"/>
      <point x="375" y="655" type="curve" smooth="yes"/>
      <point x="375" y="244" type="line"/>
      <point x="401" y="244" type="line"/>
      <point x="401" y="660" type="line" smooth="yes"/>
      <point x="401" y="740"/>
      <point x="380" y="780"/>
      <point x="333" y="780" type="curve" smooth="yes"/>
      <point x="301" y="780"/>
      <point x="278" y="758"/>
      <point x="248" y="719" type="curve"/>
      <point x="245" y="719" type="line"/>
      <point x="215" y="760"/>
      <point x="193" y="780"/>
      <point x="162" y="780" type="curve" smooth="yes"/>
      <point x="120" y="780"/>
      <point x="90" y="744"/>
      <point x="90" y="660" type="curve" smooth="yes"/>
    </contour>
    <contour>
      <point x="90" y="452" type="line" smooth="yes"/>
      <point x="90" y="271" type="line" smooth="yes"/>
      <point x="90" y="247"/>
      <point x="106" y="244"/>
      <point x="117" y="244" type="curve" smooth="yes"/>
      <point x="119" y="244" type="line" smooth="yes"/>
      <point x="152" y="244"/>
      <point x="192" y="276"/>
      <point x="192" y="333" type="curve" smooth="yes"/>
      <point x="192" y="390"/>
      <point x="146" y="412"/>
      <point x="116" y="412" type="curve"/>
      <point x="116" y="452" type="line"/>
    </contour>
    <contour>
      <point x="116" y="270" type="curve"/>
      <point x="116" y="385" type="line"/>
      <point x="148" y="385"/>
      <point x="166" y="362"/>
      <point x="166" y="333" type="curve" smooth="yes"/>
      <point x="166" y="305"/>
      <point x="152" y="271"/>
    </contour>
    <contour>
      <point x="132" y="20" type="line"/>
      <point x="175" y="20" type="line" smooth="yes"/>
      <point x="339" y="20"/>
      <point x="401" y="102"/>
      <point x="401" y="186" type="curve" smooth="yes"/>
      <point x="401" y="220" type="line"/>
      <point x="337" y="220" type="line"/>
      <point x="337" y="194" type="line"/>
      <point x="375" y="194" type="line"/>
      <point x="375" y="97"/>
      <point x="305" y="45"/>
      <point x="173" y="45" type="curve" smooth="yes"/>
      <point x="132" y="45" type="line"/>
    </contour>
  </outline>
</glyph>
<glyph name="uni17AF" format="2">
  <advance width="507"/>
  <unicode hex="17AF"/>
  <note>
uni17AF
</note>
  <outline>
    <contour>
      <point x="96" y="244" type="line"/>
      <point x="129" y="244" type="line"/>
      <point x="252" y="378" type="line"/>
      <point x="376" y="244" type="line"/>
      <point x="407" y="244" type="line"/>
      <point x="407" y="618" type="line" smooth="yes"/>
      <point x="407" y="731"/>
      <point x="363" y="780"/>
      <point x="276" y="780" type="curve" smooth="yes"/>
      <point x="183" y="780" type="line" smooth="yes"/>
      <point x="139" y="780"/>
      <point x="122" y="786"/>
      <point x="122" y="879" type="curve" smooth="yes"/>
      <point x="122" y="936" type="line"/>
      <point x="96" y="936" type="line"/>
      <point x="96" y="851" type="line" smooth="yes"/>
      <point x="96" y="777"/>
      <point x="125" y="754"/>
      <point x="188" y="754" type="curve" smooth="yes"/>
      <point x="280" y="754" type="line" smooth="yes"/>
      <point x="349" y="754"/>
      <point x="381" y="707"/>
      <point x="381" y="632" type="curve" smooth="yes"/>
      <point x="381" y="275" type="line"/>
      <point x="252" y="413" type="line"/>
      <point x="122" y="273" type="line"/>
      <point x="122" y="647" type="line" smooth="yes"/>
      <point x="122" y="668"/>
      <point x="111" y="675"/>
      <point x="88" y="675" type="curve" smooth="yes"/>
      <point x="50" y="675" type="line"/>
      <point x="50" y="649" type="line"/>
      <point x="81" y="649"/>
      <point x="96" y="647"/>
      <point x="96" y="634" type="curve" smooth="yes"/>
    </contour>
  </outline>
</glyph>
<glyph name="uni17B0" format="2">
  <advance width="491"/>
  <unicode hex="17B0"/>
  <note>
uni17B0
</note>
  <outline>
    <contour>
      <point x="90" y="428" type="line"/>
      <point x="116" y="428" type="line"/>
      <point x="116" y="655" type="line" smooth="yes"/>
      <point x="116" y="732"/>
      <point x="135" y="754"/>
      <point x="163" y="754" type="curve" smooth="yes"/>
      <point x="201" y="754"/>
      <point x="216" y="691"/>
      <point x="245" y="691" type="curve" smooth="yes"/>
      <point x="274" y="691"/>
      <point x="286" y="754"/>
      <point x="331" y="754" type="curve" smooth="yes"/>
      <point x="360" y="754"/>
      <point x="375" y="728"/>
      <point x="375" y="655" type="curve" smooth="yes"/>
      <point x="375" y="244" type="line"/>
      <point x="401" y="244" type="line"/>
      <point x="401" y="660" type="line" smooth="yes"/>
      <point x="401" y="740"/>
      <point x="380" y="780"/>
      <point x="333" y="780" type="curve" smooth="yes"/>
      <point x="301" y="780"/>
      <point x="278" y="758"/>
      <point x="248" y="719" type="curve"/>
      <point x="245" y="719" type="line"/>
      <point x="215" y="760"/>
      <point x="193" y="780"/>
      <point x="162" y="780" type="curve" smooth="yes"/>
      <point x="120" y="780"/>
      <point x="90" y="744"/>
      <point x="90" y="660" type="curve" smooth="yes"/>
    </contour>
    <contour>
      <point x="90" y="452" type="line" smooth="yes"/>
      <point x="90" y="271" type="line" smooth="yes"/>
      <point x="90" y="247"/>
      <point x="106" y="244"/>
      <point x="117" y="244" type="curve" smooth="yes"/>
      <point x="119" y="244" type="line" smooth="yes"/>
      <point x="152" y="244"/>
      <point x="192" y="276"/>
      <point x="192" y="333" type="curve" smooth="yes"/>
      <point x="192" y="390"/>
      <point x="146" y="412"/>
      <point x="116" y="412" type="curve"/>
      <point x="116" y="452" type="line"/>
    </contour>
    <contour>
      <point x="116" y="270" type="curve"/>
      <point x="116" y="385" type="line"/>
      <point x="148" y="385"/>
      <point x="166" y="362"/>
      <point x="166" y="333" type="curve" smooth="yes"/>
      <point x="166" y="305"/>
      <point x="152" y="271"/>
    </contour>
    <contour>
      <point x="193" y="50" type="curve" smooth="yes"/>
      <point x="236" y="50"/>
      <point x="270" y="78"/>
      <point x="280" y="111" type="curve"/>
      <point x="291" y="100"/>
      <point x="310" y="89"/>
      <point x="337" y="89" type="curve" smooth="yes"/>
      <point x="371" y="89"/>
      <point x="401" y="111"/>
      <point x="401" y="149" type="curve" smooth="yes"/>
      <point x="401" y="245" type="line"/>
      <point x="375" y="245" type="line"/>
      <point x="358" y="234"/>
      <point x="328" y="219"/>
      <point x="124" y="170" type="curve"/>
      <point x="124" y="120" type="line" smooth="yes"/>
      <point x="124" y="79"/>
      <point x="152" y="50"/>
    </contour>
    <contour>
      <point x="196" y="76" type="curve" smooth="yes"/>
      <point x="176" y="76"/>
      <point x="150" y="81"/>
      <point x="150" y="125" type="curve" smooth="yes"/>
      <point x="150" y="149" type="line"/>
      <point x="254" y="177" type="line"/>
      <point x="254" y="146" type="line" smooth="yes"/>
      <point x="254" y="90"/>
      <point x="215" y="76"/>
    </contour>
    <contour>
      <point x="375" y="150" type="line" smooth="yes"/>
      <point x="375" y="125"/>
      <point x="357" y="115"/>
      <point x="333" y="115" type="curve" smooth="yes"/>
      <point x="310" y="115"/>
      <point x="280" y="130"/>
      <point x="280" y="149" type="curve" smooth="yes"/>
      <point x="280" y="184" type="line"/>
      <point x="375" y="210" type="line"/>
    </contour>
  </outline>
</glyph>
<glyph name="uni17B1" format="2">
  <advance width="497"/>
  <unicode hex="17B1"/>
  <note>
uni17B1
</note>
  <outline>
    <contour>
      <point x="88" y="788" type="curve"/>
      <point x="107" y="806" type="line"/>
      <point x="76" y="838"/>
      <point x="64" y="855"/>
      <point x="64" y="869" type="curve" smooth="yes"/>
      <point x="64" y="886"/>
      <point x="85" y="914"/>
      <point x="96" y="917" type="curve"/>
      <point x="332" y="917" type="line"/>
      <point x="395" y="917"/>
      <point x="414" y="880"/>
      <point x="419" y="821" type="curve"/>
      <point x="452" y="839" type="line"/>
      <point x="436" y="907"/>
      <point x="403" y="943"/>
      <point x="322" y="943" type="curve"/>
      <point x="94" y="943" type="line"/>
      <point x="61" y="914"/>
      <point x="38" y="888"/>
      <point x="38" y="863" type="curve" smooth="yes"/>
      <point x="38" y="848"/>
      <point x="43" y="835"/>
    </contour>
    <contour>
      <point x="382" y="240" type="line"/>
      <point x="408" y="240" type="line"/>
      <point x="408" y="438" type="line"/>
      <point x="382" y="438" type="line"/>
      <point x="382" y="418" type="line" smooth="yes"/>
      <point x="382" y="392"/>
      <point x="297" y="270"/>
      <point x="213" y="270" type="curve" smooth="yes"/>
      <point x="158" y="270"/>
      <point x="121" y="304"/>
      <point x="121" y="395" type="curve" smooth="yes"/>
      <point x="121" y="463" type="line"/>
      <point x="190" y="471" type="line" smooth="yes"/>
      <point x="332" y="487"/>
      <point x="408" y="546"/>
      <point x="408" y="656" type="curve" smooth="yes"/>
      <point x="408" y="740"/>
      <point x="345" y="790"/>
      <point x="250" y="790" type="curve" smooth="yes"/>
      <point x="169" y="790"/>
      <point x="95" y="746"/>
      <point x="95" y="654" type="curve" smooth="yes"/>
      <point x="95" y="605"/>
      <point x="129" y="555"/>
      <point x="164" y="555" type="curve" smooth="yes"/>
      <point x="169" y="555" type="line"/>
      <point x="169" y="581" type="line"/>
      <point x="137" y="581"/>
      <point x="120" y="622"/>
      <point x="120" y="651" type="curve" smooth="yes"/>
      <point x="120" y="748"/>
      <point x="205" y="764"/>
      <point x="250" y="764" type="curve" smooth="yes"/>
      <point x="339" y="764"/>
      <point x="382" y="721"/>
      <point x="382" y="650" type="curve" smooth="yes"/>
      <point x="382" y="557"/>
      <point x="313" y="509"/>
      <point x="185" y="498" type="curve" smooth="yes"/>
      <point x="95" y="490" type="line"/>
      <point x="95" y="395" type="line" smooth="yes"/>
      <point x="95" y="296"/>
      <point x="132" y="244"/>
      <point x="209" y="244" type="curve" smooth="yes"/>
      <point x="291" y="244"/>
      <point x="348" y="313"/>
      <point x="381" y="366" type="curve"/>
      <point x="382" y="366" type="line"/>
    </contour>
  </outline>
</glyph>
<glyph name="uni17B2" format="2">
  <advance width="481"/>
  <unicode hex="17B2"/>
  <note>
uni17B2
</note>
  <outline>
    <contour>
      <point x="255" y="244" type="curve" smooth="yes"/>
      <point x="373" y="244"/>
      <point x="441" y="328"/>
      <point x="441" y="419" type="curve" smooth="yes"/>
      <point x="441" y="476"/>
      <point x="408" y="540"/>
      <point x="377" y="575" type="curve"/>
      <point x="414" y="617"/>
      <point x="433" y="627"/>
      <point x="433" y="642" type="curve" smooth="yes"/>
      <point x="433" y="651"/>
      <point x="433" y="651"/>
      <point x="415" y="680" type="curve"/>
      <point x="255" y="680" type="line"/>
      <point x="255" y="654" type="line"/>
      <point x="412" y="654" type="line"/>
      <point x="260" y="493" type="line"/>
      <point x="278" y="469" type="line"/>
      <point x="362" y="559" type="line"/>
      <point x="373" y="545"/>
      <point x="415" y="486"/>
      <point x="415" y="415" type="curve" smooth="yes"/>
      <point x="415" y="333"/>
      <point x="337" y="270"/>
      <point x="258" y="270" type="curve" smooth="yes"/>
      <point x="179" y="270"/>
      <point x="126" y="307"/>
      <point x="126" y="402" type="curve" smooth="yes"/>
      <point x="126" y="672" type="line" smooth="yes"/>
      <point x="126" y="732"/>
      <point x="164" y="803"/>
      <point x="263" y="803" type="curve" smooth="yes"/>
      <point x="310" y="803"/>
      <point x="373" y="787"/>
      <point x="406" y="762" type="curve"/>
      <point x="421" y="785" type="line"/>
      <point x="383" y="815"/>
      <point x="325" y="830"/>
      <point x="263" y="830" type="curve" smooth="yes"/>
      <point x="164" y="830"/>
      <point x="100" y="762"/>
      <point x="100" y="672" type="curve" smooth="yes"/>
      <point x="100" y="402" type="line" smooth="yes"/>
      <point x="100" y="312"/>
      <point x="135" y="244"/>
    </contour>
  </outline>
</glyph>
<glyph name="uni17B3" format="2">
  <advance width="470"/>
  <unicode hex="17B3"/>
  <note>
uni17B3
</note>
  <outline>
    <contour>
      <point x="295" y="1056" type="curve"/>
      <point x="268" y="1056" type="line"/>
      <point x="260" y="1035"/>
      <point x="256" y="1015"/>
      <point x="256" y="995" type="curve" smooth="yes"/>
      <point x="256" y="956"/>
      <point x="272" y="926"/>
      <point x="293" y="903" type="curve"/>
      <point x="94" y="903" type="line"/>
      <point x="61" y="874"/>
      <point x="38" y="848"/>
      <point x="38" y="823" type="curve" smooth="yes"/>
      <point x="38" y="808"/>
      <point x="43" y="795"/>
      <point x="88" y="748" type="curve"/>
      <point x="107" y="766" type="line"/>
      <point x="76" y="798"/>
      <point x="64" y="815"/>
      <point x="64" y="829" type="curve" smooth="yes"/>
      <point x="64" y="846"/>
      <point x="85" y="874"/>
      <point x="96" y="877" type="curve"/>
      <point x="316" y="877" type="line"/>
      <point x="409" y="771" type="line"/>
      <point x="430" y="788" type="line"/>
      <point x="411" y="839"/>
      <point x="392" y="887"/>
      <point x="330" y="903" type="curve"/>
      <point x="302" y="932"/>
      <point x="282" y="953"/>
      <point x="282" y="995" type="curve" smooth="yes"/>
      <point x="282" y="1010"/>
      <point x="284" y="1032"/>
    </contour>
    <contour>
      <point x="377" y="240" type="line"/>
      <point x="403" y="240" type="line"/>
      <point x="403" y="438" type="line"/>
      <point x="377" y="438" type="line"/>
      <point x="377" y="418" type="line" smooth="yes"/>
      <point x="377" y="392"/>
      <point x="292" y="270"/>
      <point x="208" y="270" type="curve" smooth="yes"/>
      <point x="153" y="270"/>
      <point x="116" y="304"/>
      <point x="116" y="395" type="curve" smooth="yes"/>
      <point x="116" y="463" type="line"/>
      <point x="185" y="471" type="line" smooth="yes"/>
      <point x="327" y="487"/>
      <point x="403" y="546"/>
      <point x="403" y="656" type="curve" smooth="yes"/>
      <point x="403" y="740"/>
      <point x="340" y="790"/>
      <point x="245" y="790" type="curve" smooth="yes"/>
      <point x="164" y="790"/>
      <point x="90" y="746"/>
      <point x="90" y="654" type="curve" smooth="yes"/>
      <point x="90" y="605"/>
      <point x="124" y="555"/>
      <point x="159" y="555" type="curve" smooth="yes"/>
      <point x="164" y="555" type="line"/>
      <point x="164" y="581" type="line"/>
      <point x="132" y="581"/>
      <point x="115" y="622"/>
      <point x="115" y="651" type="curve" smooth="yes"/>
      <point x="115" y="748"/>
      <point x="200" y="764"/>
      <point x="245" y="764" type="curve" smooth="yes"/>
      <point x="334" y="764"/>
      <point x="377" y="721"/>
      <point x="377" y="650" type="curve" smooth="yes"/>
      <point x="377" y="557"/>
      <point x="308" y="509"/>
      <point x="180" y="498" type="curve" smooth="yes"/>
      <point x="90" y="490" type="line"/>
      <point x="90" y="395" type="line" smooth="yes"/>
      <point x="90" y="296"/>
      <point x="127" y="244"/>
      <point x="204" y="244" type="curve" smooth="yes"/>
      <point x="286" y="244"/>
      <point x="343" y="313"/>
      <point x="376" y="366" type="curve"/>
      <point x="377" y="366" type="line"/>
    </contour>
  </outline>
</glyph>
<glyph name="uni17B4" format="2">
  <advance width="177"/>
  <unicode hex="17B4"/>
  <note>
uni17B4
</note>
  <outline>
    <contour>
      <point x="75" y="799" type="line"/>
      <point x="75" y="989" type="line" smooth="yes"/>
      <point x="75" y="1039"/>
      <point x="53" y="1048"/>
      <point x="22" y="1048" type="curve" smooth="yes"/>
      <point x="-38" y="1048" type="line"/>
      <point x="-38" y="1022" type="line"/>
      <point x="17" y="1022" type="line" smooth="yes"/>
      <point x="45" y="1022"/>
      <point x="49" y="1006"/>
      <point x="49" y="977" type="curve" smooth="yes"/>
      <point x="49" y="799" type="line"/>
    </contour>
    <contour>
      <point x="61" y="244" type="line"/>
      <point x="87" y="244" type="line"/>
      <point x="87" y="688" type="line" smooth="yes"/>
      <point x="87" y="762"/>
      <point x="57" y="780"/>
      <point x="-37" y="780" type="curve" smooth="yes"/>
      <point x="-148" y="780" type="line"/>
      <point x="-148" y="754" type="line"/>
      <point x="-17" y="754" type="line" smooth="yes"/>
      <point x="44" y="754"/>
      <point x="61" y="729"/>
      <point x="61" y="677" type="curve" smooth="yes"/>
    </contour>
  </outline>
</glyph>
<glyph name="uni17B5" format="2">
  <advance width="177"/>
  <unicode hex="17B5"/>
  <note>
uni17B5
</note>
  <outline>
    <contour>
      <point x="61" y="244" type="line"/>
      <point x="87" y="244" type="line"/>
      <point x="87" y="688" type="line" smooth="yes"/>
      <point x="87" y="762"/>
      <point x="57" y="780"/>
      <point x="-37" y="780" type="curve" smooth="yes"/>
      <point x="-148" y="780" type="line"/>
      <point x="-148" y="754" type="line"/>
      <point x="-17" y="754" type="line" smooth="yes"/>
      <point x="44" y="754"/>
      <point x="61" y="729"/>
      <point x="61" y="677" type="curve" smooth="yes"/>
    </contour>
  </outline>
</glyph>
<glyph name="uni17B6" format="2">
  <advance width="177"/>
  <unicode hex="17B6"/>
  <note>
uni17B6
</note>
  <outline>
    <contour>
      <point x="61" y="244" type="line"/>
      <point x="87" y="244" type="line"/>
      <point x="87" y="688" type="line" smooth="yes"/>
      <point x="87" y="762"/>
      <point x="57" y="780"/>
      <point x="-37" y="780" type="curve" smooth="yes"/>
      <point x="-148" y="780" type="line"/>
      <point x="-148" y="754" type="line"/>
      <point x="-17" y="754" type="line" smooth="yes"/>
      <point x="44" y="754"/>
      <point x="61" y="729"/>
      <point x="61" y="677" type="curve" smooth="yes"/>
    </contour>
  </outline>
</glyph>
<glyph name="uni17B7" format="2">
  <unicode hex="17B7"/>
  <note>
uni17B7
</note>
  <outline>
    <contour>
      <point x="-427" y="684" type="curve" smooth="yes"/>
      <point x="-148" y="684" type="line"/>
      <point x="-148" y="718" type="line"/>
      <point x="-163" y="756"/>
      <point x="-247" y="861"/>
      <point x="-337" y="861" type="curve" smooth="yes"/>
      <point x="-422" y="861"/>
      <point x="-466" y="786"/>
      <point x="-466" y="716" type="curve" smooth="yes"/>
      <point x="-466" y="691"/>
      <point x="-464" y="684"/>
    </contour>
    <contour>
      <point x="-439" y="710" type="line"/>
      <point x="-437" y="797"/>
      <point x="-388" y="835"/>
      <point x="-338" y="835" type="curve" smooth="yes"/>
      <point x="-263" y="835"/>
      <point x="-198" y="759"/>
      <point x="-174" y="710" type="curve"/>
    </contour>
  </outline>
</glyph>
<glyph name="uni17B9" format="2">
  <unicode hex="17B9"/>
  <note>
uni17B9
</note>
  <outline>
    <contour>
      <point x="-288" y="844" type="curve"/>
      <point x="-172" y="749" type="line"/>
      <point x="-159" y="766"/>
      <point x="-138" y="806"/>
      <point x="-138" y="844" type="curve" smooth="yes"/>
      <point x="-138" y="878"/>
      <point x="-157" y="909"/>
      <point x="-204" y="909" type="curve" smooth="yes"/>
      <point x="-239" y="909"/>
      <point x="-273" y="882"/>
    </contour>
    <contour>
      <point x="-265" y="835" type="line"/>
      <point x="-253" y="862"/>
      <point x="-227" y="883"/>
      <point x="-204" y="883" type="curve" smooth="yes"/>
      <point x="-177" y="883"/>
      <point x="-163" y="867"/>
      <point x="-163" y="841" type="curve" smooth="yes"/>
      <point x="-163" y="817"/>
      <point x="-178" y="782"/>
      <point x="-186" y="773" type="curve"/>
    </contour>
    <contour>
      <point x="-427" y="684" type="curve" smooth="yes"/>
      <point x="-148" y="684" type="line"/>
      <point x="-148" y="718" type="line"/>
      <point x="-163" y="756"/>
      <point x="-247" y="861"/>
      <point x="-337" y="861" type="curve" smooth="yes"/>
      <point x="-422" y="861"/>
      <point x="-466" y="786"/>
      <point x="-466" y="716" type="curve" smooth="yes"/>
      <point x="-466" y="691"/>
      <point x="-464" y="684"/>
    </contour>
    <contour>
      <point x="-439" y="710" type="line"/>
      <point x="-437" y="797"/>
      <point x="-388" y="835"/>
      <point x="-338" y="835" type="curve" smooth="yes"/>
      <point x="-263" y="835"/>
      <point x="-198" y="759"/>
      <point x="-174" y="710" type="curve"/>
    </contour>
  </outline>
</glyph>
<glyph name="uni17BC" format="2">
  <unicode hex="17BC"/>
  <note>
uni17BC
</note>
  <outline>
    <contour>
      <point x="-309" y="-244" type="curve" smooth="yes"/>
      <point x="-241" y="-244"/>
      <point x="-202" y="-208"/>
      <point x="-202" y="-142" type="curve" smooth="yes"/>
      <point x="-202" y="-50" type="line"/>
      <point x="-228" y="-50" type="line"/>
      <point x="-228" y="-140" type="line" smooth="yes"/>
      <point x="-228" y="-204"/>
      <point x="-266" y="-219"/>
      <point x="-309" y="-219" type="curve" smooth="yes"/>
      <point x="-346" y="-219"/>
      <point x="-391" y="-204"/>
      <point x="-391" y="-140" type="curve" smooth="yes"/>
      <point x="-391" y="-50" type="line"/>
      <point x="-417" y="-50" type="line"/>
      <point x="-417" y="-142" type="line" smooth="yes"/>
      <point x="-417" y="-208"/>
      <point x="-377" y="-244"/>
    </contour>
  </outline>
</glyph>
<glyph name="uni17BD" format="2">
  <unicode hex="17BD"/>
  <note>
uni17BD
</note>
  <outline>
    <contour>
      <point x="-434" y="-244" type="line"/>
      <point x="-399" y="-244" type="line"/>
      <point x="-310" y="-168" type="line"/>
      <point x="-216" y="-244" type="line"/>
      <point x="-186" y="-244" type="line"/>
      <point x="-186" y="-50" type="line"/>
      <point x="-212" y="-50" type="line"/>
      <point x="-212" y="-216" type="line"/>
      <point x="-310" y="-136" type="line"/>
      <point x="-408" y="-220" type="line"/>
      <point x="-408" y="-50" type="line"/>
      <point x="-434" y="-50" type="line"/>
    </contour>
  </outline>
</glyph>
<glyph name="uni17BE" format="2">
  <unicode hex="17BE"/>
  <note>
uni17BE
</note>
  <outline>
    <contour>
      <point x="643" y="843" type="line"/>
      <point x="643" y="1056" type="line"/>
      <point x="617" y="1056" type="line"/>
      <point x="617" y="843" type="line"/>
    </contour>
    <contour>
      <point x="364" y="843" type="curve" smooth="yes"/>
      <point x="643" y="843" type="line"/>
      <point x="643" y="877" type="line"/>
      <point x="628" y="915"/>
      <point x="544" y="1020"/>
      <point x="454" y="1020" type="curve" smooth="yes"/>
      <point x="369" y="1020"/>
      <point x="325" y="945"/>
      <point x="325" y="875" type="curve" smooth="yes"/>
      <point x="325" y="850"/>
      <point x="327" y="843"/>
    </contour>
    <contour>
      <point x="352" y="869" type="line"/>
      <point x="354" y="956"/>
      <point x="403" y="994"/>
      <point x="453" y="994" type="curve" smooth="yes"/>
      <point x="528" y="994"/>
      <point x="593" y="918"/>
      <point x="617" y="869" type="curve"/>
    </contour>
    <contour>
      <point x="136" y="565" type="line"/>
      <point x="110" y="565" type="line"/>
      <point x="110" y="309" type="line" smooth="yes"/>
      <point x="110" y="261"/>
      <point x="134" y="244"/>
      <point x="183" y="244" type="curve" smooth="yes"/>
      <point x="227" y="244" type="line"/>
      <point x="227" y="270" type="line"/>
      <point x="175" y="270" type="line" smooth="yes"/>
      <point x="143" y="270"/>
      <point x="136" y="286"/>
      <point x="136" y="309" type="curve" smooth="yes"/>
    </contour>
    <contour>
      <point x="110" y="549" type="line"/>
      <point x="136" y="549" type="line"/>
      <point x="136" y="592" type="line"/>
      <point x="63" y="730" type="line"/>
      <point x="70" y="754" type="line"/>
      <point x="147" y="754" type="line"/>
      <point x="147" y="780" type="line"/>
      <point x="71" y="780" type="line"/>
      <point x="58" y="763"/>
      <point x="50" y="741"/>
      <point x="50" y="724" type="curve" smooth="yes"/>
      <point x="50" y="708"/>
      <point x="63" y="678"/>
      <point x="110" y="586" type="curve"/>
    </contour>
    <contour>
      <point x="326.495" y="520" type="curve" smooth="yes"/>
      <point x="333.159" y="520"/>
      <point x="338.99" y="527"/>
      <point x="338.99" y="535" type="curve" smooth="yes"/>
      <point x="338.99" y="543"/>
      <point x="333.159" y="550"/>
      <point x="326.495" y="550" type="curve" smooth="yes"/>
      <point x="319.831" y="550"/>
      <point x="314" y="543"/>
      <point x="314" y="535" type="curve" smooth="yes"/>
      <point x="314" y="527"/>
      <point x="319.831" y="520"/>
    </contour>
    <contour>
      <point x="348.495" y="621" type="curve" smooth="yes"/>
      <point x="355.159" y="621"/>
      <point x="360.99" y="628"/>
      <point x="360.99" y="636" type="curve" smooth="yes"/>
      <point x="360.99" y="644"/>
      <point x="355.159" y="651"/>
      <point x="348.495" y="651" type="curve" smooth="yes"/>
      <point x="341.831" y="651"/>
      <point x="336" y="644"/>
      <point x="336" y="636" type="curve" smooth="yes"/>
      <point x="336" y="628"/>
      <point x="341.831" y="621"/>
    </contour>
    <contour>
      <point x="407.495" y="691" type="curve" smooth="yes"/>
      <point x="414.159" y="691"/>
      <point x="419.99" y="698"/>
      <point x="419.99" y="706" type="curve" smooth="yes"/>
      <point x="419.99" y="714"/>
      <point x="414.159" y="721"/>
      <point x="407.495" y="721" type="curve" smooth="yes"/>
      <point x="400.831" y="721"/>
      <point x="395" y="714"/>
      <point x="395" y="706" type="curve" smooth="yes"/>
      <point x="395" y="698"/>
      <point x="400.831" y="691"/>
    </contour>
    <contour>
      <point x="488.495" y="715" type="curve" smooth="yes"/>
      <point x="495.159" y="715"/>
      <point x="500.99" y="722"/>
      <point x="500.99" y="730" type="curve" smooth="yes"/>
      <point x="500.99" y="738"/>
      <point x="495.159" y="745"/>
      <point x="488.495" y="745" type="curve" smooth="yes"/>
      <point x="481.831" y="745"/>
      <point x="476" y="738"/>
      <point x="476" y="730" type="curve" smooth="yes"/>
      <point x="476" y="722"/>
      <point x="481.831" y="715"/>
    </contour>
    <contour>
      <point x="569.495" y="691" type="curve" smooth="yes"/>
      <point x="576.159" y="691"/>
      <point x="581.99" y="698"/>
      <point x="581.99" y="706" type="curve" smooth="yes"/>
      <point x="581.99" y="714"/>
      <point x="576.159" y="721"/>
      <point x="569.495" y="721" type="curve" smooth="yes"/>
      <point x="562.831" y="721"/>
      <point x="557" y="714"/>
      <point x="557" y="706" type="curve" smooth="yes"/>
      <point x="557" y="698"/>
      <point x="562.831" y="691"/>
    </contour>
    <contour>
      <point x="627.495" y="619" type="curve" smooth="yes"/>
      <point x="634.159" y="619"/>
      <point x="639.99" y="626"/>
      <point x="639.99" y="634" type="curve" smooth="yes"/>
      <point x="639.99" y="642"/>
      <point x="634.159" y="649"/>
      <point x="627.495" y="649" type="curve" smooth="yes"/>
      <point x="620.831" y="649"/>
      <point x="615" y="642"/>
      <point x="615" y="634" type="curve" smooth="yes"/>
      <point x="615" y="626"/>
      <point x="620.831" y="619"/>
    </contour>
    <contour>
      <point x="652.495" y="520" type="curve" smooth="yes"/>
      <point x="659.159" y="520"/>
      <point x="664.99" y="527"/>
      <point x="664.99" y="535" type="curve" smooth="yes"/>
      <point x="664.99" y="543"/>
      <point x="659.159" y="550"/>
      <point x="652.495" y="550" type="curve" smooth="yes"/>
      <point x="645.831" y="550"/>
      <point x="640" y="543"/>
      <point x="640" y="535" type="curve" smooth="yes"/>
      <point x="640" y="527"/>
      <point x="645.831" y="520"/>
    </contour>
    <contour>
      <point x="629.495" y="426" type="curve" smooth="yes"/>
      <point x="636.159" y="426"/>
      <point x="641.99" y="433"/>
      <point x="641.99" y="441" type="curve" smooth="yes"/>
      <point x="641.99" y="449"/>
      <point x="636.159" y="456"/>
      <point x="629.495" y="456" type="curve" smooth="yes"/>
      <point x="622.831" y="456"/>
      <point x="617" y="449"/>
      <point x="617" y="441" type="curve" smooth="yes"/>
      <point x="617" y="433"/>
      <point x="622.831" y="426"/>
    </contour>
    <contour>
      <point x="569.495" y="354" type="curve" smooth="yes"/>
      <point x="576.159" y="354"/>
      <point x="581.99" y="361"/>
      <point x="581.99" y="369" type="curve" smooth="yes"/>
      <point x="581.99" y="377"/>
      <point x="576.159" y="384"/>
      <point x="569.495" y="384" type="curve" smooth="yes"/>
      <point x="562.831" y="384"/>
      <point x="557" y="377"/>
      <point x="557" y="369" type="curve" smooth="yes"/>
      <point x="557" y="361"/>
      <point x="562.831" y="354"/>
    </contour>
    <contour>
      <point x="488.495" y="326" type="curve" smooth="yes"/>
      <point x="495.159" y="326"/>
      <point x="500.99" y="333"/>
      <point x="500.99" y="341" type="curve" smooth="yes"/>
      <point x="500.99" y="349"/>
      <point x="495.159" y="356"/>
      <point x="488.495" y="356" type="curve" smooth="yes"/>
      <point x="481.831" y="356"/>
      <point x="476" y="349"/>
      <point x="476" y="341" type="curve" smooth="yes"/>
      <point x="476" y="333"/>
      <point x="481.831" y="326"/>
    </contour>
    <contour>
      <point x="407.495" y="353" type="curve" smooth="yes"/>
      <point x="414.159" y="353"/>
      <point x="419.99" y="360"/>
      <point x="419.99" y="368" type="curve" smooth="yes"/>
      <point x="419.99" y="376"/>
      <point x="414.159" y="383"/>
      <point x="407.495" y="383" type="curve" smooth="yes"/>
      <point x="400.831" y="383"/>
      <point x="395" y="376"/>
      <point x="395" y="368" type="curve" smooth="yes"/>
      <point x="395" y="360"/>
      <point x="400.831" y="353"/>
    </contour>
    <contour>
      <point x="346.495" y="425" type="curve" smooth="yes"/>
      <point x="353.159" y="425"/>
      <point x="358.99" y="432"/>
      <point x="358.99" y="440" type="curve" smooth="yes"/>
      <point x="358.99" y="448"/>
      <point x="353.159" y="455"/>
      <point x="346.495" y="455" type="curve" smooth="yes"/>
      <point x="339.831" y="455"/>
      <point x="334" y="448"/>
      <point x="334" y="440" type="curve" smooth="yes"/>
      <point x="334" y="432"/>
      <point x="339.831" y="425"/>
    </contour>
  </outline>
</glyph>
<glyph name="uni17BF" format="2">
  <advance width="971"/>
  <unicode hex="17BF"/>
  <note>
uni17BF
</note>
  <outline>
    <contour>
      <point x="136" y="565" type="line"/>
      <point x="110" y="565" type="line"/>
      <point x="110" y="309" type="line" smooth="yes"/>
      <point x="110" y="261"/>
      <point x="134" y="244"/>
      <point x="183" y="244" type="curve" smooth="yes"/>
      <point x="227" y="244" type="line"/>
      <point x="227" y="270" type="line"/>
      <point x="175" y="270" type="line" smooth="yes"/>
      <point x="143" y="270"/>
      <point x="136" y="286"/>
      <point x="136" y="309" type="curve" smooth="yes"/>
    </contour>
    <contour>
      <point x="110" y="549" type="line"/>
      <point x="136" y="549" type="line"/>
      <point x="136" y="592" type="line"/>
      <point x="63" y="730" type="line"/>
      <point x="70" y="754" type="line"/>
      <point x="147" y="754" type="line"/>
      <point x="147" y="780" type="line"/>
      <point x="71" y="780" type="line"/>
      <point x="58" y="763"/>
      <point x="50" y="741"/>
      <point x="50" y="724" type="curve" smooth="yes"/>
      <point x="50" y="708"/>
      <point x="63" y="678"/>
      <point x="110" y="586" type="curve"/>
    </contour>
    <contour>
      <point x="339.495" y="520" type="curve" smooth="yes"/>
      <point x="346.159" y="520"/>
      <point x="351.99" y="527"/>
      <point x="351.99" y="535" type="curve" smooth="yes"/>
      <point x="351.99" y="543"/>
      <point x="346.159" y="550"/>
      <point x="339.495" y="550" type="curve" smooth="yes"/>
      <point x="332.831" y="550"/>
      <point x="327" y="543"/>
      <point x="327" y="535" type="curve" smooth="yes"/>
      <point x="327" y="527"/>
      <point x="332.831" y="520"/>
    </contour>
    <contour>
      <point x="361.495" y="621" type="curve" smooth="yes"/>
      <point x="368.159" y="621"/>
      <point x="373.99" y="628"/>
      <point x="373.99" y="636" type="curve" smooth="yes"/>
      <point x="373.99" y="644"/>
      <point x="368.159" y="651"/>
      <point x="361.495" y="651" type="curve" smooth="yes"/>
      <point x="354.831" y="651"/>
      <point x="349" y="644"/>
      <point x="349" y="636" type="curve" smooth="yes"/>
      <point x="349" y="628"/>
      <point x="354.831" y="621"/>
    </contour>
    <contour>
      <point x="420.495" y="691" type="curve" smooth="yes"/>
      <point x="427.159" y="691"/>
      <point x="432.99" y="698"/>
      <point x="432.99" y="706" type="curve" smooth="yes"/>
      <point x="432.99" y="714"/>
      <point x="427.159" y="721"/>
      <point x="420.495" y="721" type="curve" smooth="yes"/>
      <point x="413.831" y="721"/>
      <point x="408" y="714"/>
      <point x="408" y="706" type="curve" smooth="yes"/>
      <point x="408" y="698"/>
      <point x="413.831" y="691"/>
    </contour>
    <contour>
      <point x="501.495" y="715" type="curve" smooth="yes"/>
      <point x="508.159" y="715"/>
      <point x="513.99" y="722"/>
      <point x="513.99" y="730" type="curve" smooth="yes"/>
      <point x="513.99" y="738"/>
      <point x="508.159" y="745"/>
      <point x="501.495" y="745" type="curve" smooth="yes"/>
      <point x="494.831" y="745"/>
      <point x="489" y="738"/>
      <point x="489" y="730" type="curve" smooth="yes"/>
      <point x="489" y="722"/>
      <point x="494.831" y="715"/>
    </contour>
    <contour>
      <point x="582.495" y="691" type="curve" smooth="yes"/>
      <point x="589.159" y="691"/>
      <point x="594.99" y="698"/>
      <point x="594.99" y="706" type="curve" smooth="yes"/>
      <point x="594.99" y="714"/>
      <point x="589.159" y="721"/>
      <point x="582.495" y="721" type="curve" smooth="yes"/>
      <point x="575.831" y="721"/>
      <point x="570" y="714"/>
      <point x="570" y="706" type="curve" smooth="yes"/>
      <point x="570" y="698"/>
      <point x="575.831" y="691"/>
    </contour>
    <contour>
      <point x="640.495" y="619" type="curve" smooth="yes"/>
      <point x="647.159" y="619"/>
      <point x="652.99" y="626"/>
      <point x="652.99" y="634" type="curve" smooth="yes"/>
      <point x="652.99" y="642"/>
      <point x="647.159" y="649"/>
      <point x="640.495" y="649" type="curve" smooth="yes"/>
      <point x="633.831" y="649"/>
      <point x="628" y="642"/>
      <point x="628" y="634" type="curve" smooth="yes"/>
      <point x="628" y="626"/>
      <point x="633.831" y="619"/>
    </contour>
    <contour>
      <point x="665.495" y="520" type="curve" smooth="yes"/>
      <point x="672.159" y="520"/>
      <point x="677.99" y="527"/>
      <point x="677.99" y="535" type="curve" smooth="yes"/>
      <point x="677.99" y="543"/>
      <point x="672.159" y="550"/>
      <point x="665.495" y="550" type="curve" smooth="yes"/>
      <point x="658.831" y="550"/>
      <point x="653" y="543"/>
      <point x="653" y="535" type="curve" smooth="yes"/>
      <point x="653" y="527"/>
      <point x="658.831" y="520"/>
    </contour>
    <contour>
      <point x="642.495" y="426" type="curve" smooth="yes"/>
      <point x="649.159" y="426"/>
      <point x="654.99" y="433"/>
      <point x="654.99" y="441" type="curve" smooth="yes"/>
      <point x="654.99" y="449"/>
      <point x="649.159" y="456"/>
      <point x="642.495" y="456" type="curve" smooth="yes"/>
      <point x="635.831" y="456"/>
      <point x="630" y="449"/>
      <point x="630" y="441" type="curve" smooth="yes"/>
      <point x="630" y="433"/>
      <point x="635.831" y="426"/>
    </contour>
    <contour>
      <point x="582.495" y="354" type="curve" smooth="yes"/>
      <point x="589.159" y="354"/>
      <point x="594.99" y="361"/>
      <point x="594.99" y="369" type="curve" smooth="yes"/>
      <point x="594.99" y="377"/>
      <point x="589.159" y="384"/>
      <point x="582.495" y="384" type="curve" smooth="yes"/>
      <point x="575.831" y="384"/>
      <point x="570" y="377"/>
      <point x="570" y="369" type="curve" smooth="yes"/>
      <point x="570" y="361"/>
      <point x="575.831" y="354"/>
    </contour>
    <contour>
      <point x="501.495" y="326" type="curve" smooth="yes"/>
      <point x="508.159" y="326"/>
      <point x="513.99" y="333"/>
      <point x="513.99" y="341" type="curve" smooth="yes"/>
      <point x="513.99" y="349"/>
      <point x="508.159" y="356"/>
      <point x="501.495" y="356" type="curve" smooth="yes"/>
      <point x="494.831" y="356"/>
      <point x="489" y="349"/>
      <point x="489" y="341" type="curve" smooth="yes"/>
      <point x="489" y="333"/>
      <point x="494.831" y="326"/>
    </contour>
    <contour>
      <point x="420.495" y="353" type="curve" smooth="yes"/>
      <point x="427.159" y="353"/>
      <point x="432.99" y="360"/>
      <point x="432.99" y="368" type="curve" smooth="yes"/>
      <point x="432.99" y="376"/>
      <point x="427.159" y="383"/>
      <point x="420.495" y="383" type="curve" smooth="yes"/>
      <point x="413.831" y="383"/>
      <point x="408" y="376"/>
      <point x="408" y="368" type="curve" smooth="yes"/>
      <point x="408" y="360"/>
      <point x="413.831" y="353"/>
    </contour>
    <contour>
      <point x="359.495" y="425" type="curve" smooth="yes"/>
      <point x="366.159" y="425"/>
      <point x="371.99" y="432"/>
      <point x="371.99" y="440" type="curve" smooth="yes"/>
      <point x="371.99" y="448"/>
      <point x="366.159" y="455"/>
      <point x="359.495" y="455" type="curve" smooth="yes"/>
      <point x="352.831" y="455"/>
      <point x="347" y="448"/>
      <point x="347" y="440" type="curve" smooth="yes"/>
      <point x="347" y="432"/>
      <point x="352.831" y="425"/>
    </contour>
    <contour>
      <point x="881" y="660" type="line"/>
      <point x="855" y="660" type="line"/>
      <point x="855" y="107" type="line" smooth="yes"/>
      <point x="855" y="62"/>
      <point x="824" y="26"/>
      <point x="751" y="26" type="curve" smooth="yes"/>
      <point x="679" y="26"/>
      <point x="647" y="62"/>
      <point x="647" y="107" type="curve" smooth="yes"/>
      <point x="647" y="169" type="line"/>
      <point x="668" y="169" type="line"/>
      <point x="668" y="195" type="line"/>
      <point x="621" y="195" type="line"/>
      <point x="621" y="107" type="line" smooth="yes"/>
      <point x="621" y="37"/>
      <point x="665" y="0"/>
      <point x="751" y="0" type="curve" smooth="yes"/>
      <point x="838" y="0"/>
      <point x="881" y="37"/>
      <point x="881" y="107" type="curve" smooth="yes"/>
    </contour>
    <contour>
      <point x="855" y="650" type="line"/>
      <point x="881" y="650" type="line"/>
      <point x="881" y="687" type="line" smooth="yes"/>
      <point x="881" y="793"/>
      <point x="863" y="831"/>
      <point x="794" y="910" type="curve" smooth="yes"/>
      <point x="725" y="989"/>
      <point x="685" y="1016"/>
      <point x="637" y="1016" type="curve" smooth="yes"/>
      <point x="566" y="1016"/>
      <point x="533" y="952"/>
      <point x="533" y="893" type="curve" smooth="yes"/>
      <point x="533" y="863"/>
      <point x="542" y="859"/>
      <point x="569" y="859" type="curve" smooth="yes"/>
      <point x="795" y="859" type="line" smooth="yes"/>
      <point x="811" y="859"/>
      <point x="855" y="807"/>
      <point x="855" y="723" type="curve" smooth="yes"/>
    </contour>
    <contour>
      <point x="558" y="885" type="line"/>
      <point x="558" y="952"/>
      <point x="589" y="990"/>
      <point x="638" y="990" type="curve" smooth="yes"/>
      <point x="684" y="990"/>
      <point x="726" y="954"/>
      <point x="782" y="885" type="curve"/>
    </contour>
    <contour>
      <point x="751" y="949" type="line"/>
      <point x="751" y="1056" type="line"/>
      <point x="725" y="1056" type="line"/>
      <point x="725" y="968" type="line"/>
    </contour>
    <contour>
      <point x="833" y="853" type="line"/>
      <point x="833" y="1032" type="line"/>
      <point x="807" y="1032" type="line"/>
      <point x="807" y="881" type="line"/>
    </contour>
  </outline>
</glyph>
<glyph name="uni17C0" format="2">
  <advance width="976"/>
  <unicode hex="17C0"/>
  <note>
uni17C0
</note>
  <outline>
    <contour>
      <point x="136" y="565" type="line"/>
      <point x="110" y="565" type="line"/>
      <point x="110" y="309" type="line" smooth="yes"/>
      <point x="110" y="261"/>
      <point x="134" y="244"/>
      <point x="183" y="244" type="curve" smooth="yes"/>
      <point x="227" y="244" type="line"/>
      <point x="227" y="270" type="line"/>
      <point x="175" y="270" type="line" smooth="yes"/>
      <point x="143" y="270"/>
      <point x="136" y="286"/>
      <point x="136" y="309" type="curve" smooth="yes"/>
    </contour>
    <contour>
      <point x="110" y="549" type="line"/>
      <point x="136" y="549" type="line"/>
      <point x="136" y="592" type="line"/>
      <point x="63" y="730" type="line"/>
      <point x="70" y="754" type="line"/>
      <point x="147" y="754" type="line"/>
      <point x="147" y="780" type="line"/>
      <point x="71" y="780" type="line"/>
      <point x="58" y="763"/>
      <point x="50" y="741"/>
      <point x="50" y="724" type="curve" smooth="yes"/>
      <point x="50" y="708"/>
      <point x="63" y="678"/>
      <point x="110" y="586" type="curve"/>
    </contour>
    <contour>
      <point x="341.495" y="520" type="curve" smooth="yes"/>
      <point x="348.159" y="520"/>
      <point x="353.99" y="527"/>
      <point x="353.99" y="535" type="curve" smooth="yes"/>
      <point x="353.99" y="543"/>
      <point x="348.159" y="550"/>
      <point x="341.495" y="550" type="curve" smooth="yes"/>
      <point x="334.831" y="550"/>
      <point x="329" y="543"/>
      <point x="329" y="535" type="curve" smooth="yes"/>
      <point x="329" y="527"/>
      <point x="334.831" y="520"/>
    </contour>
    <contour>
      <point x="363.495" y="621" type="curve" smooth="yes"/>
      <point x="370.159" y="621"/>
      <point x="375.99" y="628"/>
      <point x="375.99" y="636" type="curve" smooth="yes"/>
      <point x="375.99" y="644"/>
      <point x="370.159" y="651"/>
      <point x="363.495" y="651" type="curve" smooth="yes"/>
      <point x="356.831" y="651"/>
      <point x="351" y="644"/>
      <point x="351" y="636" type="curve" smooth="yes"/>
      <point x="351" y="628"/>
      <point x="356.831" y="621"/>
    </contour>
    <contour>
      <point x="422.495" y="691" type="curve" smooth="yes"/>
      <point x="429.159" y="691"/>
      <point x="434.99" y="698"/>
      <point x="434.99" y="706" type="curve" smooth="yes"/>
      <point x="434.99" y="714"/>
      <point x="429.159" y="721"/>
      <point x="422.495" y="721" type="curve" smooth="yes"/>
      <point x="415.831" y="721"/>
      <point x="410" y="714"/>
      <point x="410" y="706" type="curve" smooth="yes"/>
      <point x="410" y="698"/>
      <point x="415.831" y="691"/>
    </contour>
    <contour>
      <point x="503.495" y="715" type="curve" smooth="yes"/>
      <point x="510.159" y="715"/>
      <point x="515.99" y="722"/>
      <point x="515.99" y="730" type="curve" smooth="yes"/>
      <point x="515.99" y="738"/>
      <point x="510.159" y="745"/>
      <point x="503.495" y="745" type="curve" smooth="yes"/>
      <point x="496.831" y="745"/>
      <point x="491" y="738"/>
      <point x="491" y="730" type="curve" smooth="yes"/>
      <point x="491" y="722"/>
      <point x="496.831" y="715"/>
    </contour>
    <contour>
      <point x="584.495" y="691" type="curve" smooth="yes"/>
      <point x="591.159" y="691"/>
      <point x="596.99" y="698"/>
      <point x="596.99" y="706" type="curve" smooth="yes"/>
      <point x="596.99" y="714"/>
      <point x="591.159" y="721"/>
      <point x="584.495" y="721" type="curve" smooth="yes"/>
      <point x="577.831" y="721"/>
      <point x="572" y="714"/>
      <point x="572" y="706" type="curve" smooth="yes"/>
      <point x="572" y="698"/>
      <point x="577.831" y="691"/>
    </contour>
    <contour>
      <point x="642.495" y="619" type="curve" smooth="yes"/>
      <point x="649.159" y="619"/>
      <point x="654.99" y="626"/>
      <point x="654.99" y="634" type="curve" smooth="yes"/>
      <point x="654.99" y="642"/>
      <point x="649.159" y="649"/>
      <point x="642.495" y="649" type="curve" smooth="yes"/>
      <point x="635.831" y="649"/>
      <point x="630" y="642"/>
      <point x="630" y="634" type="curve" smooth="yes"/>
      <point x="630" y="626"/>
      <point x="635.831" y="619"/>
    </contour>
    <contour>
      <point x="667.495" y="520" type="curve" smooth="yes"/>
      <point x="674.159" y="520"/>
      <point x="679.99" y="527"/>
      <point x="679.99" y="535" type="curve" smooth="yes"/>
      <point x="679.99" y="543"/>
      <point x="674.159" y="550"/>
      <point x="667.495" y="550" type="curve" smooth="yes"/>
      <point x="660.831" y="550"/>
      <point x="655" y="543"/>
      <point x="655" y="535" type="curve" smooth="yes"/>
      <point x="655" y="527"/>
      <point x="660.831" y="520"/>
    </contour>
    <contour>
      <point x="644.495" y="426" type="curve" smooth="yes"/>
      <point x="651.159" y="426"/>
      <point x="656.99" y="433"/>
      <point x="656.99" y="441" type="curve" smooth="yes"/>
      <point x="656.99" y="449"/>
      <point x="651.159" y="456"/>
      <point x="644.495" y="456" type="curve" smooth="yes"/>
      <point x="637.831" y="456"/>
      <point x="632" y="449"/>
      <point x="632" y="441" type="curve" smooth="yes"/>
      <point x="632" y="433"/>
      <point x="637.831" y="426"/>
    </contour>
    <contour>
      <point x="584.495" y="354" type="curve" smooth="yes"/>
      <point x="591.159" y="354"/>
      <point x="596.99" y="361"/>
      <point x="596.99" y="369" type="curve" smooth="yes"/>
      <point x="596.99" y="377"/>
      <point x="591.159" y="384"/>
      <point x="584.495" y="384" type="curve" smooth="yes"/>
      <point x="577.831" y="384"/>
      <point x="572" y="377"/>
      <point x="572" y="369" type="curve" smooth="yes"/>
      <point x="572" y="361"/>
      <point x="577.831" y="354"/>
    </contour>
    <contour>
      <point x="503.495" y="326" type="curve" smooth="yes"/>
      <point x="510.159" y="326"/>
      <point x="515.99" y="333"/>
      <point x="515.99" y="341" type="curve" smooth="yes"/>
      <point x="515.99" y="349"/>
      <point x="510.159" y="356"/>
      <point x="503.495" y="356" type="curve" smooth="yes"/>
      <point x="496.831" y="356"/>
      <point x="491" y="349"/>
      <point x="491" y="341" type="curve" smooth="yes"/>
      <point x="491" y="333"/>
      <point x="496.831" y="326"/>
    </contour>
    <contour>
      <point x="422.495" y="353" type="curve" smooth="yes"/>
      <point x="429.159" y="353"/>
      <point x="434.99" y="360"/>
      <point x="434.99" y="368" type="curve" smooth="yes"/>
      <point x="434.99" y="376"/>
      <point x="429.159" y="383"/>
      <point x="422.495" y="383" type="curve" smooth="yes"/>
      <point x="415.831" y="383"/>
      <point x="410" y="376"/>
      <point x="410" y="368" type="curve" smooth="yes"/>
      <point x="410" y="360"/>
      <point x="415.831" y="353"/>
    </contour>
    <contour>
      <point x="361.495" y="425" type="curve" smooth="yes"/>
      <point x="368.159" y="425"/>
      <point x="373.99" y="432"/>
      <point x="373.99" y="440" type="curve" smooth="yes"/>
      <point x="373.99" y="448"/>
      <point x="368.159" y="455"/>
      <point x="361.495" y="455" type="curve" smooth="yes"/>
      <point x="354.831" y="455"/>
      <point x="349" y="448"/>
      <point x="349" y="440" type="curve" smooth="yes"/>
      <point x="349" y="432"/>
      <point x="354.831" y="425"/>
    </contour>
    <contour>
      <point x="886" y="728" type="line"/>
      <point x="860" y="728" type="line"/>
      <point x="860" y="107" type="line" smooth="yes"/>
      <point x="860" y="62"/>
      <point x="829" y="26"/>
      <point x="756" y="26" type="curve" smooth="yes"/>
      <point x="684" y="26"/>
      <point x="652" y="62"/>
      <point x="652" y="107" type="curve" smooth="yes"/>
      <point x="652" y="169" type="line"/>
      <point x="673" y="169" type="line"/>
      <point x="673" y="195" type="line"/>
      <point x="626" y="195" type="line"/>
      <point x="626" y="107" type="line" smooth="yes"/>
      <point x="626" y="37"/>
      <point x="669" y="0"/>
      <point x="756" y="0" type="curve" smooth="yes"/>
      <point x="843" y="0"/>
      <point x="886" y="37"/>
      <point x="886" y="107" type="curve" smooth="yes"/>
    </contour>
    <contour>
      <point x="860" y="709" type="line"/>
      <point x="886" y="709" type="line"/>
      <point x="886" y="833" type="line" smooth="yes"/>
      <point x="886" y="927"/>
      <point x="830" y="980"/>
      <point x="757" y="980" type="curve" smooth="yes"/>
      <point x="705" y="980"/>
      <point x="677" y="958"/>
      <point x="651" y="928" type="curve"/>
      <point x="651" y="1056" type="line"/>
      <point x="625" y="1056" type="line"/>
      <point x="625" y="886" type="line"/>
      <point x="651" y="886" type="line"/>
      <point x="675" y="924"/>
      <point x="703" y="954"/>
      <point x="756" y="954" type="curve" smooth="yes"/>
      <point x="829" y="954"/>
      <point x="860" y="901"/>
      <point x="860" y="817" type="curve" smooth="yes"/>
    </contour>
  </outline>
</glyph>
<glyph name="uni17C1" format="2">
  <advance width="227"/>
  <unicode hex="17C1"/>
  <note>
uni17C1
</note>
  <outline>
    <contour>
      <point x="136" y="565" type="line"/>
      <point x="110" y="565" type="line"/>
      <point x="110" y="309" type="line" smooth="yes"/>
      <point x="110" y="261"/>
      <point x="134" y="244"/>
      <point x="183" y="244" type="curve" smooth="yes"/>
      <point x="227" y="244" type="line"/>
      <point x="227" y="270" type="line"/>
      <point x="175" y="270" type="line" smooth="yes"/>
      <point x="143" y="270"/>
      <point x="136" y="286"/>
      <point x="136" y="309" type="curve" smooth="yes"/>
    </contour>
    <contour>
      <point x="110" y="549" type="line"/>
      <point x="136" y="549" type="line"/>
      <point x="136" y="592" type="line"/>
      <point x="63" y="730" type="line"/>
      <point x="70" y="754" type="line"/>
      <point x="147" y="754" type="line"/>
      <point x="147" y="780" type="line"/>
      <point x="71" y="780" type="line"/>
      <point x="58" y="763"/>
      <point x="50" y="741"/>
      <point x="50" y="724" type="curve" smooth="yes"/>
      <point x="50" y="708"/>
      <point x="63" y="678"/>
      <point x="110" y="586" type="curve"/>
    </contour>
  </outline>
</glyph>
<glyph name="uni17C2" format="2">
  <advance width="227"/>
  <unicode hex="17C2"/>
  <note>
uni17C2
</note>
  <outline>
    <contour>
      <point x="97" y="829" type="curve" smooth="yes"/>
      <point x="180" y="829"/>
      <point x="224" y="914"/>
      <point x="224" y="1048" type="curve"/>
      <point x="198" y="1048" type="line"/>
      <point x="198" y="948"/>
      <point x="172" y="855"/>
      <point x="97" y="855" type="curve" smooth="yes"/>
      <point x="56" y="855"/>
      <point x="26" y="882"/>
      <point x="26" y="918" type="curve" smooth="yes"/>
      <point x="26" y="962"/>
      <point x="62" y="983"/>
      <point x="111" y="983" type="curve"/>
      <point x="111" y="1009" type="line"/>
      <point x="50" y="1009"/>
      <point x="0" y="979"/>
      <point x="0" y="918" type="curve" smooth="yes"/>
      <point x="0" y="859"/>
      <point x="49" y="829"/>
    </contour>
    <contour>
      <point x="136" y="565" type="line"/>
      <point x="110" y="565" type="line"/>
      <point x="110" y="309" type="line" smooth="yes"/>
      <point x="110" y="261"/>
      <point x="134" y="244"/>
      <point x="183" y="244" type="curve" smooth="yes"/>
      <point x="227" y="244" type="line"/>
      <point x="227" y="270" type="line"/>
      <point x="175" y="270" type="line" smooth="yes"/>
      <point x="143" y="270"/>
      <point x="136" y="286"/>
      <point x="136" y="309" type="curve" smooth="yes"/>
    </contour>
    <contour>
      <point x="110" y="549" type="line"/>
      <point x="136" y="549" type="line"/>
      <point x="136" y="592" type="line"/>
      <point x="63" y="730" type="line"/>
      <point x="70" y="754" type="line"/>
      <point x="147" y="754" type="line"/>
      <point x="147" y="780" type="line"/>
      <point x="71" y="780" type="line"/>
      <point x="58" y="763"/>
      <point x="50" y="741"/>
      <point x="50" y="724" type="curve" smooth="yes"/>
      <point x="50" y="708"/>
      <point x="63" y="678"/>
      <point x="110" y="586" type="curve"/>
    </contour>
  </outline>
</glyph>
<glyph name="uni17C3" format="2">
  <advance width="227"/>
  <unicode hex="17C3"/>
  <note>
uni17C3
</note>
  <outline>
    <contour>
      <point x="40" y="809" type="line"/>
      <point x="75" y="809" type="line" smooth="yes"/>
      <point x="137" y="809"/>
      <point x="200" y="845"/>
      <point x="200" y="919" type="curve" smooth="yes"/>
      <point x="200" y="979"/>
      <point x="161" y="1004"/>
      <point x="125" y="1004" type="curve" smooth="yes"/>
      <point x="95" y="1004"/>
      <point x="74" y="986"/>
      <point x="66" y="970" type="curve"/>
      <point x="66" y="1035" type="line" smooth="yes"/>
      <point x="66" y="1052"/>
      <point x="56" y="1056"/>
      <point x="38" y="1056" type="curve" smooth="yes"/>
      <point x="16" y="1056" type="line"/>
      <point x="16" y="1031" type="line"/>
      <point x="35" y="1031"/>
      <point x="40" y="1027"/>
      <point x="40" y="1011" type="curve" smooth="yes"/>
      <point x="40" y="921" type="line"/>
      <point x="66" y="921" type="line"/>
      <point x="70" y="945"/>
      <point x="88" y="977"/>
      <point x="123" y="977" type="curve" smooth="yes"/>
      <point x="150" y="977"/>
      <point x="174" y="957"/>
      <point x="174" y="918" type="curve" smooth="yes"/>
      <point x="174" y="864"/>
      <point x="127" y="835"/>
      <point x="75" y="835" type="curve" smooth="yes"/>
      <point x="40" y="835" type="line"/>
    </contour>
    <contour>
      <point x="136" y="565" type="line"/>
      <point x="110" y="565" type="line"/>
      <point x="110" y="309" type="line" smooth="yes"/>
      <point x="110" y="261"/>
      <point x="134" y="244"/>
      <point x="183" y="244" type="curve" smooth="yes"/>
      <point x="227" y="244" type="line"/>
      <point x="227" y="270" type="line"/>
      <point x="175" y="270" type="line" smooth="yes"/>
      <point x="143" y="270"/>
      <point x="136" y="286"/>
      <point x="136" y="309" type="curve" smooth="yes"/>
    </contour>
    <contour>
      <point x="110" y="549" type="line"/>
      <point x="136" y="549" type="line"/>
      <point x="136" y="592" type="line"/>
      <point x="63" y="730" type="line"/>
      <point x="70" y="754" type="line"/>
      <point x="147" y="754" type="line"/>
      <point x="147" y="780" type="line"/>
      <point x="71" y="780" type="line"/>
      <point x="58" y="763"/>
      <point x="50" y="741"/>
      <point x="50" y="724" type="curve" smooth="yes"/>
      <point x="50" y="708"/>
      <point x="63" y="678"/>
      <point x="110" y="586" type="curve"/>
    </contour>
  </outline>
</glyph>
<glyph name="uni17C5" format="2">
  <advance width="938"/>
  <unicode hex="17C5"/>
  <note>
uni17C5
</note>
  <outline>
    <contour>
      <point x="136" y="565" type="line"/>
      <point x="110" y="565" type="line"/>
      <point x="110" y="309" type="line" smooth="yes"/>
      <point x="110" y="261"/>
      <point x="134" y="244"/>
      <point x="183" y="244" type="curve" smooth="yes"/>
      <point x="227" y="244" type="line"/>
      <point x="227" y="270" type="line"/>
      <point x="175" y="270" type="line" smooth="yes"/>
      <point x="143" y="270"/>
      <point x="136" y="286"/>
      <point x="136" y="309" type="curve" smooth="yes"/>
    </contour>
    <contour>
      <point x="110" y="549" type="line"/>
      <point x="136" y="549" type="line"/>
      <point x="136" y="592" type="line"/>
      <point x="63" y="730" type="line"/>
      <point x="70" y="754" type="line"/>
      <point x="147" y="754" type="line"/>
      <point x="147" y="780" type="line"/>
      <point x="71" y="780" type="line"/>
      <point x="58" y="763"/>
      <point x="50" y="741"/>
      <point x="50" y="724" type="curve" smooth="yes"/>
      <point x="50" y="708"/>
      <point x="63" y="678"/>
      <point x="110" y="586" type="curve"/>
    </contour>
    <contour>
      <point x="307.495" y="500" type="curve" smooth="yes"/>
      <point x="314.159" y="500"/>
      <point x="319.99" y="507"/>
      <point x="319.99" y="515" type="curve" smooth="yes"/>
      <point x="319.99" y="523"/>
      <point x="314.159" y="530"/>
      <point x="307.495" y="530" type="curve" smooth="yes"/>
      <point x="300.831" y="530"/>
      <point x="295" y="523"/>
      <point x="295" y="515" type="curve" smooth="yes"/>
      <point x="295" y="507"/>
      <point x="300.831" y="500"/>
    </contour>
    <contour>
      <point x="329.495" y="601" type="curve" smooth="yes"/>
      <point x="336.159" y="601"/>
      <point x="341.99" y="608"/>
      <point x="341.99" y="616" type="curve" smooth="yes"/>
      <point x="341.99" y="624"/>
      <point x="336.159" y="631"/>
      <point x="329.495" y="631" type="curve" smooth="yes"/>
      <point x="322.831" y="631"/>
      <point x="317" y="624"/>
      <point x="317" y="616" type="curve" smooth="yes"/>
      <point x="317" y="608"/>
      <point x="322.831" y="601"/>
    </contour>
    <contour>
      <point x="388.495" y="671" type="curve" smooth="yes"/>
      <point x="395.159" y="671"/>
      <point x="400.99" y="678"/>
      <point x="400.99" y="686" type="curve" smooth="yes"/>
      <point x="400.99" y="694"/>
      <point x="395.159" y="701"/>
      <point x="388.495" y="701" type="curve" smooth="yes"/>
      <point x="381.831" y="701"/>
      <point x="376" y="694"/>
      <point x="376" y="686" type="curve" smooth="yes"/>
      <point x="376" y="678"/>
      <point x="381.831" y="671"/>
    </contour>
    <contour>
      <point x="469.495" y="695" type="curve" smooth="yes"/>
      <point x="476.159" y="695"/>
      <point x="481.99" y="702"/>
      <point x="481.99" y="710" type="curve" smooth="yes"/>
      <point x="481.99" y="718"/>
      <point x="476.159" y="725"/>
      <point x="469.495" y="725" type="curve" smooth="yes"/>
      <point x="462.831" y="725"/>
      <point x="457" y="718"/>
      <point x="457" y="710" type="curve" smooth="yes"/>
      <point x="457" y="702"/>
      <point x="462.831" y="695"/>
    </contour>
    <contour>
      <point x="550.495" y="671" type="curve" smooth="yes"/>
      <point x="557.159" y="671"/>
      <point x="562.99" y="678"/>
      <point x="562.99" y="686" type="curve" smooth="yes"/>
      <point x="562.99" y="694"/>
      <point x="557.159" y="701"/>
      <point x="550.495" y="701" type="curve" smooth="yes"/>
      <point x="543.831" y="701"/>
      <point x="538" y="694"/>
      <point x="538" y="686" type="curve" smooth="yes"/>
      <point x="538" y="678"/>
      <point x="543.831" y="671"/>
    </contour>
    <contour>
      <point x="608.495" y="599" type="curve" smooth="yes"/>
      <point x="615.159" y="599"/>
      <point x="620.99" y="606"/>
      <point x="620.99" y="614" type="curve" smooth="yes"/>
      <point x="620.99" y="622"/>
      <point x="615.159" y="629"/>
      <point x="608.495" y="629" type="curve" smooth="yes"/>
      <point x="601.831" y="629"/>
      <point x="596" y="622"/>
      <point x="596" y="614" type="curve" smooth="yes"/>
      <point x="596" y="606"/>
      <point x="601.831" y="599"/>
    </contour>
    <contour>
      <point x="633.495" y="500" type="curve" smooth="yes"/>
      <point x="640.159" y="500"/>
      <point x="645.99" y="507"/>
      <point x="645.99" y="515" type="curve" smooth="yes"/>
      <point x="645.99" y="523"/>
      <point x="640.159" y="530"/>
      <point x="633.495" y="530" type="curve" smooth="yes"/>
      <point x="626.831" y="530"/>
      <point x="621" y="523"/>
      <point x="621" y="515" type="curve" smooth="yes"/>
      <point x="621" y="507"/>
      <point x="626.831" y="500"/>
    </contour>
    <contour>
      <point x="610.495" y="406" type="curve" smooth="yes"/>
      <point x="617.159" y="406"/>
      <point x="622.99" y="413"/>
      <point x="622.99" y="421" type="curve" smooth="yes"/>
      <point x="622.99" y="429"/>
      <point x="617.159" y="436"/>
      <point x="610.495" y="436" type="curve" smooth="yes"/>
      <point x="603.831" y="436"/>
      <point x="598" y="429"/>
      <point x="598" y="421" type="curve" smooth="yes"/>
      <point x="598" y="413"/>
      <point x="603.831" y="406"/>
    </contour>
    <contour>
      <point x="550.495" y="334" type="curve" smooth="yes"/>
      <point x="557.159" y="334"/>
      <point x="562.99" y="341"/>
      <point x="562.99" y="349" type="curve" smooth="yes"/>
      <point x="562.99" y="357"/>
      <point x="557.159" y="364"/>
      <point x="550.495" y="364" type="curve" smooth="yes"/>
      <point x="543.831" y="364"/>
      <point x="538" y="357"/>
      <point x="538" y="349" type="curve" smooth="yes"/>
      <point x="538" y="341"/>
      <point x="543.831" y="334"/>
    </contour>
    <contour>
      <point x="469.495" y="306" type="curve" smooth="yes"/>
      <point x="476.159" y="306"/>
      <point x="481.99" y="313"/>
      <point x="481.99" y="321" type="curve" smooth="yes"/>
      <point x="481.99" y="329"/>
      <point x="476.159" y="336"/>
      <point x="469.495" y="336" type="curve" smooth="yes"/>
      <point x="462.831" y="336"/>
      <point x="457" y="329"/>
      <point x="457" y="321" type="curve" smooth="yes"/>
      <point x="457" y="313"/>
      <point x="462.831" y="306"/>
    </contour>
    <contour>
      <point x="388.495" y="333" type="curve" smooth="yes"/>
      <point x="395.159" y="333"/>
      <point x="400.99" y="340"/>
      <point x="400.99" y="348" type="curve" smooth="yes"/>
      <point x="400.99" y="356"/>
      <point x="395.159" y="363"/>
      <point x="388.495" y="363" type="curve" smooth="yes"/>
      <point x="381.831" y="363"/>
      <point x="376" y="356"/>
      <point x="376" y="348" type="curve" smooth="yes"/>
      <point x="376" y="340"/>
      <point x="381.831" y="333"/>
    </contour>
    <contour>
      <point x="327.495" y="405" type="curve" smooth="yes"/>
      <point x="334.159" y="405"/>
      <point x="339.99" y="412"/>
      <point x="339.99" y="420" type="curve" smooth="yes"/>
      <point x="339.99" y="428"/>
      <point x="334.159" y="435"/>
      <point x="327.495" y="435" type="curve" smooth="yes"/>
      <point x="320.831" y="435"/>
      <point x="315" y="428"/>
      <point x="315" y="420" type="curve" smooth="yes"/>
      <point x="315" y="412"/>
      <point x="320.831" y="405"/>
    </contour>
    <contour>
      <point x="836" y="799" type="line"/>
      <point x="836" y="989" type="line" smooth="yes"/>
      <point x="836" y="1039"/>
      <point x="814" y="1048"/>
      <point x="783" y="1048" type="curve" smooth="yes"/>
      <point x="723" y="1048" type="line"/>
      <point x="723" y="1022" type="line"/>
      <point x="778" y="1022" type="line" smooth="yes"/>
      <point x="806" y="1022"/>
      <point x="810" y="1006"/>
      <point x="810" y="977" type="curve" smooth="yes"/>
      <point x="810" y="799" type="line"/>
    </contour>
    <contour>
      <point x="822" y="244" type="line"/>
      <point x="848" y="244" type="line"/>
      <point x="848" y="688" type="line" smooth="yes"/>
      <point x="848" y="762"/>
      <point x="818" y="780"/>
      <point x="724" y="780" type="curve" smooth="yes"/>
      <point x="613" y="780" type="line"/>
      <point x="613" y="754" type="line"/>
      <point x="744" y="754" type="line" smooth="yes"/>
      <point x="805" y="754"/>
      <point x="822" y="729"/>
      <point x="822" y="677" type="curve" smooth="yes"/>
    </contour>
  </outline>
</glyph>
<glyph name="uni17C6" format="2">
  <unicode hex="17C6"/>
  <note>
uni17C6
</note>
  <outline>
    <contour>
      <point x="-310" y="684" type="curve" smooth="yes"/>
      <point x="-255" y="684"/>
      <point x="-210" y="729"/>
      <point x="-210" y="784" type="curve" smooth="yes"/>
      <point x="-210" y="839"/>
      <point x="-255" y="884"/>
      <point x="-310" y="884" type="curve" smooth="yes"/>
      <point x="-365" y="884"/>
      <point x="-410" y="839"/>
      <point x="-410" y="784" type="curve" smooth="yes"/>
      <point x="-410" y="729"/>
      <point x="-365" y="684"/>
    </contour>
    <contour>
      <point x="-310" y="710" type="curve" smooth="yes"/>
      <point x="-351" y="710"/>
      <point x="-384" y="743"/>
      <point x="-384" y="784" type="curve" smooth="yes"/>
      <point x="-384" y="825"/>
      <point x="-351" y="858"/>
      <point x="-310" y="858" type="curve" smooth="yes"/>
      <point x="-269" y="858"/>
      <point x="-236" y="825"/>
      <point x="-236" y="784" type="curve" smooth="yes"/>
      <point x="-236" y="743"/>
      <point x="-269" y="710"/>
    </contour>
  </outline>
</glyph>
<glyph name="uni17C7" format="2">
  <advance width="351"/>
  <unicode hex="17C7"/>
  <note>
uni17C7
</note>
  <outline>
    <contour>
      <point x="176" y="571" type="curve" smooth="yes"/>
      <point x="231" y="571"/>
      <point x="275" y="616"/>
      <point x="275" y="671" type="curve" smooth="yes"/>
      <point x="275" y="729"/>
      <point x="231" y="771"/>
      <point x="176" y="771" type="curve" smooth="yes"/>
      <point x="121" y="771"/>
      <point x="76" y="727"/>
      <point x="76" y="671" type="curve" smooth="yes"/>
      <point x="76" y="617"/>
      <point x="121" y="571"/>
    </contour>
    <contour>
      <point x="176" y="246" type="curve" smooth="yes"/>
      <point x="231" y="246"/>
      <point x="275" y="290"/>
      <point x="275" y="346" type="curve" smooth="yes"/>
      <point x="275" y="403"/>
      <point x="231" y="446"/>
      <point x="176" y="446" type="curve" smooth="yes"/>
      <point x="121" y="446"/>
      <point x="76" y="401"/>
      <point x="76" y="346" type="curve" smooth="yes"/>
      <point x="76" y="291"/>
      <point x="121" y="246"/>
    </contour>
    <contour>
      <point x="176" y="599" type="curve" smooth="yes"/>
      <point x="136" y="599"/>
      <point x="103" y="631"/>
      <point x="103" y="671" type="curve" smooth="yes"/>
      <point x="103" y="711"/>
      <point x="136" y="744"/>
      <point x="176" y="744" type="curve" smooth="yes"/>
      <point x="216" y="744"/>
      <point x="249" y="711"/>
      <point x="249" y="671" type="curve" smooth="yes"/>
      <point x="249" y="631"/>
      <point x="216" y="599"/>
    </contour>
    <contour>
      <point x="176" y="273" type="curve" smooth="yes"/>
      <point x="136" y="273"/>
      <point x="103" y="306"/>
      <point x="103" y="346" type="curve" smooth="yes"/>
      <point x="103" y="386"/>
      <point x="136" y="418"/>
      <point x="176" y="418" type="curve" smooth="yes"/>
      <point x="216" y="418"/>
      <point x="249" y="386"/>
      <point x="249" y="346" type="curve" smooth="yes"/>
      <point x="249" y="306"/>
      <point x="216" y="273"/>
    </contour>
  </outline>
</glyph>
<glyph name="uni17C8" format="2">
  <advance width="222"/>
  <unicode hex="17C8"/>
  <note>
uni17C8
</note>
  <outline>
    <contour>
      <point x="111" y="658" type="curve" smooth="yes"/>
      <point x="129" y="658"/>
      <point x="145" y="674"/>
      <point x="145" y="692" type="curve" smooth="yes"/>
      <point x="145" y="710"/>
      <point x="129" y="726"/>
      <point x="111" y="726" type="curve" smooth="yes"/>
      <point x="93" y="726"/>
      <point x="77" y="710"/>
      <point x="77" y="692" type="curve" smooth="yes"/>
      <point x="77" y="674"/>
      <point x="93" y="658"/>
    </contour>
    <contour>
      <point x="111" y="292" type="curve" smooth="yes"/>
      <point x="129" y="292"/>
      <point x="145" y="308"/>
      <point x="145" y="326" type="curve" smooth="yes"/>
      <point x="145" y="344"/>
      <point x="129" y="360"/>
      <point x="111" y="360" type="curve" smooth="yes"/>
      <point x="93" y="360"/>
      <point x="77" y="344"/>
      <point x="77" y="326" type="curve" smooth="yes"/>
      <point x="77" y="308"/>
      <point x="93" y="292"/>
    </contour>
  </outline>
</glyph>
<glyph name="uni17C9" format="2">
  <unicode hex="17C9"/>
  <note>
uni17C9
</note>
  <outline>
    <contour>
      <point x="-381" y="684" type="line"/>
      <point x="-355" y="684" type="line"/>
      <point x="-355" y="879" type="line"/>
      <point x="-381" y="879" type="line"/>
    </contour>
    <contour>
      <point x="-265" y="684" type="line"/>
      <point x="-239" y="684" type="line"/>
      <point x="-239" y="879" type="line"/>
      <point x="-265" y="879" type="line"/>
    </contour>
  </outline>
</glyph>
<glyph name="uni17CA" format="2">
  <unicode hex="17CA"/>
  <note>
uni17CA
</note>
  <outline>
    <contour>
      <point x="-463" y="684" type="line"/>
      <point x="-154" y="684" type="line"/>
      <point x="-154" y="710" type="line"/>
      <point x="-289" y="710" type="line"/>
      <point x="-309" y="686" type="line"/>
      <point x="-327" y="710" type="line"/>
      <point x="-463" y="710" type="line"/>
    </contour>
  </outline>
</glyph>
<glyph name="uni17CC" format="2">
  <unicode hex="17CC"/>
  <note>
uni17CC
</note>
  <outline>
    <contour>
      <point x="-424" y="694" type="line"/>
      <point x="-381" y="731"/>
      <point x="-357" y="747"/>
      <point x="-307" y="747" type="curve" smooth="yes"/>
      <point x="-257" y="747"/>
      <point x="-228" y="732"/>
      <point x="-197" y="688" type="curve"/>
      <point x="-176" y="704" type="line"/>
      <point x="-216" y="754"/>
      <point x="-259" y="782"/>
      <point x="-342" y="771" type="curve"/>
      <point x="-308" y="815"/>
      <point x="-288" y="845"/>
      <point x="-257" y="903" type="curve"/>
      <point x="-284" y="911" type="line"/>
      <point x="-314" y="849"/>
      <point x="-366" y="778"/>
      <point x="-440" y="714" type="curve"/>
    </contour>
  </outline>
</glyph>
<glyph name="uni17CD" format="2">
  <unicode hex="17CD"/>
  <note>
uni17CD
</note>
  <outline>
    <contour>
      <point x="-405" y="684" type="curve" smooth="yes"/>
      <point x="-391" y="684" type="line"/>
      <point x="-391" y="710" type="line"/>
      <point x="-397" y="710" type="line" smooth="yes"/>
      <point x="-440" y="710"/>
      <point x="-453" y="723"/>
      <point x="-453" y="750" type="curve" smooth="yes"/>
      <point x="-453" y="775"/>
      <point x="-436" y="787"/>
      <point x="-393" y="787" type="curve" smooth="yes"/>
      <point x="-350" y="787" type="line" smooth="yes"/>
      <point x="-259" y="787"/>
      <point x="-211" y="828"/>
      <point x="-211" y="908" type="curve"/>
      <point x="-237" y="908" type="line"/>
      <point x="-237" y="839"/>
      <point x="-274" y="813"/>
      <point x="-346" y="813" type="curve" smooth="yes"/>
      <point x="-376" y="813" type="line" smooth="yes"/>
      <point x="-450" y="813"/>
      <point x="-479" y="791"/>
      <point x="-479" y="748" type="curve" smooth="yes"/>
      <point x="-479" y="705"/>
      <point x="-453" y="684"/>
    </contour>
  </outline>
</glyph>
<glyph name="uni17CE" format="2">
  <unicode hex="17CE"/>
  <note>
uni17CE
</note>
  <outline>
    <contour>
      <point x="-324" y="684" type="line"/>
      <point x="-298" y="684" type="line"/>
      <point x="-298" y="784" type="line"/>
      <point x="-201" y="784" type="line"/>
      <point x="-201" y="810" type="line"/>
      <point x="-298" y="810" type="line"/>
      <point x="-298" y="910" type="line"/>
      <point x="-324" y="910" type="line"/>
      <point x="-324" y="810" type="line"/>
      <point x="-421" y="810" type="line"/>
      <point x="-421" y="784" type="line"/>
      <point x="-324" y="784" type="line"/>
    </contour>
  </outline>
</glyph>
<glyph name="uni17CF" format="2">
  <unicode hex="17CF"/>
  <note>
uni17CF
</note>
  <outline>
    <contour>
      <point x="-452" y="684" type="line"/>
      <point x="-422" y="684" type="line"/>
      <point x="-310" y="739" type="line"/>
      <point x="-198" y="684" type="line"/>
      <point x="-168" y="684" type="line"/>
      <point x="-168" y="767" type="line"/>
      <point x="-194" y="767" type="line"/>
      <point x="-194" y="711" type="line"/>
      <point x="-309" y="768" type="line"/>
      <point x="-426" y="711" type="line"/>
      <point x="-426" y="768" type="line" smooth="yes"/>
      <point x="-426" y="797"/>
      <point x="-426" y="816"/>
      <point x="-392" y="816" type="curve" smooth="yes"/>
      <point x="-232" y="816" type="line" smooth="yes"/>
      <point x="-193" y="816"/>
      <point x="-174" y="833"/>
      <point x="-174" y="862" type="curve" smooth="yes"/>
      <point x="-174" y="881" type="line"/>
      <point x="-200" y="881" type="line"/>
      <point x="-200" y="842"/>
      <point x="-209" y="842"/>
      <point x="-257" y="842" type="curve" smooth="yes"/>
      <point x="-386" y="842" type="line" smooth="yes"/>
      <point x="-445" y="842"/>
      <point x="-452" y="815"/>
      <point x="-452" y="768" type="curve" smooth="yes"/>
    </contour>
  </outline>
</glyph>
<glyph name="uni17D0" format="2">
  <unicode hex="17D0"/>
  <note>
uni17D0
</note>
  <outline>
    <contour>
      <point x="-328" y="684" type="curve" smooth="yes"/>
      <point x="-238" y="684"/>
      <point x="-170.5" y="753"/>
      <point x="-170.5" y="890" type="curve"/>
      <point x="-194.8" y="890" type="line"/>
      <point x="-194.8" y="791"/>
      <point x="-232.6" y="710"/>
      <point x="-328" y="710" type="curve" smooth="yes"/>
      <point x="-380.2" y="710"/>
      <point x="-403.6" y="733"/>
      <point x="-403.6" y="770" type="curve" smooth="yes"/>
      <point x="-403.6" y="801"/>
      <point x="-373.9" y="827"/>
      <point x="-322.6" y="827" type="curve"/>
      <point x="-322.6" y="854" type="line"/>
      <point x="-374.8" y="854"/>
      <point x="-427" y="824"/>
      <point x="-427" y="769" type="curve" smooth="yes"/>
      <point x="-427" y="707"/>
      <point x="-380.2" y="684"/>
    </contour>
  </outline>
</glyph>
<glyph name="uni17D1" format="2">
  <unicode hex="17D1"/>
  <note>
uni17D1
</note>
  <outline>
    <contour>
      <point x="-440" y="684" type="line"/>
      <point x="-151" y="684" type="line"/>
      <point x="-151" y="710" type="line"/>
      <point x="-440" y="710" type="line"/>
    </contour>
  </outline>
</glyph>
<glyph name="uni17D3" format="2">
  <unicode hex="17D3"/>
  <note>
uni17D3
</note>
  <outline>
    <contour>
      <point x="-297" y="695" type="curve" smooth="yes"/>
      <point x="-217" y="695"/>
      <point x="-132" y="731"/>
      <point x="-132" y="807" type="curve" smooth="yes"/>
      <point x="-132" y="883"/>
      <point x="-217" y="919"/>
      <point x="-297" y="919" type="curve" smooth="yes"/>
      <point x="-377" y="919"/>
      <point x="-463" y="883"/>
      <point x="-463" y="807" type="curve" smooth="yes"/>
      <point x="-463" y="731"/>
      <point x="-377" y="695"/>
    </contour>
    <contour>
      <point x="-297" y="721" type="curve" smooth="yes"/>
      <point x="-357" y="721"/>
      <point x="-437" y="751"/>
      <point x="-437" y="807" type="curve" smooth="yes"/>
      <point x="-437" y="870"/>
      <point x="-357" y="893"/>
      <point x="-297" y="893" type="curve" smooth="yes"/>
      <point x="-237" y="893"/>
      <point x="-158" y="870"/>
      <point x="-158" y="807" type="curve" smooth="yes"/>
      <point x="-158" y="752"/>
      <point x="-237" y="721"/>
    </contour>
  </outline>
</glyph>
<glyph name="uni17D4" format="2">
  <advance width="470"/>
  <unicode hex="17D4"/>
  <note>
uni17D4
</note>
  <outline>
    <contour>
      <point x="348" y="244" type="line"/>
      <point x="374" y="244" type="line"/>
      <point x="374" y="830" type="line"/>
      <point x="348" y="830" type="line"/>
      <point x="317" y="771"/>
      <point x="258" y="675"/>
      <point x="187" y="675" type="curve" smooth="yes"/>
      <point x="141" y="675"/>
      <point x="126" y="710"/>
      <point x="126" y="743" type="curve" smooth="yes"/>
      <point x="126" y="768"/>
      <point x="141" y="804"/>
      <point x="183" y="804" type="curve" smooth="yes"/>
      <point x="194" y="804" type="line"/>
      <point x="194" y="830" type="line"/>
      <point x="193" y="830" type="line" smooth="yes"/>
      <point x="131" y="830"/>
      <point x="100" y="797"/>
      <point x="100" y="741" type="curve" smooth="yes"/>
      <point x="100" y="679"/>
      <point x="140" y="649"/>
      <point x="188" y="649" type="curve" smooth="yes"/>
      <point x="263" y="649"/>
      <point x="320" y="731"/>
      <point x="348" y="782" type="curve"/>
    </contour>
  </outline>
</glyph>
<glyph name="uni17D6" format="2">
  <advance width="417"/>
  <unicode hex="17D6"/>
  <note>
uni17D6
</note>
  <outline>
    <contour>
      <point x="76" y="524" type="line"/>
      <point x="341" y="524" type="line"/>
      <point x="341" y="550" type="line"/>
      <point x="76" y="550" type="line"/>
    </contour>
    <contour>
      <point x="196" y="253" type="curve" smooth="yes"/>
      <point x="251" y="253"/>
      <point x="296" y="298"/>
      <point x="296" y="353" type="curve" smooth="yes"/>
      <point x="296" y="408"/>
      <point x="251" y="453"/>
      <point x="196" y="453" type="curve" smooth="yes"/>
      <point x="141" y="453"/>
      <point x="96" y="408"/>
      <point x="96" y="353" type="curve" smooth="yes"/>
      <point x="96" y="298"/>
      <point x="141" y="253"/>
    </contour>
    <contour>
      <point x="196" y="279" type="curve" smooth="yes"/>
      <point x="155" y="279"/>
      <point x="122" y="312"/>
      <point x="122" y="353" type="curve" smooth="yes"/>
      <point x="122" y="394"/>
      <point x="155" y="427"/>
      <point x="196" y="427" type="curve" smooth="yes"/>
      <point x="237" y="427"/>
      <point x="270" y="394"/>
      <point x="270" y="353" type="curve" smooth="yes"/>
      <point x="270" y="312"/>
      <point x="237" y="279"/>
    </contour>
    <contour>
      <point x="196" y="619" type="curve" smooth="yes"/>
      <point x="251" y="619"/>
      <point x="296" y="664"/>
      <point x="296" y="719" type="curve" smooth="yes"/>
      <point x="296" y="774"/>
      <point x="251" y="819"/>
      <point x="196" y="819" type="curve" smooth="yes"/>
      <point x="141" y="819"/>
      <point x="96" y="774"/>
      <point x="96" y="719" type="curve" smooth="yes"/>
      <point x="96" y="664"/>
      <point x="141" y="619"/>
    </contour>
    <contour>
      <point x="196" y="645" type="curve" smooth="yes"/>
      <point x="155" y="645"/>
      <point x="122" y="678"/>
      <point x="122" y="719" type="curve" smooth="yes"/>
      <point x="122" y="760"/>
      <point x="155" y="793"/>
      <point x="196" y="793" type="curve" smooth="yes"/>
      <point x="237" y="793"/>
      <point x="270" y="760"/>
      <point x="270" y="719" type="curve" smooth="yes"/>
      <point x="270" y="678"/>
      <point x="237" y="645"/>
    </contour>
  </outline>
</glyph>
<glyph name="uni17D7" format="2">
  <advance width="481"/>
  <unicode hex="17D7"/>
  <note>
uni17D7
</note>
  <outline>
    <contour>
      <point x="215" y="49" type="line"/>
      <point x="217" y="49" type="line" smooth="yes"/>
      <point x="330" y="49"/>
      <point x="385" y="101"/>
      <point x="385" y="205" type="curve" smooth="yes"/>
      <point x="385" y="830" type="line"/>
      <point x="359" y="830" type="line"/>
      <point x="350" y="807"/>
      <point x="301" y="738"/>
      <point x="271" y="738" type="curve" smooth="yes"/>
      <point x="231" y="738"/>
      <point x="220" y="830"/>
      <point x="158" y="830" type="curve" smooth="yes"/>
      <point x="115" y="830"/>
      <point x="86" y="794"/>
      <point x="86" y="751" type="curve" smooth="yes"/>
      <point x="86" y="695"/>
      <point x="120" y="664"/>
      <point x="168" y="664" type="curve" smooth="yes"/>
      <point x="184" y="664" type="line"/>
      <point x="184" y="690" type="line"/>
      <point x="175" y="690" type="line" smooth="yes"/>
      <point x="131" y="690"/>
      <point x="112" y="716"/>
      <point x="112" y="752" type="curve" smooth="yes"/>
      <point x="112" y="780"/>
      <point x="127" y="804"/>
      <point x="155" y="804" type="curve" smooth="yes"/>
      <point x="203" y="804"/>
      <point x="209" y="712"/>
      <point x="270" y="712" type="curve" smooth="yes"/>
      <point x="303" y="712"/>
      <point x="334" y="746"/>
      <point x="358" y="783" type="curve"/>
      <point x="359" y="783" type="line"/>
      <point x="359" y="205" type="line" smooth="yes"/>
      <point x="359" y="126"/>
      <point x="322" y="77"/>
      <point x="217" y="75" type="curve" smooth="yes"/>
      <point x="215" y="75" type="line"/>
    </contour>
  </outline>
</glyph>
<glyph name="uni17D8" format="2">
  <advance width="1606"/>
  <unicode hex="17D8"/>
  <note>
uni17D8
</note>
  <outline>
    <contour>
      <point x="328" y="244" type="line"/>
      <point x="354" y="244" type="line"/>
      <point x="354" y="830" type="line"/>
      <point x="328" y="830" type="line"/>
      <point x="297" y="771"/>
      <point x="238" y="675"/>
      <point x="167" y="675" type="curve" smooth="yes"/>
      <point x="121" y="675"/>
      <point x="106" y="710"/>
      <point x="106" y="743" type="curve" smooth="yes"/>
      <point x="106" y="768"/>
      <point x="121" y="804"/>
      <point x="163" y="804" type="curve" smooth="yes"/>
      <point x="174" y="804" type="line"/>
      <point x="174" y="830" type="line"/>
      <point x="173" y="830" type="line" smooth="yes"/>
      <point x="111" y="830"/>
      <point x="80" y="797"/>
      <point x="80" y="741" type="curve" smooth="yes"/>
      <point x="80" y="679"/>
      <point x="120" y="649"/>
      <point x="168" y="649" type="curve" smooth="yes"/>
      <point x="243" y="649"/>
      <point x="300" y="731"/>
      <point x="328" y="782" type="curve"/>
    </contour>
    <contour>
      <point x="1077" y="564" type="line"/>
      <point x="1051" y="564" type="line"/>
      <point x="1051" y="402" type="line" smooth="yes"/>
      <point x="1051" y="319"/>
      <point x="1013" y="270"/>
      <point x="932" y="270" type="curve" smooth="yes"/>
      <point x="853" y="270"/>
      <point x="814" y="319"/>
      <point x="814" y="402" type="curve" smooth="yes"/>
      <point x="814" y="622" type="line" smooth="yes"/>
      <point x="814" y="727"/>
      <point x="763" y="780"/>
      <point x="665" y="780" type="curve" smooth="yes"/>
      <point x="568" y="780"/>
      <point x="520" y="727"/>
      <point x="520" y="622" type="curve" smooth="yes"/>
      <point x="520" y="435" type="line"/>
      <point x="546" y="435" type="line"/>
      <point x="546" y="622" type="line" smooth="yes"/>
      <point x="546" y="703"/>
      <point x="584" y="754"/>
      <point x="665" y="754" type="curve" smooth="yes"/>
      <point x="748" y="754"/>
      <point x="788" y="703"/>
      <point x="788" y="622" type="curve" smooth="yes"/>
      <point x="788" y="402" type="line" smooth="yes"/>
      <point x="788" y="297"/>
      <point x="837" y="244"/>
      <point x="932" y="244" type="curve" smooth="yes"/>
      <point x="1028" y="244"/>
      <point x="1077" y="297"/>
      <point x="1077" y="402" type="curve" smooth="yes"/>
    </contour>
    <contour>
      <point x="520" y="452" type="line" smooth="yes"/>
      <point x="520" y="271" type="line" smooth="yes"/>
      <point x="520" y="247"/>
      <point x="536" y="244"/>
      <point x="547" y="244" type="curve" smooth="yes"/>
      <point x="549" y="244" type="line" smooth="yes"/>
      <point x="582" y="244"/>
      <point x="622" y="276"/>
      <point x="622" y="333" type="curve" smooth="yes"/>
      <point x="622" y="390"/>
      <point x="576" y="412"/>
      <point x="546" y="412" type="curve"/>
      <point x="546" y="452" type="line"/>
    </contour>
    <contour>
      <point x="546" y="270" type="curve"/>
      <point x="546" y="385" type="line"/>
      <point x="578" y="385"/>
      <point x="596" y="362"/>
      <point x="596" y="333" type="curve" smooth="yes"/>
      <point x="596" y="305"/>
      <point x="582" y="271"/>
    </contour>
    <contour>
      <point x="1051" y="550" type="line"/>
      <point x="1077" y="550" type="line"/>
      <point x="1077" y="592" type="line"/>
      <point x="1009" y="730" type="line"/>
      <point x="1016" y="754" type="line"/>
      <point x="1093" y="754" type="line"/>
      <point x="1093" y="780" type="line"/>
      <point x="1017" y="780" type="line"/>
      <point x="1004" y="763"/>
      <point x="996" y="741"/>
      <point x="996" y="724" type="curve" smooth="yes"/>
      <point x="996" y="708"/>
      <point x="1006" y="678"/>
      <point x="1051" y="586" type="curve"/>
    </contour>
    <contour>
      <point x="1484" y="244" type="line"/>
      <point x="1510" y="244" type="line"/>
      <point x="1510" y="830" type="line"/>
      <point x="1484" y="830" type="line"/>
      <point x="1453" y="771"/>
      <point x="1394" y="675"/>
      <point x="1323" y="675" type="curve" smooth="yes"/>
      <point x="1277" y="675"/>
      <point x="1262" y="710"/>
      <point x="1262" y="743" type="curve" smooth="yes"/>
      <point x="1262" y="768"/>
      <point x="1277" y="804"/>
      <point x="1319" y="804" type="curve" smooth="yes"/>
      <point x="1330" y="804" type="line"/>
      <point x="1330" y="830" type="line"/>
      <point x="1329" y="830" type="line" smooth="yes"/>
      <point x="1267" y="830"/>
      <point x="1236" y="797"/>
      <point x="1236" y="741" type="curve" smooth="yes"/>
      <point x="1236" y="679"/>
      <point x="1276" y="649"/>
      <point x="1324" y="649" type="curve" smooth="yes"/>
      <point x="1399" y="649"/>
      <point x="1456" y="731"/>
      <point x="1484" y="782" type="curve"/>
    </contour>
  </outline>
</glyph>
<glyph name="uni17D9" format="2">
  <advance width="603"/>
  <unicode hex="17D9"/>
  <note>
uni17D9
</note>
  <outline>
    <contour>
      <point x="301" y="258" type="curve" smooth="yes"/>
      <point x="440" y="258"/>
      <point x="503" y="343"/>
      <point x="503" y="537" type="curve" smooth="yes"/>
      <point x="503" y="731"/>
      <point x="443" y="816"/>
      <point x="301" y="816" type="curve" smooth="yes"/>
      <point x="162" y="816"/>
      <point x="100" y="731"/>
      <point x="100" y="537" type="curve" smooth="yes"/>
      <point x="100" y="343"/>
      <point x="162" y="258"/>
    </contour>
    <contour>
      <point x="301" y="284" type="curve" smooth="yes"/>
      <point x="178" y="284"/>
      <point x="126" y="364"/>
      <point x="126" y="537" type="curve" smooth="yes"/>
      <point x="126" y="710"/>
      <point x="178" y="791"/>
      <point x="301" y="791" type="curve" smooth="yes"/>
      <point x="424" y="791"/>
      <point x="477" y="710"/>
      <point x="477" y="537" type="curve" smooth="yes"/>
      <point x="477" y="364"/>
      <point x="424" y="284"/>
    </contour>
    <contour>
      <point x="301" y="337" type="curve" smooth="yes"/>
      <point x="363" y="337"/>
      <point x="405" y="412"/>
      <point x="405" y="537" type="curve" smooth="yes"/>
      <point x="405" y="662"/>
      <point x="363" y="736"/>
      <point x="301" y="736" type="curve" smooth="yes"/>
      <point x="238" y="736"/>
      <point x="197" y="660"/>
      <point x="197" y="537" type="curve" smooth="yes"/>
      <point x="197" y="414"/>
      <point x="238" y="337"/>
    </contour>
    <contour>
      <point x="301" y="363" type="curve" smooth="yes"/>
      <point x="251" y="363"/>
      <point x="223" y="445"/>
      <point x="223" y="537" type="curve" smooth="yes"/>
      <point x="223" y="625"/>
      <point x="247" y="710"/>
      <point x="301" y="710" type="curve" smooth="yes"/>
      <point x="353" y="710"/>
      <point x="379" y="630"/>
      <point x="379" y="537" type="curve" smooth="yes"/>
      <point x="379" y="448"/>
      <point x="354" y="363"/>
    </contour>
  </outline>
</glyph>
<glyph name="uni17DA" format="2">
  <advance width="1192"/>
  <unicode hex="17DA"/>
  <note>
uni17DA
</note>
  <outline>
    <contour>
      <point x="267" y="244" type="curve" smooth="yes"/>
      <point x="374" y="244"/>
      <point x="444" y="386"/>
      <point x="498" y="508" type="curve" smooth="yes"/>
      <point x="597" y="731" type="line"/>
      <point x="728" y="311" type="line"/>
      <point x="758" y="311" type="line"/>
      <point x="864" y="676" type="line"/>
      <point x="940" y="350" type="line"/>
      <point x="968" y="350" type="line"/>
      <point x="1024" y="513" type="line"/>
      <point x="1112" y="513" type="line"/>
      <point x="1112" y="539" type="line"/>
      <point x="1006" y="539" type="line"/>
      <point x="956" y="391" type="line"/>
      <point x="878" y="708" type="line"/>
      <point x="848" y="708" type="line"/>
      <point x="742" y="343" type="line"/>
      <point x="613" y="761" type="line"/>
      <point x="583" y="761" type="line"/>
      <point x="478" y="529" type="line" smooth="yes"/>
      <point x="437" y="439"/>
      <point x="369" y="270"/>
      <point x="267" y="270" type="curve" smooth="yes"/>
      <point x="200" y="270"/>
      <point x="126" y="362"/>
      <point x="126" y="539" type="curve" smooth="yes"/>
      <point x="126" y="708"/>
      <point x="190" y="806"/>
      <point x="295" y="806" type="curve" smooth="yes"/>
      <point x="361" y="806"/>
      <point x="403" y="761"/>
      <point x="403" y="687" type="curve" smooth="yes"/>
      <point x="403" y="614"/>
      <point x="366" y="567"/>
      <point x="293" y="567" type="curve"/>
      <point x="293" y="541" type="line"/>
      <point x="398" y="541"/>
      <point x="429" y="614"/>
      <point x="429" y="690" type="curve" smooth="yes"/>
      <point x="429" y="765"/>
      <point x="389" y="832"/>
      <point x="294" y="832" type="curve" smooth="yes"/>
      <point x="191" y="832"/>
      <point x="100" y="740"/>
      <point x="100" y="540" type="curve" smooth="yes"/>
      <point x="100" y="353"/>
      <point x="178" y="244"/>
    </contour>
  </outline>
</glyph>
<glyph name="uni17DB" format="2">
  <advance width="278"/>
  <unicode hex="17DB"/>
  <note>
uni17DB
</note>
  <outline>
    <contour>
      <point x="88" y="524" type="line"/>
      <point x="228" y="524" type="line"/>
      <point x="228" y="550" type="line"/>
      <point x="88" y="550" type="line"/>
    </contour>
    <contour>
      <point x="150" y="550" type="line"/>
      <point x="176" y="550" type="line"/>
      <point x="176" y="592" type="line"/>
      <point x="108" y="730" type="line"/>
      <point x="115" y="754" type="line"/>
      <point x="192" y="754" type="line"/>
      <point x="192" y="780" type="line"/>
      <point x="116" y="780" type="line"/>
      <point x="103" y="763"/>
      <point x="95" y="741"/>
      <point x="95" y="724" type="curve" smooth="yes"/>
      <point x="95" y="708"/>
      <point x="105" y="678"/>
      <point x="150" y="586" type="curve"/>
    </contour>
    <contour>
      <point x="176" y="566" type="line"/>
      <point x="150" y="566" type="line"/>
      <point x="150" y="422" type="line"/>
      <point x="112" y="422"/>
      <point x="70" y="392"/>
      <point x="70" y="327" type="curve" smooth="yes"/>
      <point x="70" y="274"/>
      <point x="107" y="244"/>
      <point x="145" y="244" type="curve" smooth="yes"/>
      <point x="150" y="244" type="line" smooth="yes"/>
      <point x="165" y="244"/>
      <point x="176" y="253"/>
      <point x="176" y="266" type="curve" smooth="yes"/>
    </contour>
    <contour>
      <point x="150" y="269" type="line"/>
      <point x="118" y="269"/>
      <point x="97" y="289"/>
      <point x="97" y="329" type="curve" smooth="yes"/>
      <point x="97" y="371"/>
      <point x="127" y="393"/>
      <point x="150" y="393" type="curve"/>
    </contour>
  </outline>
</glyph>
<glyph name="uni17DC" format="2">
  <advance width="647"/>
  <unicode hex="17DC"/>
  <note>
uni17DC
</note>
  <outline>
    <contour>
      <point x="300" y="244" type="curve" smooth="yes"/>
      <point x="441" y="244"/>
      <point x="519" y="330"/>
      <point x="519" y="427" type="curve" smooth="yes"/>
      <point x="519" y="516"/>
      <point x="451" y="550"/>
      <point x="312" y="581" type="curve" smooth="yes"/>
      <point x="233" y="599"/>
      <point x="147" y="614"/>
      <point x="147" y="709" type="curve" smooth="yes"/>
      <point x="147" y="813"/>
      <point x="249" y="852"/>
      <point x="327" y="852" type="curve" smooth="yes"/>
      <point x="377" y="852"/>
      <point x="484" y="835"/>
      <point x="484" y="736" type="curve" smooth="yes"/>
      <point x="484" y="664"/>
      <point x="431" y="661"/>
      <point x="413" y="661" type="curve"/>
      <point x="413" y="635" type="line"/>
      <point x="462" y="635"/>
      <point x="510" y="669"/>
      <point x="510" y="740" type="curve" smooth="yes"/>
      <point x="510" y="819"/>
      <point x="451" y="878"/>
      <point x="327" y="878" type="curve" smooth="yes"/>
      <point x="203" y="878"/>
      <point x="120" y="810"/>
      <point x="120" y="708" type="curve" smooth="yes"/>
      <point x="120" y="596"/>
      <point x="218" y="573"/>
      <point x="306" y="553" type="curve" smooth="yes"/>
      <point x="418" y="528"/>
      <point x="493" y="504"/>
      <point x="493" y="426" type="curve" smooth="yes"/>
      <point x="493" y="349"/>
      <point x="426" y="270"/>
      <point x="304" y="270" type="curve" smooth="yes"/>
      <point x="216" y="270"/>
      <point x="146" y="311"/>
      <point x="146" y="378" type="curve" smooth="yes"/>
      <point x="146" y="443"/>
      <point x="208" y="468"/>
      <point x="240" y="468" type="curve"/>
      <point x="240" y="494" type="line"/>
      <point x="200" y="494"/>
      <point x="120" y="463"/>
      <point x="120" y="378" type="curve" smooth="yes"/>
      <point x="120" y="306"/>
      <point x="179" y="244"/>
    </contour>
  </outline>
</glyph>
<glyph name="uni17E0" format="2">
  <advance width="494"/>
  <unicode hex="17E0"/>
  <note>
uni17E0
</note>
  <outline>
    <contour>
      <point x="247" y="244" type="curve" smooth="yes"/>
      <point x="341" y="244"/>
      <point x="404" y="306"/>
      <point x="404" y="430" type="curve" smooth="yes"/>
      <point x="404" y="644" type="line" smooth="yes"/>
      <point x="404" y="768"/>
      <point x="341" y="830"/>
      <point x="247" y="830" type="curve" smooth="yes"/>
      <point x="153" y="830"/>
      <point x="90" y="768"/>
      <point x="90" y="644" type="curve" smooth="yes"/>
      <point x="90" y="430" type="line" smooth="yes"/>
      <point x="90" y="306"/>
      <point x="153" y="244"/>
    </contour>
    <contour>
      <point x="247" y="270" type="curve" smooth="yes"/>
      <point x="170" y="270"/>
      <point x="116" y="329"/>
      <point x="116" y="430" type="curve" smooth="yes"/>
      <point x="116" y="644" type="line" smooth="yes"/>
      <point x="116" y="745"/>
      <point x="170" y="804"/>
      <point x="247" y="804" type="curve" smooth="yes"/>
      <point x="324" y="804"/>
      <point x="378" y="745"/>
      <point x="378" y="644" type="curve" smooth="yes"/>
      <point x="378" y="430" type="line" smooth="yes"/>
      <point x="378" y="329"/>
      <point x="324" y="270"/>
    </contour>
  </outline>
</glyph>
<glyph name="uni17E1" format="2">
  <advance width="493"/>
  <unicode hex="17E1"/>
  <note>
uni17E1
</note>
  <outline>
    <contour>
      <point x="246" y="244" type="curve" smooth="yes"/>
      <point x="333" y="244"/>
      <point x="403" y="301"/>
      <point x="403" y="400" type="curve" smooth="yes"/>
      <point x="403" y="674" type="line" smooth="yes"/>
      <point x="403" y="778"/>
      <point x="341" y="830"/>
      <point x="246" y="830" type="curve" smooth="yes"/>
      <point x="152" y="830"/>
      <point x="90" y="778"/>
      <point x="90" y="674" type="curve" smooth="yes"/>
      <point x="90" y="600" type="line" smooth="yes"/>
      <point x="90" y="537"/>
      <point x="130" y="498"/>
      <point x="186" y="498" type="curve" smooth="yes"/>
      <point x="276" y="498" type="line"/>
      <point x="276" y="524" type="line"/>
      <point x="184" y="524" type="line" smooth="yes"/>
      <point x="137" y="524"/>
      <point x="116" y="565"/>
      <point x="116" y="600" type="curve" smooth="yes"/>
      <point x="116" y="674" type="line" smooth="yes"/>
      <point x="116" y="755"/>
      <point x="169" y="804"/>
      <point x="246" y="804" type="curve" smooth="yes"/>
      <point x="323" y="804"/>
      <point x="377" y="755"/>
      <point x="377" y="674" type="curve" smooth="yes"/>
      <point x="377" y="400" type="line" smooth="yes"/>
      <point x="377" y="319"/>
      <point x="323" y="270"/>
      <point x="246" y="270" type="curve" smooth="yes"/>
      <point x="169" y="270"/>
      <point x="116" y="319"/>
      <point x="116" y="400" type="curve"/>
      <point x="90" y="400" type="line"/>
      <point x="90" y="301"/>
      <point x="155" y="244"/>
    </contour>
  </outline>
</glyph>
<glyph name="uni17E2" format="2">
  <advance width="574"/>
  <unicode hex="17E2"/>
  <note>
uni17E2
</note>
  <outline>
    <contour>
      <point x="300" y="244" type="curve" smooth="yes"/>
      <point x="411" y="244"/>
      <point x="484" y="307"/>
      <point x="484" y="439" type="curve" smooth="yes"/>
      <point x="484" y="830" type="line"/>
      <point x="458" y="830" type="line"/>
      <point x="344" y="712" type="line"/>
      <point x="229" y="830" type="line"/>
      <point x="203" y="830" type="line"/>
      <point x="203" y="552" type="line"/>
      <point x="256" y="552" type="line"/>
      <point x="256" y="578" type="line"/>
      <point x="229" y="578" type="line"/>
      <point x="229" y="791" type="line"/>
      <point x="344" y="673" type="line"/>
      <point x="458" y="791" type="line"/>
      <point x="458" y="439" type="line" smooth="yes"/>
      <point x="458" y="332"/>
      <point x="392" y="270"/>
      <point x="300" y="270" type="curve" smooth="yes"/>
      <point x="199" y="270"/>
      <point x="134" y="332"/>
      <point x="134" y="439" type="curve" smooth="yes"/>
      <point x="134" y="926" type="line" smooth="yes"/>
      <point x="134" y="946"/>
      <point x="130" y="952"/>
      <point x="108" y="952" type="curve" smooth="yes"/>
      <point x="60" y="952" type="line"/>
      <point x="60" y="926" type="line"/>
      <point x="108" y="926" type="line"/>
      <point x="108" y="439" type="line" smooth="yes"/>
      <point x="108" y="309"/>
      <point x="183" y="244"/>
    </contour>
  </outline>
</glyph>
<glyph name="uni17E3" format="2">
  <advance width="681"/>
  <unicode hex="17E3"/>
  <note>
uni17E3
</note>
  <outline>
    <contour>
      <point x="90" y="244" type="line"/>
      <point x="155" y="244" type="line"/>
      <point x="155" y="270" type="line"/>
      <point x="116" y="270" type="line"/>
      <point x="116" y="687" type="line" smooth="yes"/>
      <point x="116" y="761"/>
      <point x="153" y="804"/>
      <point x="226" y="804" type="curve" smooth="yes"/>
      <point x="283" y="804"/>
      <point x="328" y="777"/>
      <point x="328" y="745" type="curve" smooth="yes"/>
      <point x="328" y="244" type="line"/>
      <point x="354" y="244" type="line"/>
      <point x="354" y="745" type="line" smooth="yes"/>
      <point x="354" y="777"/>
      <point x="397" y="804"/>
      <point x="459" y="804" type="curve" smooth="yes"/>
      <point x="539" y="804"/>
      <point x="565" y="757"/>
      <point x="565" y="684" type="curve" smooth="yes"/>
      <point x="565" y="244" type="line"/>
      <point x="591" y="244" type="line"/>
      <point x="591" y="684" type="line" smooth="yes"/>
      <point x="591" y="781"/>
      <point x="547" y="830"/>
      <point x="459" y="830" type="curve" smooth="yes"/>
      <point x="419" y="830"/>
      <point x="372" y="820"/>
      <point x="340" y="786" type="curve"/>
      <point x="309" y="815"/>
      <point x="268" y="830"/>
      <point x="226" y="830" type="curve" smooth="yes"/>
      <point x="152" y="830"/>
      <point x="90" y="788"/>
      <point x="90" y="687" type="curve" smooth="yes"/>
    </contour>
  </outline>
</glyph>
<glyph name="uni17E4" format="2">
  <advance width="497"/>
  <unicode hex="17E4"/>
  <note>
uni17E4
</note>
  <outline>
    <contour>
      <point x="275" y="244" type="curve" smooth="yes"/>
      <point x="383" y="244" type="line"/>
      <point x="404" y="275" type="line"/>
      <point x="296" y="471" type="line"/>
      <point x="296" y="676" type="line"/>
      <point x="407" y="676" type="line"/>
      <point x="407" y="702" type="line"/>
      <point x="322" y="702" type="line" smooth="yes"/>
      <point x="274" y="702"/>
      <point x="270" y="693"/>
      <point x="270" y="662" type="curve" smooth="yes"/>
      <point x="270" y="463" type="line"/>
      <point x="376" y="270" type="line"/>
      <point x="275" y="270" type="line" smooth="yes"/>
      <point x="168" y="270"/>
      <point x="125" y="332"/>
      <point x="125" y="439" type="curve" smooth="yes"/>
      <point x="125" y="912" type="line" smooth="yes"/>
      <point x="125" y="942"/>
      <point x="116" y="947"/>
      <point x="99" y="947" type="curve" smooth="yes"/>
      <point x="60" y="947" type="line"/>
      <point x="60" y="921" type="line"/>
      <point x="99" y="921" type="line"/>
      <point x="99" y="439" type="line" smooth="yes"/>
      <point x="99" y="309"/>
      <point x="151" y="244"/>
    </contour>
  </outline>
</glyph>
<glyph name="uni17E5" format="2">
  <advance width="483"/>
  <unicode hex="17E5"/>
  <note>
uni17E5
</note>
  <outline>
    <contour>
      <point x="279" y="244" type="curve" smooth="yes"/>
      <point x="386" y="244" type="line"/>
      <point x="408" y="275" type="line"/>
      <point x="289" y="471" type="line"/>
      <point x="289" y="609" type="line"/>
      <point x="423" y="609" type="line"/>
      <point x="423" y="635" type="line"/>
      <point x="297" y="635" type="line" smooth="yes"/>
      <point x="265" y="635"/>
      <point x="263" y="626"/>
      <point x="263" y="595" type="curve" smooth="yes"/>
      <point x="263" y="463" type="line"/>
      <point x="380" y="270" type="line"/>
      <point x="276" y="270" type="line" smooth="yes"/>
      <point x="169" y="270"/>
      <point x="116" y="332"/>
      <point x="116" y="439" type="curve" smooth="yes"/>
      <point x="116" y="651" type="line" smooth="yes"/>
      <point x="116" y="715"/>
      <point x="154" y="757"/>
      <point x="186" y="769" type="curve"/>
      <point x="226" y="743"/>
      <point x="256" y="729"/>
      <point x="297" y="729" type="curve" smooth="yes"/>
      <point x="361" y="729"/>
      <point x="405" y="773"/>
      <point x="405" y="834" type="curve" smooth="yes"/>
      <point x="405" y="948" type="line"/>
      <point x="379" y="948" type="line"/>
      <point x="379" y="834" type="line" smooth="yes"/>
      <point x="379" y="795"/>
      <point x="354" y="755"/>
      <point x="297" y="755" type="curve" smooth="yes"/>
      <point x="259" y="755"/>
      <point x="239" y="763"/>
      <point x="214" y="781" type="curve"/>
      <point x="224" y="789"/>
      <point x="231" y="798"/>
      <point x="231" y="815" type="curve" smooth="yes"/>
      <point x="231" y="833"/>
      <point x="215" y="852"/>
      <point x="191" y="852" type="curve" smooth="yes"/>
      <point x="171" y="852"/>
      <point x="154" y="836"/>
      <point x="154" y="815" type="curve" smooth="yes"/>
      <point x="154" y="803"/>
      <point x="158" y="796"/>
      <point x="166" y="787" type="curve"/>
      <point x="105" y="759"/>
      <point x="90" y="698"/>
      <point x="90" y="657" type="curve" smooth="yes"/>
      <point x="90" y="439" type="line" smooth="yes"/>
      <point x="90" y="309"/>
      <point x="159" y="244"/>
    </contour>
  </outline>
</glyph>
<glyph name="uni17E6" format="2">
  <advance width="494"/>
  <unicode hex="17E6"/>
  <note>
uni17E6
</note>
  <outline>
    <contour>
      <point x="244" y="244" type="curve" smooth="yes"/>
      <point x="329" y="244"/>
      <point x="404" y="301"/>
      <point x="404" y="439" type="curve" smooth="yes"/>
      <point x="404" y="635" type="line" smooth="yes"/>
      <point x="404" y="765"/>
      <point x="333" y="830"/>
      <point x="245" y="830" type="curve" smooth="yes"/>
      <point x="199" y="830"/>
      <point x="145" y="814"/>
      <point x="116" y="766" type="curve"/>
      <point x="116" y="948" type="line"/>
      <point x="90" y="948" type="line"/>
      <point x="90" y="664" type="line"/>
      <point x="116" y="664" type="line"/>
      <point x="116" y="752"/>
      <point x="161" y="804"/>
      <point x="243" y="804" type="curve" smooth="yes"/>
      <point x="325" y="804"/>
      <point x="378" y="742"/>
      <point x="378" y="635" type="curve" smooth="yes"/>
      <point x="378" y="439" type="line" smooth="yes"/>
      <point x="378" y="324"/>
      <point x="321" y="270"/>
      <point x="244" y="270" type="curve" smooth="yes"/>
      <point x="165" y="270"/>
      <point x="116" y="314"/>
      <point x="116" y="425" type="curve" smooth="yes"/>
      <point x="116" y="494"/>
      <point x="135" y="560"/>
      <point x="217" y="560" type="curve" smooth="yes"/>
      <point x="262" y="560" type="line"/>
      <point x="262" y="586" type="line"/>
      <point x="223" y="586" type="line" smooth="yes"/>
      <point x="137" y="586"/>
      <point x="91" y="539"/>
      <point x="91" y="425" type="curve" smooth="yes"/>
      <point x="91" y="291"/>
      <point x="159" y="244"/>
    </contour>
  </outline>
</glyph>
<glyph name="uni17E7" format="2">
  <advance width="586"/>
  <unicode hex="17E7"/>
  <note>
uni17E7
</note>
  <outline>
    <contour>
      <point x="90" y="244" type="line"/>
      <point x="175" y="244" type="line"/>
      <point x="175" y="270" type="line"/>
      <point x="116" y="270" type="line"/>
      <point x="116" y="745" type="line" smooth="yes"/>
      <point x="116" y="778"/>
      <point x="125" y="804"/>
      <point x="151" y="804" type="curve" smooth="yes"/>
      <point x="172" y="804"/>
      <point x="192" y="785"/>
      <point x="213" y="754" type="curve" smooth="yes"/>
      <point x="219" y="744"/>
      <point x="227" y="739"/>
      <point x="235" y="739" type="curve" smooth="yes"/>
      <point x="243" y="739"/>
      <point x="251" y="744"/>
      <point x="258" y="754" type="curve" smooth="yes"/>
      <point x="280" y="784"/>
      <point x="299" y="804"/>
      <point x="320" y="804" type="curve" smooth="yes"/>
      <point x="346" y="804"/>
      <point x="359" y="779"/>
      <point x="359" y="747" type="curve" smooth="yes"/>
      <point x="359" y="305" type="line" smooth="yes"/>
      <point x="359" y="265"/>
      <point x="388" y="244"/>
      <point x="428" y="244" type="curve" smooth="yes"/>
      <point x="468" y="244"/>
      <point x="496" y="265"/>
      <point x="496" y="305" type="curve" smooth="yes"/>
      <point x="496" y="945" type="line"/>
      <point x="470" y="945" type="line"/>
      <point x="470" y="303" type="line" smooth="yes"/>
      <point x="470" y="274"/>
      <point x="444" y="270"/>
      <point x="428" y="270" type="curve" smooth="yes"/>
      <point x="415" y="270"/>
      <point x="385" y="274"/>
      <point x="385" y="303" type="curve" smooth="yes"/>
      <point x="385" y="721" type="line" smooth="yes"/>
      <point x="385" y="789"/>
      <point x="366" y="830"/>
      <point x="315" y="830" type="curve" smooth="yes"/>
      <point x="291" y="830"/>
      <point x="264" y="810"/>
      <point x="235" y="769" type="curve"/>
      <point x="207" y="810"/>
      <point x="180" y="830"/>
      <point x="156" y="830" type="curve" smooth="yes"/>
      <point x="103" y="830"/>
      <point x="90" y="791"/>
      <point x="90" y="726" type="curve" smooth="yes"/>
    </contour>
  </outline>
</glyph>
<glyph name="uni17E8" format="2">
  <advance width="492"/>
  <unicode hex="17E8"/>
  <note>
uni17E8
</note>
  <outline>
    <contour>
      <point x="90" y="244" type="line"/>
      <point x="133" y="244" type="line"/>
      <point x="247" y="358" type="line"/>
      <point x="359" y="244" type="line"/>
      <point x="402" y="244" type="line"/>
      <point x="402" y="540" type="line" smooth="yes"/>
      <point x="402" y="579"/>
      <point x="391" y="590"/>
      <point x="343" y="590" type="curve" smooth="yes"/>
      <point x="258" y="590" type="line"/>
      <point x="258" y="564" type="line"/>
      <point x="344" y="564" type="line" smooth="yes"/>
      <point x="369" y="564"/>
      <point x="376" y="553"/>
      <point x="376" y="533" type="curve" smooth="yes"/>
      <point x="376" y="263" type="line"/>
      <point x="247" y="394" type="line"/>
      <point x="116" y="263" type="line"/>
      <point x="116" y="674" type="line" smooth="yes"/>
      <point x="116" y="755"/>
      <point x="160" y="804"/>
      <point x="249" y="804" type="curve" smooth="yes"/>
      <point x="331" y="804"/>
      <point x="376" y="752"/>
      <point x="376" y="674" type="curve"/>
      <point x="402" y="674" type="line"/>
      <point x="402" y="938" type="line"/>
      <point x="376" y="938" type="line"/>
      <point x="376" y="771" type="line"/>
      <point x="345" y="811"/>
      <point x="301" y="830"/>
      <point x="249" y="830" type="curve" smooth="yes"/>
      <point x="153" y="830"/>
      <point x="90" y="778"/>
      <point x="90" y="674" type="curve" smooth="yes"/>
    </contour>
  </outline>
</glyph>
<glyph name="uni17E9" format="2">
  <advance width="493"/>
  <unicode hex="17E9"/>
  <note>
uni17E9
</note>
  <outline>
    <contour>
      <point x="247" y="244" type="curve" smooth="yes"/>
      <point x="351" y="244"/>
      <point x="403" y="304"/>
      <point x="403" y="386" type="curve" smooth="yes"/>
      <point x="403" y="463"/>
      <point x="352" y="484"/>
      <point x="288" y="484" type="curve" smooth="yes"/>
      <point x="247" y="484" type="line"/>
      <point x="247" y="458" type="line"/>
      <point x="288" y="458" type="line" smooth="yes"/>
      <point x="350" y="458"/>
      <point x="377" y="440"/>
      <point x="377" y="382" type="curve" smooth="yes"/>
      <point x="377" y="316"/>
      <point x="339" y="270"/>
      <point x="247" y="270" type="curve" smooth="yes"/>
      <point x="158" y="270"/>
      <point x="118" y="315"/>
      <point x="118" y="390" type="curve" smooth="yes"/>
      <point x="118" y="501" type="line" smooth="yes"/>
      <point x="118" y="564"/>
      <point x="141" y="577"/>
      <point x="167" y="577" type="curve" smooth="yes"/>
      <point x="369" y="577" type="line"/>
      <point x="369" y="603" type="line"/>
      <point x="167" y="603" type="line" smooth="yes"/>
      <point x="137" y="603"/>
      <point x="116" y="644"/>
      <point x="116" y="687" type="curve" smooth="yes"/>
      <point x="116" y="759"/>
      <point x="160" y="804"/>
      <point x="247" y="804" type="curve" smooth="yes"/>
      <point x="344" y="804"/>
      <point x="377" y="763"/>
      <point x="377" y="704" type="curve"/>
      <point x="403" y="704" type="line"/>
      <point x="403" y="944" type="line"/>
      <point x="377" y="944" type="line"/>
      <point x="377" y="790" type="line"/>
      <point x="331" y="822"/>
      <point x="297" y="830"/>
      <point x="247" y="830" type="curve" smooth="yes"/>
      <point x="168" y="830"/>
      <point x="90" y="790"/>
      <point x="90" y="686" type="curve" smooth="yes"/>
      <point x="90" y="629"/>
      <point x="113" y="609"/>
      <point x="120" y="593" type="curve"/>
      <point x="101" y="568"/>
      <point x="92" y="534"/>
      <point x="92" y="501" type="curve" smooth="yes"/>
      <point x="92" y="390" type="line" smooth="yes"/>
      <point x="92" y="293"/>
      <point x="143" y="244"/>
    </contour>
  </outline>
</glyph>
<glyph name="uni17F0" format="2">
  <advance width="350"/>
  <unicode hex="17F0"/>
  <note>
uni17F0
</note>
  <outline>
    <contour>
      <point x="174" y="250" type="curve" smooth="yes"/>
      <point x="238" y="250"/>
      <point x="278" y="305"/>
      <point x="278" y="415" type="curve" smooth="yes"/>
      <point x="278" y="525"/>
      <point x="238" y="580"/>
      <point x="174" y="580" type="curve" smooth="yes"/>
      <point x="110" y="580"/>
      <point x="71" y="525"/>
      <point x="71" y="415" type="curve" smooth="yes"/>
      <point x="71" y="305"/>
      <point x="110" y="250"/>
    </contour>
    <contour>
      <point x="174" y="276" type="curve" smooth="yes"/>
      <point x="129" y="276"/>
      <point x="97" y="314"/>
      <point x="97" y="415" type="curve" smooth="yes"/>
      <point x="97" y="516"/>
      <point x="129" y="554"/>
      <point x="174" y="554" type="curve" smooth="yes"/>
      <point x="220" y="554"/>
      <point x="252" y="515"/>
      <point x="252" y="415" type="curve" smooth="yes"/>
      <point x="252" y="314"/>
      <point x="221" y="276"/>
    </contour>
  </outline>
</glyph>
<glyph name="uni17F1" format="2">
  <advance width="375"/>
  <unicode hex="17F1"/>
  <note>
uni17F1
</note>
  <outline>
    <contour>
      <point x="60" y="244" type="line"/>
      <point x="86" y="244" type="line"/>
      <point x="189" y="547" type="line"/>
      <point x="289" y="244" type="line"/>
      <point x="315" y="244" type="line"/>
      <point x="197" y="586" type="line"/>
      <point x="181" y="586" type="line"/>
    </contour>
  </outline>
</glyph>
<glyph name="uni17F3" format="2">
  <advance width="526"/>
  <unicode hex="17F3"/>
  <note>
uni17F3
</note>
  <outline>
    <contour>
      <point x="359" y="586" type="line"/>
      <point x="341" y="586" type="line"/>
      <point x="264" y="279" type="line"/>
      <point x="184" y="586" type="line"/>
      <point x="166" y="586" type="line"/>
      <point x="76" y="244" type="line"/>
      <point x="102" y="244" type="line"/>
      <point x="175" y="547" type="line"/>
      <point x="251" y="244" type="line"/>
      <point x="275" y="244" type="line"/>
      <point x="350" y="547" type="line"/>
      <point x="424" y="244" type="line"/>
      <point x="450" y="244" type="line"/>
    </contour>
  </outline>
</glyph>
<glyph name="uni17F5" format="2">
  <advance width="354"/>
  <unicode hex="17F5"/>
  <note>
uni17F5
</note>
  <outline>
    <contour>
      <point x="178" y="250" type="curve" smooth="yes"/>
      <point x="215" y="250"/>
      <point x="244" y="280"/>
      <point x="244" y="342" type="curve" smooth="yes"/>
      <point x="244" y="387"/>
      <point x="233" y="431"/>
      <point x="194" y="475" type="curve"/>
      <point x="278" y="586" type="line"/>
      <point x="250" y="586" type="line"/>
      <point x="177" y="491" type="line"/>
      <point x="104" y="586" type="line"/>
      <point x="76" y="586" type="line"/>
      <point x="160" y="475" type="line"/>
      <point x="122" y="430"/>
      <point x="111" y="386"/>
      <point x="111" y="342" type="curve" smooth="yes"/>
      <point x="111" y="274"/>
      <point x="139" y="250"/>
    </contour>
    <contour>
      <point x="137" y="342" type="curve" smooth="yes"/>
      <point x="137" y="373"/>
      <point x="140" y="413"/>
      <point x="177" y="456" type="curve"/>
      <point x="215" y="411"/>
      <point x="218" y="374"/>
      <point x="218" y="342" type="curve" smooth="yes"/>
      <point x="218" y="308"/>
      <point x="203" y="276"/>
      <point x="177" y="276" type="curve" smooth="yes"/>
      <point x="150" y="276"/>
      <point x="137" y="310"/>
    </contour>
  </outline>
</glyph>
<glyph name="uni17F6" format="2">
  <advance width="263"/>
  <unicode hex="17F6"/>
  <note>
uni17F6
</note>
  <outline>
    <contour>
      <point x="167" y="244" type="line"/>
      <point x="195" y="244" type="line"/>
      <point x="96" y="586" type="line"/>
      <point x="68" y="586" type="line"/>
    </contour>
  </outline>
</glyph>
<glyph name="uni17F7" format="2">
  <advance width="448"/>
  <unicode hex="17F7"/>
  <note>
uni17F7
</note>
  <outline>
    <contour>
      <point x="80" y="244" type="line"/>
      <point x="108" y="244" type="line"/>
      <point x="183" y="529" type="line"/>
      <point x="255" y="244" type="line"/>
      <point x="268" y="244" type="line"/>
      <point x="368" y="586" type="line"/>
      <point x="340" y="586" type="line"/>
      <point x="263" y="310" type="line"/>
      <point x="192" y="586" type="line"/>
      <point x="177" y="586" type="line"/>
    </contour>
  </outline>
</glyph>
<glyph name="uni17F8" format="2">
  <advance width="261"/>
  <unicode hex="17F8"/>
  <note>
uni17F8
</note>
  <outline>
    <contour>
      <point x="68" y="244" type="line"/>
      <point x="94" y="244" type="line"/>
      <point x="193" y="586" type="line"/>
      <point x="165" y="586" type="line"/>
    </contour>
  </outline>
</glyph>
<glyph name="uni17F9" format="2">
  <advance width="439"/>
  <unicode hex="17F9"/>
  <note>
uni17F9
</note>
  <outline>
    <contour>
      <point x="214" y="79" type="line"/>
      <point x="289" y="79"/>
      <point x="347" y="103"/>
      <point x="347" y="190" type="curve" smooth="yes"/>
      <point x="347" y="231"/>
      <point x="334" y="293"/>
      <point x="238" y="293" type="curve" smooth="yes"/>
      <point x="121" y="293" type="line"/>
      <point x="306" y="473" type="line"/>
      <point x="292" y="496" type="line"/>
      <point x="60" y="280" type="line"/>
      <point x="71" y="267" type="line"/>
      <point x="219" y="267" type="line" smooth="yes"/>
      <point x="285" y="267"/>
      <point x="321" y="244"/>
      <point x="321" y="190" type="curve" smooth="yes"/>
      <point x="321" y="133"/>
      <point x="288" y="103"/>
      <point x="214" y="103" type="curve"/>
    </contour>
  </outline>
</glyph>
<glyph name="uni19E0" format="2">
  <advance width="494"/>
  <unicode hex="19E0"/>
  <note>
uni19E0
</note>
  <outline>
    <contour>
      <point x="247" y="458" type="curve" smooth="yes"/>
      <point x="341" y="458"/>
      <point x="404" y="520"/>
      <point x="404" y="644" type="curve" smooth="yes"/>
      <point x="404" y="858" type="line" smooth="yes"/>
      <point x="404" y="982"/>
      <point x="341" y="1044"/>
      <point x="247" y="1044" type="curve" smooth="yes"/>
      <point x="153" y="1044"/>
      <point x="90" y="982"/>
      <point x="90" y="858" type="curve" smooth="yes"/>
      <point x="90" y="644" type="line" smooth="yes"/>
      <point x="90" y="520"/>
      <point x="153" y="458"/>
    </contour>
    <contour>
      <point x="247" y="484" type="curve" smooth="yes"/>
      <point x="170" y="484"/>
      <point x="116" y="543"/>
      <point x="116" y="644" type="curve" smooth="yes"/>
      <point x="116" y="858" type="line" smooth="yes"/>
      <point x="116" y="959"/>
      <point x="170" y="1018"/>
      <point x="247" y="1018" type="curve" smooth="yes"/>
      <point x="324" y="1018"/>
      <point x="378" y="959"/>
      <point x="378" y="858" type="curve" smooth="yes"/>
      <point x="378" y="644" type="line" smooth="yes"/>
      <point x="378" y="543"/>
      <point x="324" y="484"/>
    </contour>
    <contour>
      <point x="90" y="-271" type="line"/>
      <point x="133" y="-271" type="line"/>
      <point x="247" y="-157" type="line"/>
      <point x="359" y="-271" type="line"/>
      <point x="402" y="-271" type="line"/>
      <point x="402" y="25" type="line" smooth="yes"/>
      <point x="402" y="64"/>
      <point x="391" y="75"/>
      <point x="343" y="75" type="curve" smooth="yes"/>
      <point x="258" y="75" type="line"/>
      <point x="258" y="49" type="line"/>
      <point x="344" y="49" type="line" smooth="yes"/>
      <point x="369" y="49"/>
      <point x="376" y="38"/>
      <point x="376" y="18" type="curve" smooth="yes"/>
      <point x="376" y="-252" type="line"/>
      <point x="247" y="-121" type="line"/>
      <point x="116" y="-252" type="line"/>
      <point x="116" y="159" type="line" smooth="yes"/>
      <point x="116" y="240"/>
      <point x="160" y="289"/>
      <point x="249" y="289" type="curve" smooth="yes"/>
      <point x="331" y="289"/>
      <point x="376" y="237"/>
      <point x="376" y="159" type="curve"/>
      <point x="402" y="159" type="line"/>
      <point x="402" y="423" type="line"/>
      <point x="376" y="423" type="line"/>
      <point x="376" y="256" type="line"/>
      <point x="345" y="296"/>
      <point x="301" y="315"/>
      <point x="249" y="315" type="curve" smooth="yes"/>
      <point x="153" y="315"/>
      <point x="90" y="263"/>
      <point x="90" y="159" type="curve" smooth="yes"/>
    </contour>
  </outline>
</glyph>
<glyph name="uni19E1" format="2">
  <advance width="493"/>
  <unicode hex="19E1"/>
  <note>
uni19E1
</note>
  <outline>
    <contour>
      <point x="246" y="407" type="curve" smooth="yes"/>
      <point x="333" y="407"/>
      <point x="403" y="464"/>
      <point x="403" y="563" type="curve" smooth="yes"/>
      <point x="403" y="837" type="line" smooth="yes"/>
      <point x="403" y="941"/>
      <point x="341" y="993"/>
      <point x="246" y="993" type="curve" smooth="yes"/>
      <point x="152" y="993"/>
      <point x="90" y="941"/>
      <point x="90" y="837" type="curve" smooth="yes"/>
      <point x="90" y="763" type="line" smooth="yes"/>
      <point x="90" y="700"/>
      <point x="130" y="661"/>
      <point x="186" y="661" type="curve" smooth="yes"/>
      <point x="276" y="661" type="line"/>
      <point x="276" y="687" type="line"/>
      <point x="184" y="687" type="line" smooth="yes"/>
      <point x="137" y="687"/>
      <point x="116" y="728"/>
      <point x="116" y="763" type="curve" smooth="yes"/>
      <point x="116" y="837" type="line" smooth="yes"/>
      <point x="116" y="918"/>
      <point x="169" y="967"/>
      <point x="246" y="967" type="curve" smooth="yes"/>
      <point x="323" y="967"/>
      <point x="377" y="918"/>
      <point x="377" y="837" type="curve" smooth="yes"/>
      <point x="377" y="563" type="line" smooth="yes"/>
      <point x="377" y="482"/>
      <point x="323" y="433"/>
      <point x="246" y="433" type="curve" smooth="yes"/>
      <point x="169" y="433"/>
      <point x="116" y="482"/>
      <point x="116" y="563" type="curve"/>
      <point x="90" y="563" type="line"/>
      <point x="90" y="464"/>
      <point x="155" y="407"/>
    </contour>
    <contour>
      <point x="348" y="-271" type="line"/>
      <point x="374" y="-271" type="line"/>
      <point x="374" y="315" type="line"/>
      <point x="348" y="315" type="line"/>
      <point x="317" y="256"/>
      <point x="258" y="160"/>
      <point x="187" y="160" type="curve" smooth="yes"/>
      <point x="141" y="160"/>
      <point x="126" y="195"/>
      <point x="126" y="228" type="curve" smooth="yes"/>
      <point x="126" y="253"/>
      <point x="141" y="289"/>
      <point x="183" y="289" type="curve" smooth="yes"/>
      <point x="194" y="289" type="line"/>
      <point x="194" y="315" type="line"/>
      <point x="193" y="315" type="line" smooth="yes"/>
      <point x="131" y="315"/>
      <point x="100" y="282"/>
      <point x="100" y="226" type="curve" smooth="yes"/>
      <point x="100" y="164"/>
      <point x="140" y="134"/>
      <point x="188" y="134" type="curve" smooth="yes"/>
      <point x="263" y="134"/>
      <point x="320" y="216"/>
      <point x="348" y="267" type="curve"/>
    </contour>
  </outline>
</glyph>
